{"glyphs":{"0":{"ha":719,"x_min":75,"x_max":644,"o":"m 360 -12 q 209 37 273 -12 q 110 202 145 87 q 75 514 75 317 q 110 826 75 710 q 208 991 144 941 q 360 1040 272 1040 q 511 991 447 1040 q 610 826 575 941 q 644 514 644 710 q 609 202 644 317 q 510 37 574 87 q 360 -12 447 -12 m 360 33 q 483 76 431 33 q 565 223 536 119 q 594 511 594 327 q 565 803 594 698 q 483 951 536 908 q 360 994 431 994 q 236 952 289 994 q 154 805 183 909 q 125 517 125 701 q 154 225 125 330 q 236 76 183 119 q 360 33 289 33 z "},"1":{"ha":383,"x_min":14,"x_max":263,"o":"m 215 0 l 215 968 l 236 979 l 14 807 l 14 858 l 236 1031 l 263 1031 l 263 0 l 215 0 z "},"2":{"ha":558,"x_min":25,"x_max":517,"o":"m 36 0 l 36 28 l 301 461 q 371 588 344 531 q 410 693 398 644 q 422 790 422 742 q 367 950 422 905 q 210 994 311 994 q 115 985 160 994 q 25 956 70 976 l 25 1003 q 80 1023 49 1015 q 144 1036 110 1031 q 210 1040 178 1040 q 401 982 331 1040 q 471 790 471 924 q 458 686 471 738 q 416 574 445 635 q 339 433 388 513 l 88 28 l 75 44 l 517 44 l 517 0 l 36 0 z "},"3":{"ha":596,"x_min":35,"x_max":543,"o":"m 243 -12 q 135 -3 187 -12 q 35 25 83 6 l 35 72 q 139 43 86 53 q 242 33 192 33 q 426 91 358 33 q 494 264 494 149 q 428 440 494 374 q 219 506 361 506 l 147 506 l 147 551 l 171 551 q 388 617 314 551 q 463 792 463 683 q 407 944 463 894 q 242 994 351 994 q 143 985 189 994 q 53 956 98 976 l 53 1003 q 107 1023 76 1015 q 173 1036 138 1031 q 240 1040 207 1040 q 442 976 373 1040 q 511 790 511 911 q 452 620 511 692 q 283 526 394 549 l 285 542 q 477 451 412 523 q 543 265 543 380 q 507 114 543 176 q 403 20 470 52 q 243 -12 335 -12 z "},"4":{"ha":690,"x_min":35,"x_max":661,"o":"m 35 267 l 35 294 l 399 1028 l 450 1028 l 85 293 l 75 311 l 661 311 l 661 267 l 35 267 m 475 0 l 475 311 l 485 681 l 522 681 l 522 0 l 475 0 z "},"5":{"ha":596,"x_min":51,"x_max":560,"o":"m 261 -12 q 151 -3 204 -12 q 51 25 97 6 l 51 72 q 155 43 101 53 q 261 33 208 33 q 448 94 384 33 q 511 275 511 156 q 478 410 511 357 q 377 492 445 464 q 201 526 308 520 l 86 533 l 118 1028 l 517 1028 l 517 983 l 142 983 l 164 1003 l 133 546 l 97 579 l 213 572 q 405 531 327 565 q 521 433 482 497 q 560 276 560 370 q 483 62 560 136 q 261 -12 406 -12 z "},"6":{"ha":661,"x_min":86,"x_max":626,"o":"m 375 -12 q 261 11 314 -12 q 170 91 209 35 q 108 242 131 147 q 86 479 86 337 q 127 808 86 685 q 247 986 168 931 q 439 1040 326 1040 q 515 1034 476 1040 q 585 1013 553 1027 l 585 965 q 515 987 553 980 q 436 994 477 994 q 272 947 340 994 q 170 789 205 899 q 135 489 135 678 l 135 481 q 153 260 135 347 q 205 124 172 173 q 282 54 238 74 q 376 33 326 33 q 476 58 431 33 q 550 137 522 83 q 578 281 578 192 q 548 425 578 370 q 467 505 517 480 q 354 529 416 529 q 264 516 310 529 q 180 474 219 503 q 115 397 140 445 l 115 461 q 215 545 150 515 q 357 575 280 575 q 492 543 431 575 q 590 447 553 512 q 626 283 626 383 q 592 116 626 182 q 501 19 558 51 q 375 -12 444 -12 z "},"7":{"ha":544,"x_min":6,"x_max":506,"o":"m 110 0 l 458 1001 l 465 983 l 6 983 l 6 1028 l 506 1028 l 506 1000 l 158 0 l 110 0 z "},"8":{"ha":719,"x_min":63,"x_max":657,"o":"m 368 -12 q 202 19 271 -12 q 98 110 134 51 q 63 254 63 170 q 118 431 63 354 q 268 542 174 508 l 314 519 q 167 422 222 490 q 113 254 113 353 q 176 91 113 149 q 368 33 239 33 q 543 89 480 33 q 607 244 607 144 q 585 356 607 311 q 511 433 563 401 q 369 493 460 465 q 209 564 270 524 q 121 658 149 604 q 93 786 93 713 q 125 920 93 863 q 217 1009 158 977 q 357 1040 276 1040 q 554 971 481 1040 q 626 783 626 901 q 605 669 626 721 q 541 577 583 617 q 442 510 500 537 l 393 529 q 535 632 490 574 q 579 783 579 690 q 520 940 579 885 q 357 994 461 994 q 199 939 254 994 q 143 788 143 883 q 164 681 143 726 q 235 602 185 636 q 376 540 286 569 q 541 468 479 508 q 630 376 602 429 q 657 249 657 323 q 622 111 657 170 q 522 20 587 53 q 368 -12 457 -12 z "},"9":{"ha":661,"x_min":35,"x_max":575,"o":"m 286 1040 q 400 1017 347 1040 q 491 937 452 993 q 553 786 531 881 q 575 549 575 691 q 534 220 575 343 q 414 42 493 97 q 222 -12 335 -12 q 147 -6 185 -12 q 76 15 108 1 l 76 63 q 146 41 108 48 q 225 33 184 33 q 389 81 322 33 q 491 239 456 128 q 526 539 526 350 l 526 547 q 508 768 526 681 q 457 904 490 855 q 380 974 424 953 q 285 994 335 994 q 185 970 231 994 q 111 891 139 945 q 83 747 83 836 q 114 603 83 658 q 194 523 144 548 q 307 499 245 499 q 397 511 351 499 q 482 553 442 524 q 546 631 521 583 l 546 567 q 446 483 511 513 q 304 453 381 453 q 169 484 230 453 q 71 581 108 516 q 35 744 35 645 q 69 911 35 846 q 160 1009 103 977 q 286 1040 217 1040 z "},"A":{"ha":785,"x_min":18,"x_max":767,"o":"m 18 0 l 363 1028 l 422 1028 l 767 0 l 715 0 l 383 1000 l 400 1000 l 68 0 l 18 0 m 171 367 l 185 413 l 600 413 l 614 367 l 171 367 z "},"Á":{"ha":785,"x_min":18,"x_max":767,"o":"m 18 0 l 363 1028 l 422 1028 l 767 0 l 715 0 l 383 1000 l 400 1000 l 68 0 l 18 0 m 171 367 l 185 413 l 600 413 l 614 367 l 171 367 m 374 1122 l 463 1311 l 513 1311 l 413 1122 l 374 1122 z "},"Ă":{"ha":785,"x_min":18,"x_max":767,"o":"m 18 0 l 363 1028 l 422 1028 l 767 0 l 715 0 l 383 1000 l 400 1000 l 68 0 l 18 0 m 171 367 l 185 413 l 600 413 l 614 367 l 171 367 m 394 1131 q 307 1149 344 1131 q 249 1202 270 1167 q 225 1292 228 1238 l 264 1292 q 302 1199 272 1227 q 394 1171 332 1171 q 487 1199 457 1171 q 522 1292 517 1227 l 561 1292 q 538 1202 558 1238 q 481 1148 517 1166 q 394 1131 445 1131 z "},"Ắ":{"ha":785,"x_min":18,"x_max":767,"o":"m 18 0 l 363 1028 l 422 1028 l 767 0 l 715 0 l 383 1000 l 400 1000 l 68 0 l 18 0 m 171 367 l 185 413 l 600 413 l 614 367 l 171 367 m 393 1131 q 273 1170 316 1131 q 225 1292 231 1210 l 264 1292 q 300 1199 269 1227 q 393 1171 330 1171 q 486 1199 457 1171 q 522 1292 515 1227 l 561 1292 q 512 1171 556 1212 q 393 1131 468 1131 m 374 1283 l 463 1458 l 513 1458 l 413 1283 l 374 1283 z "},"Ặ":{"ha":785,"x_min":18,"x_max":767,"o":"m 18 0 l 363 1028 l 422 1028 l 767 0 l 715 0 l 383 1000 l 400 1000 l 68 0 l 18 0 m 171 367 l 185 413 l 600 413 l 614 367 l 171 367 m 393 -215 q 362 -203 374 -215 q 350 -172 350 -192 q 362 -140 350 -152 q 393 -128 374 -128 q 424 -140 412 -128 q 436 -172 436 -152 q 424 -203 436 -192 q 393 -215 412 -215 m 394 1131 q 307 1149 344 1131 q 249 1202 270 1167 q 225 1292 228 1238 l 264 1292 q 302 1199 272 1227 q 394 1171 332 1171 q 487 1199 457 1171 q 522 1292 517 1227 l 561 1292 q 538 1202 558 1238 q 481 1148 517 1166 q 394 1131 445 1131 z "},"Ằ":{"ha":785,"x_min":18,"x_max":767,"o":"m 18 0 l 363 1028 l 422 1028 l 767 0 l 715 0 l 383 1000 l 400 1000 l 68 0 l 18 0 m 171 367 l 185 413 l 600 413 l 614 367 l 171 367 m 393 1131 q 273 1170 316 1131 q 225 1292 231 1210 l 264 1292 q 300 1199 269 1227 q 393 1171 330 1171 q 486 1199 457 1171 q 522 1292 515 1227 l 561 1292 q 512 1171 556 1212 q 393 1131 468 1131 m 374 1283 l 274 1458 l 324 1458 l 413 1283 l 374 1283 z "},"Ẳ":{"ha":785,"x_min":18,"x_max":767,"o":"m 18 0 l 363 1028 l 422 1028 l 767 0 l 715 0 l 383 1000 l 400 1000 l 68 0 l 18 0 m 171 367 l 185 413 l 600 413 l 614 367 l 171 367 m 392 1131 q 273 1170 316 1131 q 225 1292 231 1210 l 264 1292 q 299 1199 269 1227 q 392 1171 329 1171 q 485 1199 454 1171 q 522 1292 515 1227 l 561 1292 q 512 1171 556 1212 q 392 1131 468 1131 m 372 1283 q 390 1327 374 1313 q 427 1351 406 1342 q 463 1369 447 1360 q 478 1399 478 1379 q 463 1425 478 1415 q 400 1435 447 1435 q 339 1428 371 1435 q 276 1408 307 1422 l 276 1447 q 334 1466 301 1459 q 400 1472 367 1472 q 490 1451 460 1472 q 519 1400 519 1431 q 504 1358 519 1372 q 469 1334 489 1343 q 432 1314 449 1325 q 414 1283 416 1303 l 372 1283 z "},"Ẵ":{"ha":785,"x_min":18,"x_max":767,"o":"m 18 0 l 363 1028 l 422 1028 l 767 0 l 715 0 l 383 1000 l 400 1000 l 68 0 l 18 0 m 171 367 l 185 413 l 600 413 l 614 367 l 171 367 m 392 1131 q 273 1170 316 1131 q 225 1292 231 1210 l 264 1292 q 299 1199 269 1227 q 392 1171 329 1171 q 485 1199 454 1171 q 522 1292 515 1227 l 561 1292 q 512 1171 556 1212 q 392 1131 468 1131 m 472 1343 q 415 1357 442 1343 q 363 1384 388 1370 q 314 1397 338 1397 q 265 1385 287 1397 q 225 1347 244 1372 l 225 1393 q 264 1425 241 1413 q 314 1436 286 1436 q 371 1423 344 1436 q 423 1395 398 1409 q 472 1382 448 1382 q 521 1394 499 1382 q 561 1432 542 1407 l 561 1386 q 523 1355 546 1367 q 472 1343 501 1343 z "},"Â":{"ha":785,"x_min":18,"x_max":767,"o":"m 18 0 l 363 1028 l 422 1028 l 767 0 l 715 0 l 383 1000 l 400 1000 l 68 0 l 18 0 m 171 367 l 185 413 l 600 413 l 614 367 l 171 367 m 231 1122 l 367 1311 l 419 1311 l 556 1122 l 507 1122 l 388 1290 l 399 1290 l 279 1122 l 231 1122 z "},"Ấ":{"ha":785,"x_min":18,"x_max":767,"o":"m 18 0 l 363 1028 l 422 1028 l 767 0 l 715 0 l 383 1000 l 400 1000 l 68 0 l 18 0 m 171 367 l 185 413 l 600 413 l 614 367 l 171 367 m 231 1122 l 367 1311 l 419 1311 l 556 1122 l 507 1122 l 388 1290 l 399 1290 l 279 1122 l 231 1122 m 517 1244 l 606 1433 l 656 1433 l 556 1244 l 517 1244 z "},"Ậ":{"ha":785,"x_min":18,"x_max":767,"o":"m 18 0 l 363 1028 l 422 1028 l 767 0 l 715 0 l 383 1000 l 400 1000 l 68 0 l 18 0 m 171 367 l 185 413 l 600 413 l 614 367 l 171 367 m 393 -215 q 362 -203 374 -215 q 350 -172 350 -192 q 362 -140 350 -152 q 393 -128 374 -128 q 424 -140 412 -128 q 436 -172 436 -152 q 424 -203 436 -192 q 393 -215 412 -215 m 231 1122 l 367 1311 l 419 1311 l 556 1122 l 507 1122 l 388 1290 l 399 1290 l 279 1122 l 231 1122 z "},"Ầ":{"ha":785,"x_min":18,"x_max":767,"o":"m 18 0 l 363 1028 l 422 1028 l 767 0 l 715 0 l 383 1000 l 400 1000 l 68 0 l 18 0 m 171 367 l 185 413 l 600 413 l 614 367 l 171 367 m 240 1122 l 376 1311 l 428 1311 l 565 1122 l 516 1122 l 397 1290 l 408 1290 l 288 1122 l 240 1122 m 540 1244 l 440 1433 l 490 1433 l 578 1244 l 540 1244 z "},"Ẩ":{"ha":785,"x_min":18,"x_max":767,"o":"m 18 0 l 363 1028 l 422 1028 l 767 0 l 715 0 l 383 1000 l 400 1000 l 68 0 l 18 0 m 171 367 l 185 413 l 600 413 l 614 367 l 171 367 m 231 1122 l 367 1311 l 419 1311 l 556 1122 l 507 1122 l 388 1290 l 399 1290 l 279 1122 l 231 1122 m 515 1244 q 533 1289 517 1274 q 570 1312 549 1303 q 606 1331 590 1321 q 621 1360 621 1340 q 606 1386 621 1376 q 543 1396 590 1396 q 482 1390 514 1396 q 419 1369 450 1383 l 419 1408 q 477 1427 444 1420 q 543 1433 510 1433 q 633 1413 603 1433 q 663 1361 663 1392 q 647 1319 663 1333 q 612 1295 632 1304 q 575 1275 592 1286 q 557 1244 559 1265 l 515 1244 z "},"Ẫ":{"ha":785,"x_min":18,"x_max":767,"o":"m 18 0 l 363 1028 l 422 1028 l 767 0 l 715 0 l 383 1000 l 400 1000 l 68 0 l 18 0 m 171 367 l 185 413 l 600 413 l 614 367 l 171 367 m 231 1122 l 367 1311 l 419 1311 l 556 1122 l 507 1122 l 388 1290 l 399 1290 l 279 1122 l 231 1122 m 469 1343 q 414 1357 440 1343 q 364 1384 388 1370 q 317 1397 340 1397 q 270 1385 291 1397 q 231 1347 249 1372 l 231 1393 q 267 1425 245 1413 q 317 1436 290 1436 q 372 1423 346 1436 q 423 1395 399 1409 q 469 1382 447 1382 q 516 1394 496 1382 q 556 1432 537 1407 l 556 1386 q 519 1355 541 1367 q 469 1343 497 1343 z "},"Ȁ":{"ha":785,"x_min":18,"x_max":767,"o":"m 18 0 l 363 1028 l 422 1028 l 767 0 l 715 0 l 383 1000 l 400 1000 l 68 0 l 18 0 m 171 367 l 185 413 l 600 413 l 614 367 l 171 367 m 463 1122 l 396 1311 l 440 1311 l 500 1122 l 463 1122 m 286 1122 l 219 1311 l 264 1311 l 324 1122 l 286 1122 z "},"Ä":{"ha":785,"x_min":18,"x_max":767,"o":"m 18 0 l 363 1028 l 422 1028 l 767 0 l 715 0 l 383 1000 l 400 1000 l 68 0 l 18 0 m 171 367 l 185 413 l 600 413 l 614 367 l 171 367 m 518 1174 q 487 1185 499 1174 q 475 1217 475 1197 q 487 1249 475 1237 q 518 1261 499 1261 q 549 1249 537 1261 q 561 1217 561 1237 q 549 1185 561 1197 q 518 1174 537 1174 m 268 1174 q 237 1185 249 1174 q 225 1217 225 1197 q 237 1249 225 1237 q 268 1261 249 1261 q 299 1249 287 1261 q 311 1217 311 1237 q 299 1185 311 1197 q 268 1174 287 1174 z "},"Ạ":{"ha":785,"x_min":18,"x_max":767,"o":"m 18 0 l 363 1028 l 422 1028 l 767 0 l 715 0 l 383 1000 l 400 1000 l 68 0 l 18 0 m 171 367 l 185 413 l 600 413 l 614 367 l 171 367 m 393 -215 q 362 -203 374 -215 q 350 -172 350 -192 q 362 -140 350 -152 q 393 -128 374 -128 q 424 -140 412 -128 q 436 -172 436 -152 q 424 -203 436 -192 q 393 -215 412 -215 z "},"À":{"ha":785,"x_min":18,"x_max":767,"o":"m 18 0 l 363 1028 l 422 1028 l 767 0 l 715 0 l 383 1000 l 400 1000 l 68 0 l 18 0 m 171 367 l 185 413 l 600 413 l 614 367 l 171 367 m 374 1122 l 274 1311 l 324 1311 l 413 1122 l 374 1122 z "},"Ả":{"ha":785,"x_min":18,"x_max":767,"o":"m 18 0 l 363 1028 l 422 1028 l 767 0 l 715 0 l 383 1000 l 400 1000 l 68 0 l 18 0 m 171 367 l 185 413 l 600 413 l 614 367 l 171 367 m 372 1122 q 393 1169 374 1154 q 434 1193 413 1183 q 465 1211 451 1201 q 478 1238 478 1220 q 463 1264 478 1253 q 400 1274 447 1274 q 339 1267 371 1274 q 276 1247 307 1261 l 276 1286 q 334 1305 301 1298 q 400 1311 367 1311 q 490 1290 460 1311 q 519 1239 519 1269 q 501 1194 519 1208 q 462 1169 483 1180 q 430 1150 444 1160 q 414 1122 416 1140 l 372 1122 z "},"Ȃ":{"ha":785,"x_min":18,"x_max":767,"o":"m 18 0 l 363 1028 l 422 1028 l 767 0 l 715 0 l 383 1000 l 400 1000 l 68 0 l 18 0 m 171 367 l 185 413 l 600 413 l 614 367 l 171 367 m 225 1142 q 249 1232 228 1196 q 305 1285 269 1267 q 392 1303 341 1303 q 479 1285 442 1303 q 537 1231 516 1267 q 561 1142 558 1195 l 522 1142 q 485 1234 515 1206 q 392 1263 454 1263 q 299 1234 329 1263 q 264 1142 269 1206 l 225 1142 z "},"Ā":{"ha":785,"x_min":18,"x_max":767,"o":"m 18 0 l 363 1028 l 422 1028 l 767 0 l 715 0 l 383 1000 l 400 1000 l 68 0 l 18 0 m 171 367 l 185 413 l 600 413 l 614 367 l 171 367 m 226 1197 l 226 1238 l 560 1238 l 560 1197 l 226 1197 z "},"Ą":{"ha":785,"x_min":18,"x_max":844,"o":"m 18 0 l 363 1028 l 422 1028 l 767 0 l 715 0 l 383 1000 l 400 1000 l 68 0 l 18 0 m 171 367 l 185 413 l 600 413 l 614 367 l 171 367 m 743 -278 q 642 -248 678 -278 q 606 -161 606 -218 q 620 -92 606 -125 q 667 -29 635 -60 q 747 32 698 1 l 767 0 q 695 -53 722 -28 q 656 -105 668 -79 q 644 -158 644 -131 q 669 -221 644 -201 q 742 -242 694 -242 q 788 -235 764 -242 q 844 -214 813 -229 l 844 -251 q 793 -271 819 -265 q 743 -278 768 -278 z "},"Å":{"ha":785,"x_min":18,"x_max":767,"o":"m 18 0 l 363 1028 l 422 1028 l 767 0 l 715 0 l 383 1000 l 400 1000 l 68 0 l 18 0 m 171 367 l 185 413 l 600 413 l 614 367 l 171 367 m 393 1118 q 302 1155 338 1118 q 265 1246 265 1191 q 302 1338 265 1301 q 393 1374 338 1374 q 485 1338 449 1374 q 521 1246 521 1301 q 485 1155 521 1191 q 393 1118 449 1118 m 393 1154 q 458 1179 433 1154 q 483 1246 483 1203 q 458 1313 483 1289 q 393 1338 433 1338 q 328 1313 353 1338 q 303 1246 303 1289 q 328 1179 303 1203 q 393 1154 353 1154 z "},"Ǻ":{"ha":785,"x_min":18,"x_max":767,"o":"m 18 0 l 363 1028 l 422 1028 l 767 0 l 715 0 l 383 1000 l 400 1000 l 68 0 l 18 0 m 171 367 l 185 413 l 600 413 l 614 367 l 171 367 m 393 1119 q 302 1156 338 1119 q 265 1247 265 1192 q 302 1339 265 1303 q 393 1375 338 1375 q 485 1339 449 1375 q 521 1247 521 1303 q 485 1156 521 1192 q 393 1119 449 1119 m 393 1156 q 458 1180 433 1156 q 483 1247 483 1205 q 458 1315 483 1290 q 393 1339 433 1339 q 328 1315 353 1339 q 303 1247 303 1290 q 328 1180 303 1205 q 393 1156 353 1156 m 488 1325 l 454 1344 l 561 1450 l 617 1450 l 488 1325 z "},"Ã":{"ha":785,"x_min":18,"x_max":767,"o":"m 18 0 l 363 1028 l 422 1028 l 767 0 l 715 0 l 383 1000 l 400 1000 l 68 0 l 18 0 m 171 367 l 185 413 l 600 413 l 614 367 l 171 367 m 482 1178 q 431 1187 455 1178 q 384 1207 406 1196 q 344 1224 364 1217 q 304 1232 324 1232 q 253 1219 275 1232 q 211 1182 231 1207 l 211 1228 q 251 1259 227 1248 q 304 1271 274 1271 q 356 1262 331 1271 q 402 1242 380 1253 q 442 1225 422 1233 q 482 1217 462 1217 q 533 1229 511 1217 q 575 1267 556 1242 l 575 1221 q 536 1190 560 1201 q 482 1178 513 1178 z "},"Æ":{"ha":1074,"x_min":18,"x_max":1050,"o":"m 18 0 l 371 1028 l 554 1028 l 554 982 l 403 982 l 68 0 l 18 0 m 172 367 l 186 413 l 572 413 l 572 367 l 172 367 m 568 0 l 524 1028 l 1043 1028 l 1043 982 l 572 982 l 614 46 l 1050 46 l 1050 0 l 568 0 m 581 506 l 581 551 l 981 551 l 981 506 l 581 506 z "},"Ǽ":{"ha":1074,"x_min":18,"x_max":1050,"o":"m 18 0 l 371 1028 l 554 1028 l 554 982 l 403 982 l 68 0 l 18 0 m 172 367 l 186 413 l 572 413 l 572 367 l 172 367 m 568 0 l 524 1028 l 1043 1028 l 1043 982 l 572 982 l 614 46 l 1050 46 l 1050 0 l 568 0 m 581 506 l 581 551 l 981 551 l 981 506 l 581 506 m 529 1122 l 618 1311 l 668 1311 l 568 1122 l 529 1122 z "},"B":{"ha":757,"x_min":114,"x_max":704,"o":"m 311 -7 q 244 -6 277 -7 q 179 -3 211 -5 q 114 3 147 -1 l 114 1018 q 177 1028 144 1024 q 248 1035 210 1033 q 331 1038 286 1038 q 527 1009 451 1038 q 639 922 603 981 q 675 774 675 864 q 656 665 675 717 q 590 575 636 613 q 461 526 543 538 l 461 536 q 646 450 588 522 q 704 271 704 378 q 682 150 704 202 q 613 63 660 98 q 491 11 565 28 q 311 -7 416 -7 m 313 39 q 513 64 438 39 q 622 139 588 88 q 656 268 656 190 q 586 446 656 386 q 365 506 517 506 l 150 506 l 150 551 l 338 551 q 511 578 449 551 q 600 654 574 604 q 626 774 626 703 q 559 941 626 890 q 328 992 492 992 q 238 989 277 992 q 161 979 198 985 l 161 46 q 236 40 198 42 q 313 39 275 39 z "},"C":{"ha":646,"x_min":68,"x_max":633,"o":"m 440 -12 q 286 14 355 -12 q 169 101 217 40 q 94 262 120 161 q 68 513 68 363 q 113 825 68 709 q 244 990 158 940 q 450 1040 329 1040 q 542 1033 495 1040 q 633 1013 589 1026 l 633 965 q 536 989 581 983 q 444 994 492 994 q 267 951 340 994 q 156 803 194 908 q 118 515 118 699 q 157 222 118 327 q 268 75 196 117 q 439 33 340 33 q 535 42 489 33 q 633 69 581 51 l 633 22 q 544 -2 593 8 q 440 -12 496 -12 z "},"Ć":{"ha":646,"x_min":68,"x_max":633,"o":"m 440 -12 q 286 14 355 -12 q 169 101 217 40 q 94 262 120 161 q 68 513 68 363 q 113 825 68 709 q 244 990 158 940 q 450 1040 329 1040 q 542 1033 495 1040 q 633 1013 589 1026 l 633 965 q 536 989 581 983 q 444 994 492 994 q 267 951 340 994 q 156 803 194 908 q 118 515 118 699 q 157 222 118 327 q 268 75 196 117 q 439 33 340 33 q 535 42 489 33 q 633 69 581 51 l 633 22 q 544 -2 593 8 q 440 -12 496 -12 m 389 1122 l 478 1311 l 528 1311 l 428 1122 l 389 1122 z "},"Č":{"ha":646,"x_min":68,"x_max":633,"o":"m 440 -12 q 286 14 355 -12 q 169 101 217 40 q 94 262 120 161 q 68 513 68 363 q 113 825 68 709 q 244 990 158 940 q 450 1040 329 1040 q 542 1033 495 1040 q 633 1013 589 1026 l 633 965 q 536 989 581 983 q 444 994 492 994 q 267 951 340 994 q 156 803 194 908 q 118 515 118 699 q 157 222 118 327 q 268 75 196 117 q 439 33 340 33 q 535 42 489 33 q 633 69 581 51 l 633 22 q 544 -2 593 8 q 440 -12 496 -12 m 382 1122 l 246 1311 l 294 1311 l 414 1143 l 403 1143 l 522 1311 l 571 1311 l 435 1122 l 382 1122 z "},"Ç":{"ha":646,"x_min":68,"x_max":633,"o":"m 440 -12 q 286 14 355 -12 q 169 101 217 40 q 94 262 120 161 q 68 513 68 363 q 113 825 68 709 q 244 990 158 940 q 450 1040 329 1040 q 542 1033 495 1040 q 633 1013 589 1026 l 633 965 q 536 989 581 983 q 444 994 492 994 q 267 951 340 994 q 156 803 194 908 q 118 515 118 699 q 157 222 118 327 q 268 75 196 117 q 439 33 340 33 q 535 42 489 33 q 633 69 581 51 l 633 22 q 544 -2 593 8 q 440 -12 496 -12 m 432 -278 q 372 -271 403 -278 q 313 -251 341 -265 l 313 -212 q 377 -235 349 -229 q 432 -242 405 -242 q 492 -226 469 -242 q 515 -178 515 -211 q 492 -129 515 -144 q 431 -114 469 -114 l 404 -114 l 404 14 l 443 14 l 443 -99 l 432 -78 q 520 -103 485 -78 q 554 -178 554 -128 q 520 -252 554 -226 q 432 -278 485 -278 z "},"Ḉ":{"ha":646,"x_min":68,"x_max":633,"o":"m 440 -12 q 286 14 355 -12 q 169 101 217 40 q 94 262 120 161 q 68 513 68 363 q 113 825 68 709 q 244 990 158 940 q 450 1040 329 1040 q 542 1033 495 1040 q 633 1013 589 1026 l 633 965 q 536 989 581 983 q 444 994 492 994 q 267 951 340 994 q 156 803 194 908 q 118 515 118 699 q 157 222 118 327 q 268 75 196 117 q 439 33 340 33 q 535 42 489 33 q 633 69 581 51 l 633 22 q 544 -2 593 8 q 440 -12 496 -12 m 432 -278 q 372 -271 403 -278 q 313 -251 341 -265 l 313 -212 q 377 -235 349 -229 q 432 -242 405 -242 q 492 -226 469 -242 q 515 -178 515 -211 q 492 -129 515 -144 q 431 -114 469 -114 l 404 -114 l 404 14 l 443 14 l 443 -99 l 432 -78 q 520 -103 485 -78 q 554 -178 554 -128 q 520 -252 554 -226 q 432 -278 485 -278 m 389 1122 l 478 1311 l 528 1311 l 428 1122 l 389 1122 z "},"Ĉ":{"ha":646,"x_min":68,"x_max":633,"o":"m 440 -12 q 286 14 355 -12 q 169 101 217 40 q 94 262 120 161 q 68 513 68 363 q 113 825 68 709 q 244 990 158 940 q 450 1040 329 1040 q 542 1033 495 1040 q 633 1013 589 1026 l 633 965 q 536 989 581 983 q 444 994 492 994 q 267 951 340 994 q 156 803 194 908 q 118 515 118 699 q 157 222 118 327 q 268 75 196 117 q 439 33 340 33 q 535 42 489 33 q 633 69 581 51 l 633 22 q 544 -2 593 8 q 440 -12 496 -12 m 246 1122 l 382 1311 l 435 1311 l 571 1122 l 522 1122 l 403 1290 l 414 1290 l 294 1122 l 246 1122 z "},"Ċ":{"ha":646,"x_min":68,"x_max":633,"o":"m 440 -12 q 286 14 355 -12 q 169 101 217 40 q 94 262 120 161 q 68 513 68 363 q 113 825 68 709 q 244 990 158 940 q 450 1040 329 1040 q 542 1033 495 1040 q 633 1013 589 1026 l 633 965 q 536 989 581 983 q 444 994 492 994 q 267 951 340 994 q 156 803 194 908 q 118 515 118 699 q 157 222 118 327 q 268 75 196 117 q 439 33 340 33 q 535 42 489 33 q 633 69 581 51 l 633 22 q 544 -2 593 8 q 440 -12 496 -12 m 408 1174 q 377 1185 390 1174 q 365 1217 365 1197 q 377 1249 365 1237 q 408 1261 390 1261 q 439 1249 427 1261 q 451 1217 451 1237 q 439 1185 451 1197 q 408 1174 427 1174 z "},"D":{"ha":803,"x_min":114,"x_max":735,"o":"m 288 -7 q 235 -6 261 -7 q 180 -3 209 -5 q 114 3 150 -1 l 114 1019 q 176 1028 144 1024 q 241 1035 208 1033 q 307 1038 274 1038 q 628 911 521 1038 q 735 514 735 784 q 684 214 735 328 q 533 46 633 99 q 288 -7 433 -7 m 289 39 q 509 86 422 39 q 641 238 597 133 q 685 514 685 342 q 644 788 685 682 q 520 942 604 893 q 304 992 435 992 q 234 989 271 992 q 161 981 198 986 l 161 46 q 226 40 196 42 q 289 39 257 39 z "},"Ǳ":{"ha":1435,"x_min":114,"x_max":1396,"o":"m 288 -7 q 235 -6 261 -7 q 180 -3 209 -5 q 114 3 150 -1 l 114 1019 q 176 1028 144 1024 q 241 1035 208 1033 q 307 1038 274 1038 q 628 911 521 1038 q 735 514 735 784 q 684 214 735 328 q 533 46 633 99 q 288 -7 433 -7 m 289 39 q 509 86 422 39 q 641 238 597 133 q 685 514 685 342 q 644 788 685 682 q 520 942 604 893 q 304 992 435 992 q 234 989 271 992 q 161 981 198 986 l 161 46 q 226 40 196 42 q 289 39 257 39 m 814 0 l 814 28 l 1338 1001 l 1349 983 l 821 983 l 821 1028 l 1389 1028 l 1389 1000 l 865 26 l 854 44 l 1396 44 l 1396 0 l 814 0 z "},"Ǆ":{"ha":1435,"x_min":114,"x_max":1396,"o":"m 288 -7 q 235 -6 261 -7 q 180 -3 209 -5 q 114 3 150 -1 l 114 1019 q 176 1028 144 1024 q 241 1035 208 1033 q 307 1038 274 1038 q 628 911 521 1038 q 735 514 735 784 q 684 214 735 328 q 533 46 633 99 q 288 -7 433 -7 m 289 39 q 509 86 422 39 q 641 238 597 133 q 685 514 685 342 q 644 788 685 682 q 520 942 604 893 q 304 992 435 992 q 234 989 271 992 q 161 981 198 986 l 161 46 q 226 40 196 42 q 289 39 257 39 m 814 0 l 814 28 l 1338 1001 l 1349 983 l 821 983 l 821 1028 l 1389 1028 l 1389 1000 l 865 26 l 854 44 l 1396 44 l 1396 0 l 814 0 m 1079 1122 l 943 1311 l 992 1311 l 1111 1143 l 1100 1143 l 1219 1311 l 1268 1311 l 1132 1122 l 1079 1122 z "},"Ð":{"ha":803,"x_min":-3,"x_max":735,"o":"m -3 508 l -3 550 l 369 550 l 369 508 l -3 508 m 288 -7 q 235 -6 261 -7 q 180 -3 209 -5 q 114 3 150 -1 l 114 1019 q 176 1028 144 1024 q 241 1035 208 1033 q 307 1038 274 1038 q 628 911 521 1038 q 735 514 735 784 q 684 214 735 328 q 533 46 633 99 q 288 -7 433 -7 m 289 39 q 509 86 422 39 q 641 238 597 133 q 685 514 685 342 q 644 788 685 682 q 520 942 604 893 q 304 992 435 992 q 234 989 271 992 q 161 981 198 986 l 161 46 q 226 40 196 42 q 289 39 257 39 z "},"Ď":{"ha":803,"x_min":114,"x_max":735,"o":"m 288 -7 q 235 -6 261 -7 q 180 -3 209 -5 q 114 3 150 -1 l 114 1019 q 176 1028 144 1024 q 241 1035 208 1033 q 307 1038 274 1038 q 628 911 521 1038 q 735 514 735 784 q 684 214 735 328 q 533 46 633 99 q 288 -7 433 -7 m 289 39 q 509 86 422 39 q 641 238 597 133 q 685 514 685 342 q 644 788 685 682 q 520 942 604 893 q 304 992 435 992 q 234 989 271 992 q 161 981 198 986 l 161 46 q 226 40 196 42 q 289 39 257 39 m 332 1122 l 196 1311 l 244 1311 l 364 1143 l 353 1143 l 472 1311 l 521 1311 l 385 1122 l 332 1122 z "},"Đ":{"ha":803,"x_min":-3,"x_max":735,"o":"m -3 508 l -3 550 l 369 550 l 369 508 l -3 508 m 288 -7 q 235 -6 261 -7 q 180 -3 209 -5 q 114 3 150 -1 l 114 1019 q 176 1028 144 1024 q 241 1035 208 1033 q 307 1038 274 1038 q 628 911 521 1038 q 735 514 735 784 q 684 214 735 328 q 533 46 633 99 q 288 -7 433 -7 m 289 39 q 509 86 422 39 q 641 238 597 133 q 685 514 685 342 q 644 788 685 682 q 520 942 604 893 q 304 992 435 992 q 234 989 271 992 q 161 981 198 986 l 161 46 q 226 40 196 42 q 289 39 257 39 z "},"Ḍ":{"ha":803,"x_min":114,"x_max":735,"o":"m 288 -7 q 235 -6 261 -7 q 180 -3 209 -5 q 114 3 150 -1 l 114 1019 q 176 1028 144 1024 q 241 1035 208 1033 q 307 1038 274 1038 q 628 911 521 1038 q 735 514 735 784 q 684 214 735 328 q 533 46 633 99 q 288 -7 433 -7 m 289 39 q 509 86 422 39 q 641 238 597 133 q 685 514 685 342 q 644 788 685 682 q 520 942 604 893 q 304 992 435 992 q 234 989 271 992 q 161 981 198 986 l 161 46 q 226 40 196 42 q 289 39 257 39 m 358 -215 q 327 -203 340 -215 q 315 -172 315 -192 q 327 -140 315 -152 q 358 -128 340 -128 q 389 -140 377 -128 q 401 -172 401 -152 q 389 -203 401 -192 q 358 -215 377 -215 z "},"Ḏ":{"ha":803,"x_min":114,"x_max":735,"o":"m 288 -7 q 235 -6 261 -7 q 180 -3 209 -5 q 114 3 150 -1 l 114 1019 q 176 1028 144 1024 q 241 1035 208 1033 q 307 1038 274 1038 q 628 911 521 1038 q 735 514 735 784 q 684 214 735 328 q 533 46 633 99 q 288 -7 433 -7 m 289 39 q 509 86 422 39 q 641 238 597 133 q 685 514 685 342 q 644 788 685 682 q 520 942 604 893 q 304 992 435 992 q 234 989 271 992 q 161 981 198 986 l 161 46 q 226 40 196 42 q 289 39 257 39 m 192 -192 l 192 -151 l 525 -151 l 525 -192 l 192 -192 z "},"E":{"ha":657,"x_min":114,"x_max":633,"o":"m 114 0 l 114 1028 l 626 1028 l 626 982 l 161 982 l 161 46 l 633 46 l 633 0 l 114 0 m 156 506 l 156 551 l 564 551 l 564 506 l 156 506 z "},"É":{"ha":657,"x_min":114,"x_max":633,"o":"m 114 0 l 114 1028 l 626 1028 l 626 982 l 161 982 l 161 46 l 633 46 l 633 0 l 114 0 m 156 506 l 156 551 l 564 551 l 564 506 l 156 506 m 367 1122 l 456 1311 l 506 1311 l 406 1122 l 367 1122 z "},"Ĕ":{"ha":657,"x_min":114,"x_max":633,"o":"m 114 0 l 114 1028 l 626 1028 l 626 982 l 161 982 l 161 46 l 633 46 l 633 0 l 114 0 m 156 506 l 156 551 l 564 551 l 564 506 l 156 506 m 388 1131 q 300 1149 337 1131 q 242 1202 263 1167 q 218 1292 222 1238 l 257 1292 q 295 1199 265 1227 q 388 1171 325 1171 q 480 1199 450 1171 q 515 1292 510 1227 l 554 1292 q 531 1202 551 1238 q 474 1148 510 1166 q 388 1131 438 1131 z "},"Ě":{"ha":657,"x_min":114,"x_max":633,"o":"m 114 0 l 114 1028 l 626 1028 l 626 982 l 161 982 l 161 46 l 633 46 l 633 0 l 114 0 m 156 506 l 156 551 l 564 551 l 564 506 l 156 506 m 360 1122 l 224 1311 l 272 1311 l 392 1143 l 381 1143 l 500 1311 l 549 1311 l 413 1122 l 360 1122 z "},"Ḝ":{"ha":657,"x_min":114,"x_max":633,"o":"m 114 0 l 114 1028 l 626 1028 l 626 982 l 161 982 l 161 46 l 633 46 l 633 0 l 114 0 m 156 506 l 156 551 l 564 551 l 564 506 l 156 506 m 403 -278 q 343 -271 374 -278 q 283 -251 312 -265 l 283 -212 q 348 -235 320 -229 q 403 -242 376 -242 q 463 -226 440 -242 q 486 -178 486 -211 q 463 -129 486 -144 q 401 -114 440 -114 l 375 -114 l 375 14 l 414 14 l 414 -99 l 403 -78 q 491 -103 456 -78 q 525 -178 525 -128 q 491 -252 525 -226 q 403 -278 456 -278 m 388 1131 q 300 1149 337 1131 q 242 1202 263 1167 q 218 1292 222 1238 l 257 1292 q 295 1199 265 1227 q 388 1171 325 1171 q 480 1199 450 1171 q 515 1292 510 1227 l 554 1292 q 531 1202 551 1238 q 474 1148 510 1166 q 388 1131 438 1131 z "},"Ê":{"ha":657,"x_min":114,"x_max":633,"o":"m 114 0 l 114 1028 l 626 1028 l 626 982 l 161 982 l 161 46 l 633 46 l 633 0 l 114 0 m 156 506 l 156 551 l 564 551 l 564 506 l 156 506 m 224 1122 l 360 1311 l 413 1311 l 549 1122 l 500 1122 l 381 1290 l 392 1290 l 272 1122 l 224 1122 z "},"Ế":{"ha":657,"x_min":114,"x_max":649,"o":"m 114 0 l 114 1028 l 626 1028 l 626 982 l 161 982 l 161 46 l 633 46 l 633 0 l 114 0 m 156 506 l 156 551 l 564 551 l 564 506 l 156 506 m 224 1122 l 360 1311 l 413 1311 l 549 1122 l 500 1122 l 381 1290 l 392 1290 l 272 1122 l 224 1122 m 510 1244 l 599 1433 l 649 1433 l 549 1244 l 510 1244 z "},"Ệ":{"ha":657,"x_min":114,"x_max":633,"o":"m 114 0 l 114 1028 l 626 1028 l 626 982 l 161 982 l 161 46 l 633 46 l 633 0 l 114 0 m 156 506 l 156 551 l 564 551 l 564 506 l 156 506 m 386 -215 q 355 -203 367 -215 q 343 -172 343 -192 q 355 -140 343 -152 q 386 -128 367 -128 q 417 -140 405 -128 q 429 -172 429 -152 q 417 -203 429 -192 q 386 -215 405 -215 m 224 1122 l 360 1311 l 413 1311 l 549 1122 l 500 1122 l 381 1290 l 392 1290 l 272 1122 l 224 1122 z "},"Ề":{"ha":657,"x_min":114,"x_max":633,"o":"m 114 0 l 114 1028 l 626 1028 l 626 982 l 161 982 l 161 46 l 633 46 l 633 0 l 114 0 m 156 506 l 156 551 l 564 551 l 564 506 l 156 506 m 233 1122 l 369 1311 l 422 1311 l 558 1122 l 509 1122 l 390 1290 l 401 1290 l 281 1122 l 233 1122 m 533 1244 l 433 1433 l 483 1433 l 572 1244 l 533 1244 z "},"Ể":{"ha":657,"x_min":114,"x_max":656,"o":"m 114 0 l 114 1028 l 626 1028 l 626 982 l 161 982 l 161 46 l 633 46 l 633 0 l 114 0 m 156 506 l 156 551 l 564 551 l 564 506 l 156 506 m 224 1122 l 360 1311 l 413 1311 l 549 1122 l 500 1122 l 381 1290 l 392 1290 l 272 1122 l 224 1122 m 508 1244 q 526 1289 510 1274 q 563 1312 542 1303 q 599 1331 583 1321 q 614 1360 614 1340 q 599 1386 614 1376 q 536 1396 583 1396 q 475 1390 507 1396 q 413 1369 443 1383 l 413 1408 q 470 1427 437 1420 q 536 1433 503 1433 q 626 1413 597 1433 q 656 1361 656 1392 q 640 1319 656 1333 q 605 1295 625 1304 q 568 1275 585 1286 q 550 1244 552 1265 l 508 1244 z "},"Ễ":{"ha":657,"x_min":114,"x_max":633,"o":"m 114 0 l 114 1028 l 626 1028 l 626 982 l 161 982 l 161 46 l 633 46 l 633 0 l 114 0 m 156 506 l 156 551 l 564 551 l 564 506 l 156 506 m 224 1122 l 360 1311 l 413 1311 l 549 1122 l 500 1122 l 381 1290 l 392 1290 l 272 1122 l 224 1122 m 463 1343 q 407 1357 433 1343 q 357 1384 381 1370 q 310 1397 333 1397 q 263 1385 284 1397 q 224 1347 242 1372 l 224 1393 q 260 1425 238 1413 q 310 1436 283 1436 q 365 1423 339 1436 q 416 1395 392 1409 q 463 1382 440 1382 q 509 1394 489 1382 q 549 1432 530 1407 l 549 1386 q 512 1355 534 1367 q 463 1343 490 1343 z "},"Ȅ":{"ha":657,"x_min":114,"x_max":633,"o":"m 114 0 l 114 1028 l 626 1028 l 626 982 l 161 982 l 161 46 l 633 46 l 633 0 l 114 0 m 156 506 l 156 551 l 564 551 l 564 506 l 156 506 m 456 1122 l 389 1311 l 433 1311 l 493 1122 l 456 1122 m 279 1122 l 213 1311 l 257 1311 l 317 1122 l 279 1122 z "},"Ë":{"ha":657,"x_min":114,"x_max":633,"o":"m 114 0 l 114 1028 l 626 1028 l 626 982 l 161 982 l 161 46 l 633 46 l 633 0 l 114 0 m 156 506 l 156 551 l 564 551 l 564 506 l 156 506 m 511 1174 q 480 1185 492 1174 q 468 1217 468 1197 q 480 1249 468 1237 q 511 1261 492 1261 q 542 1249 530 1261 q 554 1217 554 1237 q 542 1185 554 1197 q 511 1174 530 1174 m 261 1174 q 230 1185 242 1174 q 218 1217 218 1197 q 230 1249 218 1237 q 261 1261 242 1261 q 292 1249 280 1261 q 304 1217 304 1237 q 292 1185 304 1197 q 261 1174 280 1174 z "},"Ė":{"ha":657,"x_min":114,"x_max":633,"o":"m 114 0 l 114 1028 l 626 1028 l 626 982 l 161 982 l 161 46 l 633 46 l 633 0 l 114 0 m 156 506 l 156 551 l 564 551 l 564 506 l 156 506 m 386 1174 q 355 1185 367 1174 q 343 1217 343 1197 q 355 1249 343 1237 q 386 1261 367 1261 q 417 1249 405 1261 q 429 1217 429 1237 q 417 1185 429 1197 q 386 1174 405 1174 z "},"Ẹ":{"ha":657,"x_min":114,"x_max":633,"o":"m 114 0 l 114 1028 l 626 1028 l 626 982 l 161 982 l 161 46 l 633 46 l 633 0 l 114 0 m 156 506 l 156 551 l 564 551 l 564 506 l 156 506 m 386 -215 q 355 -203 367 -215 q 343 -172 343 -192 q 355 -140 343 -152 q 386 -128 367 -128 q 417 -140 405 -128 q 429 -172 429 -152 q 417 -203 429 -192 q 386 -215 405 -215 z "},"È":{"ha":657,"x_min":114,"x_max":633,"o":"m 114 0 l 114 1028 l 626 1028 l 626 982 l 161 982 l 161 46 l 633 46 l 633 0 l 114 0 m 156 506 l 156 551 l 564 551 l 564 506 l 156 506 m 367 1122 l 267 1311 l 317 1311 l 406 1122 l 367 1122 z "},"Ẻ":{"ha":657,"x_min":114,"x_max":633,"o":"m 114 0 l 114 1028 l 626 1028 l 626 982 l 161 982 l 161 46 l 633 46 l 633 0 l 114 0 m 156 506 l 156 551 l 564 551 l 564 506 l 156 506 m 365 1122 q 386 1169 367 1154 q 427 1193 406 1183 q 458 1211 444 1201 q 471 1238 471 1220 q 456 1264 471 1253 q 393 1274 440 1274 q 332 1267 364 1274 q 269 1247 300 1261 l 269 1286 q 327 1305 294 1298 q 393 1311 360 1311 q 483 1290 453 1311 q 513 1239 513 1269 q 494 1194 513 1208 q 455 1169 476 1180 q 423 1150 438 1160 q 407 1122 409 1140 l 365 1122 z "},"Ȇ":{"ha":657,"x_min":114,"x_max":633,"o":"m 114 0 l 114 1028 l 626 1028 l 626 982 l 161 982 l 161 46 l 633 46 l 633 0 l 114 0 m 156 506 l 156 551 l 564 551 l 564 506 l 156 506 m 218 1142 q 242 1232 222 1196 q 298 1285 262 1267 q 385 1303 334 1303 q 472 1285 435 1303 q 530 1231 509 1267 q 554 1142 551 1195 l 515 1142 q 478 1234 508 1206 q 385 1263 447 1263 q 292 1234 322 1263 q 257 1142 263 1206 l 218 1142 z "},"Ē":{"ha":657,"x_min":114,"x_max":633,"o":"m 114 0 l 114 1028 l 626 1028 l 626 982 l 161 982 l 161 46 l 633 46 l 633 0 l 114 0 m 156 506 l 156 551 l 564 551 l 564 506 l 156 506 m 219 1197 l 219 1238 l 553 1238 l 553 1197 l 219 1197 z "},"Ḗ":{"ha":657,"x_min":114,"x_max":633,"o":"m 114 0 l 114 1028 l 626 1028 l 626 982 l 161 982 l 161 46 l 633 46 l 633 0 l 114 0 m 156 506 l 156 551 l 564 551 l 564 506 l 156 506 m 365 1308 l 453 1469 l 503 1469 l 403 1308 l 365 1308 m 219 1197 l 219 1238 l 553 1238 l 553 1197 l 219 1197 z "},"Ḕ":{"ha":657,"x_min":114,"x_max":633,"o":"m 114 0 l 114 1028 l 626 1028 l 626 982 l 161 982 l 161 46 l 633 46 l 633 0 l 114 0 m 156 506 l 156 551 l 564 551 l 564 506 l 156 506 m 368 1308 l 268 1469 l 318 1469 l 407 1308 l 368 1308 m 219 1197 l 219 1238 l 553 1238 l 553 1197 l 219 1197 z "},"Ę":{"ha":657,"x_min":114,"x_max":711,"o":"m 114 0 l 114 1028 l 626 1028 l 626 982 l 161 982 l 161 46 l 633 46 l 633 0 l 114 0 m 156 506 l 156 551 l 564 551 l 564 506 l 156 506 m 610 -278 q 508 -248 544 -278 q 472 -161 472 -218 q 487 -92 472 -125 q 533 -29 502 -60 q 614 32 565 1 l 633 0 q 561 -53 588 -28 q 523 -105 535 -79 q 511 -158 511 -131 q 536 -221 511 -201 q 608 -242 560 -242 q 655 -235 631 -242 q 711 -214 679 -229 l 711 -251 q 660 -271 685 -265 q 610 -278 635 -278 z "},"Ẽ":{"ha":657,"x_min":114,"x_max":633,"o":"m 114 0 l 114 1028 l 626 1028 l 626 982 l 161 982 l 161 46 l 633 46 l 633 0 l 114 0 m 156 506 l 156 551 l 564 551 l 564 506 l 156 506 m 475 1178 q 424 1187 448 1178 q 377 1207 399 1196 q 337 1224 357 1217 q 297 1232 317 1232 q 246 1219 268 1232 q 204 1182 224 1207 l 204 1228 q 244 1259 220 1248 q 297 1271 267 1271 q 349 1262 324 1271 q 395 1242 373 1253 q 435 1225 415 1233 q 475 1217 455 1217 q 526 1229 504 1217 q 568 1267 549 1242 l 568 1221 q 529 1190 553 1201 q 475 1178 506 1178 z "},"F":{"ha":632,"x_min":114,"x_max":619,"o":"m 114 0 l 114 1028 l 619 1028 l 619 982 l 161 982 l 161 0 l 114 0 m 156 506 l 156 551 l 557 551 l 557 506 l 156 506 z "},"G":{"ha":768,"x_min":68,"x_max":679,"o":"m 508 -7 q 267 42 365 -7 q 118 205 169 92 q 68 513 68 319 q 117 826 68 710 q 258 991 167 941 q 475 1040 349 1040 q 572 1033 522 1040 q 667 1013 622 1026 l 667 965 q 567 988 615 982 q 471 994 519 994 q 282 951 360 994 q 160 803 203 908 q 118 513 118 698 q 161 228 118 332 q 291 82 204 125 q 508 39 378 39 q 580 42 545 39 q 647 53 614 46 l 632 28 l 632 500 l 679 500 l 679 10 q 589 -3 628 1 q 508 -7 549 -7 z "},"Ǵ":{"ha":768,"x_min":68,"x_max":679,"o":"m 508 -7 q 267 42 365 -7 q 118 205 169 92 q 68 513 68 319 q 117 826 68 710 q 258 991 167 941 q 475 1040 349 1040 q 572 1033 522 1040 q 667 1013 622 1026 l 667 965 q 567 988 615 982 q 471 994 519 994 q 282 951 360 994 q 160 803 203 908 q 118 513 118 698 q 161 228 118 332 q 291 82 204 125 q 508 39 378 39 q 580 42 545 39 q 647 53 614 46 l 632 28 l 632 500 l 679 500 l 679 10 q 589 -3 628 1 q 508 -7 549 -7 m 410 1122 l 499 1311 l 549 1311 l 449 1122 l 410 1122 z "},"Ğ":{"ha":768,"x_min":68,"x_max":679,"o":"m 508 -7 q 267 42 365 -7 q 118 205 169 92 q 68 513 68 319 q 117 826 68 710 q 258 991 167 941 q 475 1040 349 1040 q 572 1033 522 1040 q 667 1013 622 1026 l 667 965 q 567 988 615 982 q 471 994 519 994 q 282 951 360 994 q 160 803 203 908 q 118 513 118 698 q 161 228 118 332 q 291 82 204 125 q 508 39 378 39 q 580 42 545 39 q 647 53 614 46 l 632 28 l 632 500 l 679 500 l 679 10 q 589 -3 628 1 q 508 -7 549 -7 m 431 1131 q 343 1149 380 1131 q 285 1202 306 1167 q 261 1292 265 1238 l 300 1292 q 338 1199 308 1227 q 431 1171 368 1171 q 523 1199 493 1171 q 558 1292 553 1227 l 597 1292 q 574 1202 594 1238 q 517 1148 553 1166 q 431 1131 481 1131 z "},"Ǧ":{"ha":768,"x_min":68,"x_max":679,"o":"m 508 -7 q 267 42 365 -7 q 118 205 169 92 q 68 513 68 319 q 117 826 68 710 q 258 991 167 941 q 475 1040 349 1040 q 572 1033 522 1040 q 667 1013 622 1026 l 667 965 q 567 988 615 982 q 471 994 519 994 q 282 951 360 994 q 160 803 203 908 q 118 513 118 698 q 161 228 118 332 q 291 82 204 125 q 508 39 378 39 q 580 42 545 39 q 647 53 614 46 l 632 28 l 632 500 l 679 500 l 679 10 q 589 -3 628 1 q 508 -7 549 -7 m 403 1122 l 267 1311 l 315 1311 l 435 1143 l 424 1143 l 543 1311 l 592 1311 l 456 1122 l 403 1122 z "},"Ĝ":{"ha":768,"x_min":68,"x_max":679,"o":"m 508 -7 q 267 42 365 -7 q 118 205 169 92 q 68 513 68 319 q 117 826 68 710 q 258 991 167 941 q 475 1040 349 1040 q 572 1033 522 1040 q 667 1013 622 1026 l 667 965 q 567 988 615 982 q 471 994 519 994 q 282 951 360 994 q 160 803 203 908 q 118 513 118 698 q 161 228 118 332 q 291 82 204 125 q 508 39 378 39 q 580 42 545 39 q 647 53 614 46 l 632 28 l 632 500 l 679 500 l 679 10 q 589 -3 628 1 q 508 -7 549 -7 m 267 1122 l 403 1311 l 456 1311 l 592 1122 l 543 1122 l 424 1290 l 435 1290 l 315 1122 l 267 1122 z "},"Ģ":{"ha":768,"x_min":68,"x_max":679,"o":"m 508 -7 q 267 42 365 -7 q 118 205 169 92 q 68 513 68 319 q 117 826 68 710 q 258 991 167 941 q 475 1040 349 1040 q 572 1033 522 1040 q 667 1013 622 1026 l 667 965 q 567 988 615 982 q 471 994 519 994 q 282 951 360 994 q 160 803 203 908 q 118 513 118 698 q 161 228 118 332 q 291 82 204 125 q 508 39 378 39 q 580 42 545 39 q 647 53 614 46 l 632 28 l 632 500 l 679 500 l 679 10 q 589 -3 628 1 q 508 -7 549 -7 m 411 -311 q 430 -246 426 -274 q 435 -193 435 -218 l 438 -215 l 429 -215 q 398 -203 410 -215 q 386 -171 386 -190 q 398 -140 386 -152 q 426 -128 409 -128 q 460 -142 447 -128 q 472 -187 472 -157 q 465 -245 472 -212 q 442 -311 458 -278 l 411 -311 z "},"Ġ":{"ha":768,"x_min":68,"x_max":679,"o":"m 508 -7 q 267 42 365 -7 q 118 205 169 92 q 68 513 68 319 q 117 826 68 710 q 258 991 167 941 q 475 1040 349 1040 q 572 1033 522 1040 q 667 1013 622 1026 l 667 965 q 567 988 615 982 q 471 994 519 994 q 282 951 360 994 q 160 803 203 908 q 118 513 118 698 q 161 228 118 332 q 291 82 204 125 q 508 39 378 39 q 580 42 545 39 q 647 53 614 46 l 632 28 l 632 500 l 679 500 l 679 10 q 589 -3 628 1 q 508 -7 549 -7 m 429 1174 q 398 1185 410 1174 q 386 1217 386 1197 q 398 1249 386 1237 q 429 1261 410 1261 q 460 1249 448 1261 q 472 1217 472 1237 q 460 1185 472 1197 q 429 1174 448 1174 z "},"Ḡ":{"ha":768,"x_min":68,"x_max":679,"o":"m 508 -7 q 267 42 365 -7 q 118 205 169 92 q 68 513 68 319 q 117 826 68 710 q 258 991 167 941 q 475 1040 349 1040 q 572 1033 522 1040 q 667 1013 622 1026 l 667 965 q 567 988 615 982 q 471 994 519 994 q 282 951 360 994 q 160 803 203 908 q 118 513 118 698 q 161 228 118 332 q 291 82 204 125 q 508 39 378 39 q 580 42 545 39 q 647 53 614 46 l 632 28 l 632 500 l 679 500 l 679 10 q 589 -3 628 1 q 508 -7 549 -7 m 263 1197 l 263 1238 l 596 1238 l 596 1197 l 263 1197 z "},"H":{"ha":847,"x_min":114,"x_max":733,"o":"m 114 0 l 114 1028 l 161 1028 l 161 551 l 686 551 l 686 1028 l 733 1028 l 733 0 l 686 0 l 686 506 l 161 506 l 161 0 l 114 0 z "},"Ħ":{"ha":847,"x_min":-3,"x_max":850,"o":"m -3 771 l -3 813 l 850 813 l 850 771 l -3 771 m 114 0 l 114 1028 l 161 1028 l 161 551 l 686 551 l 686 1028 l 733 1028 l 733 0 l 686 0 l 686 506 l 161 506 l 161 0 l 114 0 z "},"Ḫ":{"ha":847,"x_min":114,"x_max":733,"o":"m 114 0 l 114 1028 l 161 1028 l 161 551 l 686 551 l 686 1028 l 733 1028 l 733 0 l 686 0 l 686 506 l 161 506 l 161 0 l 114 0 m 425 -278 q 335 -259 373 -278 q 277 -202 297 -240 q 256 -111 256 -165 l 294 -111 q 330 -207 298 -176 q 425 -237 363 -237 q 520 -207 488 -237 q 553 -111 552 -176 l 592 -111 q 571 -203 591 -166 q 514 -259 551 -240 q 425 -278 477 -278 z "},"Ĥ":{"ha":847,"x_min":114,"x_max":733,"o":"m 114 0 l 114 1028 l 161 1028 l 161 551 l 686 551 l 686 1028 l 733 1028 l 733 0 l 686 0 l 686 506 l 161 506 l 161 0 l 114 0 m 261 1122 l 397 1311 l 450 1311 l 586 1122 l 538 1122 l 418 1290 l 429 1290 l 310 1122 l 261 1122 z "},"Ḥ":{"ha":847,"x_min":114,"x_max":733,"o":"m 114 0 l 114 1028 l 161 1028 l 161 551 l 686 551 l 686 1028 l 733 1028 l 733 0 l 686 0 l 686 506 l 161 506 l 161 0 l 114 0 m 424 -215 q 393 -203 405 -215 q 381 -172 381 -192 q 393 -140 381 -152 q 424 -128 405 -128 q 455 -140 442 -128 q 467 -172 467 -152 q 455 -203 467 -192 q 424 -215 442 -215 z "},"I":{"ha":275,"x_min":114,"x_max":161,"o":"m 114 0 l 114 1028 l 161 1028 l 161 0 l 114 0 z "},"Í":{"ha":275,"x_min":114,"x_max":257,"o":"m 114 0 l 114 1028 l 161 1028 l 161 0 l 114 0 m 118 1122 l 207 1311 l 257 1311 l 157 1122 l 118 1122 z "},"Ĭ":{"ha":275,"x_min":-31,"x_max":306,"o":"m 114 0 l 114 1028 l 161 1028 l 161 0 l 114 0 m 139 1131 q 51 1149 88 1131 q -6 1202 15 1167 q -31 1292 -27 1238 l 8 1292 q 46 1199 16 1227 q 139 1171 76 1171 q 232 1199 201 1171 q 267 1292 262 1227 l 306 1292 q 282 1202 302 1238 q 226 1148 262 1166 q 139 1131 190 1131 z "},"Î":{"ha":275,"x_min":-25,"x_max":300,"o":"m 114 0 l 114 1028 l 161 1028 l 161 0 l 114 0 m -25 1122 l 111 1311 l 164 1311 l 300 1122 l 251 1122 l 132 1290 l 143 1290 l 24 1122 l -25 1122 z "},"Ȉ":{"ha":275,"x_min":-36,"x_max":244,"o":"m 114 0 l 114 1028 l 161 1028 l 161 0 l 114 0 m 207 1122 l 140 1311 l 185 1311 l 244 1122 l 207 1122 m 31 1122 l -36 1311 l 8 1311 l 68 1122 l 31 1122 z "},"Ï":{"ha":275,"x_min":-31,"x_max":306,"o":"m 114 0 l 114 1028 l 161 1028 l 161 0 l 114 0 m 263 1174 q 232 1185 244 1174 q 219 1217 219 1197 q 232 1249 219 1237 q 263 1261 244 1261 q 293 1249 281 1261 q 306 1217 306 1237 q 293 1185 306 1197 q 263 1174 281 1174 m 13 1174 q -18 1185 -6 1174 q -31 1217 -31 1197 q -18 1249 -31 1237 q 13 1261 -6 1261 q 43 1249 31 1261 q 56 1217 56 1237 q 43 1185 56 1197 q 13 1174 31 1174 z "},"Ḯ":{"ha":275,"x_min":-31,"x_max":306,"o":"m 114 0 l 114 1028 l 161 1028 l 161 0 l 114 0 m 116 1308 l 205 1469 l 255 1469 l 155 1308 l 116 1308 m 263 1174 q 232 1185 244 1174 q 219 1217 219 1197 q 232 1249 219 1237 q 263 1261 244 1261 q 293 1249 281 1261 q 306 1217 306 1237 q 293 1185 306 1197 q 263 1174 281 1174 m 13 1174 q -18 1185 -6 1174 q -31 1217 -31 1197 q -18 1249 -31 1237 q 13 1261 -6 1261 q 43 1249 31 1261 q 56 1217 56 1237 q 43 1185 56 1197 q 13 1174 31 1174 z "},"İ":{"ha":275,"x_min":94,"x_max":181,"o":"m 114 0 l 114 1028 l 161 1028 l 161 0 l 114 0 m 138 1174 q 107 1185 119 1174 q 94 1217 94 1197 q 107 1249 94 1237 q 138 1261 119 1261 q 168 1249 156 1261 q 181 1217 181 1237 q 168 1185 181 1197 q 138 1174 156 1174 z "},"Ị":{"ha":275,"x_min":94,"x_max":181,"o":"m 114 0 l 114 1028 l 161 1028 l 161 0 l 114 0 m 138 -215 q 107 -203 119 -215 q 94 -172 94 -192 q 107 -140 94 -152 q 138 -128 119 -128 q 168 -140 156 -128 q 181 -172 181 -152 q 168 -203 181 -192 q 138 -215 156 -215 z "},"Ì":{"ha":275,"x_min":18,"x_max":161,"o":"m 114 0 l 114 1028 l 161 1028 l 161 0 l 114 0 m 118 1122 l 18 1311 l 68 1311 l 157 1122 l 118 1122 z "},"Ỉ":{"ha":275,"x_min":21,"x_max":264,"o":"m 114 0 l 114 1028 l 161 1028 l 161 0 l 114 0 m 117 1122 q 138 1169 118 1154 q 178 1193 158 1183 q 209 1211 196 1201 q 222 1238 222 1220 q 207 1264 222 1253 q 144 1274 192 1274 q 83 1267 115 1274 q 21 1247 51 1261 l 21 1286 q 78 1305 45 1298 q 144 1311 111 1311 q 234 1290 205 1311 q 264 1239 264 1269 q 245 1194 264 1208 q 206 1169 227 1180 q 175 1150 189 1160 q 158 1122 160 1140 l 117 1122 z "},"Ȋ":{"ha":275,"x_min":-31,"x_max":306,"o":"m 114 0 l 114 1028 l 161 1028 l 161 0 l 114 0 m -31 1142 q -7 1232 -27 1196 q 49 1285 13 1267 q 136 1303 85 1303 q 224 1285 187 1303 q 281 1231 260 1267 q 306 1142 302 1195 l 267 1142 q 229 1234 260 1206 q 136 1263 199 1263 q 44 1234 74 1263 q 8 1142 14 1206 l -31 1142 z "},"Ī":{"ha":275,"x_min":-29,"x_max":304,"o":"m 114 0 l 114 1028 l 161 1028 l 161 0 l 114 0 m -29 1197 l -29 1238 l 304 1238 l 304 1197 l -29 1197 z "},"Į":{"ha":275,"x_min":0,"x_max":239,"o":"m 114 0 l 114 1028 l 161 1028 l 161 0 l 114 0 m 138 -278 q 36 -248 72 -278 q 0 -161 0 -218 q 15 -92 0 -125 q 61 -29 30 -60 q 142 32 92 1 l 161 0 q 89 -53 116 -28 q 51 -105 63 -79 q 39 -158 39 -131 q 64 -221 39 -201 q 136 -242 88 -242 q 183 -235 158 -242 q 239 -214 207 -229 l 239 -251 q 188 -271 213 -265 q 138 -278 163 -278 z "},"Ĩ":{"ha":275,"x_min":-44,"x_max":319,"o":"m 114 0 l 114 1028 l 161 1028 l 161 0 l 114 0 m 226 1178 q 175 1187 199 1178 q 128 1207 151 1196 q 89 1224 108 1217 q 49 1232 69 1232 q -2 1219 19 1232 q -44 1182 -24 1207 l -44 1228 q -5 1259 -28 1248 q 49 1271 19 1271 q 100 1262 76 1271 q 147 1242 124 1253 q 186 1225 167 1233 q 226 1217 206 1217 q 278 1229 256 1217 q 319 1267 300 1242 l 319 1221 q 281 1190 304 1201 q 226 1178 257 1178 z "},"J":{"ha":275,"x_min":-4,"x_max":161,"o":"m 31 -236 l -4 -212 q 64 -87 38 -147 q 102 41 90 -27 q 114 199 114 108 l 114 1028 l 161 1028 l 161 178 q 147 26 161 92 q 105 -103 133 -41 q 31 -236 76 -165 z "},"Ĵ":{"ha":275,"x_min":-25,"x_max":300,"o":"m 31 -236 l -4 -212 q 64 -87 38 -147 q 102 41 90 -27 q 114 199 114 108 l 114 1028 l 161 1028 l 161 178 q 147 26 161 92 q 105 -103 133 -41 q 31 -236 76 -165 m -25 1122 l 111 1311 l 164 1311 l 300 1122 l 251 1122 l 132 1290 l 143 1290 l 24 1122 l -25 1122 z "},"K":{"ha":722,"x_min":114,"x_max":749,"o":"m 692 0 l 279 526 l 664 1028 l 719 1028 l 328 521 l 328 538 l 749 0 l 692 0 m 114 0 l 114 1028 l 161 1028 l 161 0 l 114 0 m 150 506 l 150 550 l 308 550 l 308 506 l 150 506 z "},"Ķ":{"ha":722,"x_min":114,"x_max":749,"o":"m 692 0 l 279 526 l 664 1028 l 719 1028 l 328 521 l 328 538 l 749 0 l 692 0 m 114 0 l 114 1028 l 161 1028 l 161 0 l 114 0 m 150 506 l 150 550 l 308 550 l 308 506 l 150 506 m 368 -311 q 387 -246 383 -274 q 392 -193 392 -218 l 394 -215 l 386 -215 q 355 -203 367 -215 q 343 -171 343 -190 q 355 -140 343 -152 q 383 -128 366 -128 q 417 -142 404 -128 q 429 -187 429 -157 q 422 -245 429 -212 q 399 -311 415 -278 l 368 -311 z "},"L":{"ha":618,"x_min":114,"x_max":615,"o":"m 114 0 l 114 1028 l 161 1028 l 161 46 l 615 46 l 615 0 l 114 0 z "},"Ǉ":{"ha":893,"x_min":114,"x_max":779,"o":"m 114 0 l 114 1028 l 161 1028 l 161 46 l 615 46 l 615 0 l 114 0 m 649 -236 l 614 -212 q 682 -87 656 -147 q 720 41 708 -27 q 732 199 732 108 l 732 1028 l 779 1028 l 779 178 q 765 26 779 92 q 723 -103 751 -41 q 649 -236 694 -165 z "},"Ĺ":{"ha":618,"x_min":114,"x_max":615,"o":"m 114 0 l 114 1028 l 161 1028 l 161 46 l 615 46 l 615 0 l 114 0 m 118 1122 l 207 1311 l 257 1311 l 157 1122 l 118 1122 z "},"Ľ":{"ha":618,"x_min":114,"x_max":615,"o":"m 114 0 l 114 1028 l 161 1028 l 161 46 l 615 46 l 615 0 l 114 0 m 389 792 q 397 895 394 840 q 401 1008 400 950 q 401 1122 401 1065 l 446 1122 q 441 950 446 1034 q 421 792 435 866 l 389 792 z "},"Ļ":{"ha":618,"x_min":114,"x_max":615,"o":"m 114 0 l 114 1028 l 161 1028 l 161 46 l 615 46 l 615 0 l 114 0 m 347 -311 q 366 -246 362 -274 q 371 -193 371 -218 l 374 -215 l 365 -215 q 334 -203 347 -215 q 322 -171 322 -190 q 334 -140 322 -152 q 363 -128 345 -128 q 396 -142 383 -128 q 408 -187 408 -157 q 401 -245 408 -212 q 378 -311 394 -278 l 347 -311 z "},"Ŀ":{"ha":618,"x_min":114,"x_max":615,"o":"m 114 0 l 114 1028 l 161 1028 l 161 46 l 615 46 l 615 0 l 114 0 m 444 493 q 414 505 426 493 q 401 536 401 517 q 414 568 401 556 q 444 581 426 581 q 475 568 463 581 q 488 536 488 556 q 475 505 488 517 q 444 493 463 493 z "},"Ḷ":{"ha":618,"x_min":114,"x_max":615,"o":"m 114 0 l 114 1028 l 161 1028 l 161 46 l 615 46 l 615 0 l 114 0 m 365 -215 q 334 -203 347 -215 q 322 -172 322 -192 q 334 -140 322 -152 q 365 -128 347 -128 q 396 -140 384 -128 q 408 -172 408 -152 q 396 -203 408 -192 q 365 -215 384 -215 z "},"Ḻ":{"ha":618,"x_min":114,"x_max":615,"o":"m 114 0 l 114 1028 l 161 1028 l 161 46 l 615 46 l 615 0 l 114 0 m 199 -192 l 199 -151 l 532 -151 l 532 -192 l 199 -192 z "},"Ł":{"ha":618,"x_min":-3,"x_max":615,"o":"m -3 367 l -3 424 l 325 750 l 325 693 l -3 367 m 114 0 l 114 1028 l 161 1028 l 161 46 l 615 46 l 615 0 l 114 0 z "},"M":{"ha":1053,"x_min":117,"x_max":936,"o":"m 117 0 l 117 1028 l 169 1028 l 539 161 l 517 161 l 883 1028 l 936 1028 l 936 0 l 890 0 l 890 986 l 914 986 l 553 139 l 500 139 l 138 986 l 163 986 l 163 0 l 117 0 z "},"Ṃ":{"ha":1053,"x_min":117,"x_max":936,"o":"m 117 0 l 117 1028 l 169 1028 l 539 161 l 517 161 l 883 1028 l 936 1028 l 936 0 l 890 0 l 890 986 l 914 986 l 553 139 l 500 139 l 138 986 l 163 986 l 163 0 l 117 0 m 526 -215 q 495 -203 508 -215 q 483 -172 483 -192 q 495 -140 483 -152 q 526 -128 508 -128 q 557 -140 545 -128 q 569 -172 569 -152 q 557 -203 569 -192 q 526 -215 545 -215 z "},"N":{"ha":867,"x_min":114,"x_max":753,"o":"m 114 0 l 114 1028 l 167 1028 l 729 42 l 707 42 l 707 1028 l 753 1028 l 753 0 l 700 0 l 138 986 l 160 986 l 160 0 l 114 0 z "},"Ǌ":{"ha":1142,"x_min":114,"x_max":1028,"o":"m 114 0 l 114 1028 l 167 1028 l 729 42 l 707 42 l 707 1028 l 753 1028 l 753 0 l 700 0 l 138 986 l 160 986 l 160 0 l 114 0 m 897 -236 l 863 -212 q 930 -87 904 -147 q 968 41 956 -27 q 981 199 981 108 l 981 1028 l 1028 1028 l 1028 178 q 1014 26 1028 92 q 971 -103 1000 -41 q 897 -236 942 -165 z "},"Ń":{"ha":867,"x_min":114,"x_max":753,"o":"m 114 0 l 114 1028 l 167 1028 l 729 42 l 707 42 l 707 1028 l 753 1028 l 753 0 l 700 0 l 138 986 l 160 986 l 160 0 l 114 0 m 414 1122 l 503 1311 l 553 1311 l 453 1122 l 414 1122 z "},"Ň":{"ha":867,"x_min":114,"x_max":753,"o":"m 114 0 l 114 1028 l 167 1028 l 729 42 l 707 42 l 707 1028 l 753 1028 l 753 0 l 700 0 l 138 986 l 160 986 l 160 0 l 114 0 m 407 1122 l 271 1311 l 319 1311 l 439 1143 l 428 1143 l 547 1311 l 596 1311 l 460 1122 l 407 1122 z "},"Ņ":{"ha":867,"x_min":114,"x_max":753,"o":"m 114 0 l 114 1028 l 167 1028 l 729 42 l 707 42 l 707 1028 l 753 1028 l 753 0 l 700 0 l 138 986 l 160 986 l 160 0 l 114 0 m 415 -311 q 434 -246 430 -274 q 439 -193 439 -218 l 442 -215 l 433 -215 q 402 -203 415 -215 q 390 -171 390 -190 q 402 -140 390 -152 q 431 -128 413 -128 q 464 -142 451 -128 q 476 -187 476 -157 q 469 -245 476 -212 q 446 -311 462 -278 l 415 -311 z "},"Ṅ":{"ha":867,"x_min":114,"x_max":753,"o":"m 114 0 l 114 1028 l 167 1028 l 729 42 l 707 42 l 707 1028 l 753 1028 l 753 0 l 700 0 l 138 986 l 160 986 l 160 0 l 114 0 m 433 1174 q 402 1185 415 1174 q 390 1217 390 1197 q 402 1249 390 1237 q 433 1261 415 1261 q 464 1249 452 1261 q 476 1217 476 1237 q 464 1185 476 1197 q 433 1174 452 1174 z "},"Ṇ":{"ha":867,"x_min":114,"x_max":753,"o":"m 114 0 l 114 1028 l 167 1028 l 729 42 l 707 42 l 707 1028 l 753 1028 l 753 0 l 700 0 l 138 986 l 160 986 l 160 0 l 114 0 m 433 -215 q 402 -203 415 -215 q 390 -172 390 -192 q 402 -140 390 -152 q 433 -128 415 -128 q 464 -140 452 -128 q 476 -172 476 -152 q 464 -203 476 -192 q 433 -215 452 -215 z "},"Ŋ":{"ha":867,"x_min":114,"x_max":753,"o":"m 713 -22 l 138 986 l 160 986 l 160 0 l 114 0 l 114 1028 l 167 1028 l 742 19 l 713 -22 m 622 -319 l 588 -296 q 656 -169 629 -230 q 694 -40 682 -108 q 707 115 707 28 l 707 1028 l 753 1028 l 753 122 q 739 -46 753 27 q 696 -184 725 -119 q 622 -319 667 -249 z "},"Ṉ":{"ha":867,"x_min":114,"x_max":753,"o":"m 114 0 l 114 1028 l 167 1028 l 729 42 l 707 42 l 707 1028 l 753 1028 l 753 0 l 700 0 l 138 986 l 160 986 l 160 0 l 114 0 m 267 -192 l 267 -151 l 600 -151 l 600 -192 l 267 -192 z "},"Ñ":{"ha":867,"x_min":114,"x_max":753,"o":"m 114 0 l 114 1028 l 167 1028 l 729 42 l 707 42 l 707 1028 l 753 1028 l 753 0 l 700 0 l 138 986 l 160 986 l 160 0 l 114 0 m 522 1178 q 471 1187 495 1178 q 424 1207 447 1196 q 384 1224 404 1217 q 344 1232 365 1232 q 293 1219 315 1232 q 251 1182 272 1207 l 251 1228 q 291 1259 267 1248 q 344 1271 315 1271 q 396 1262 372 1271 q 442 1242 420 1253 q 482 1225 463 1233 q 522 1217 502 1217 q 574 1229 551 1217 q 615 1267 596 1242 l 615 1221 q 576 1190 600 1201 q 522 1178 553 1178 z "},"O":{"ha":808,"x_min":68,"x_max":740,"o":"m 404 -12 q 226 38 301 -12 q 109 205 151 89 q 68 514 68 320 q 109 823 68 708 q 226 990 151 939 q 404 1040 301 1040 q 582 990 507 1040 q 699 823 658 939 q 740 514 740 708 q 699 205 740 320 q 582 38 658 89 q 404 -12 507 -12 m 404 33 q 555 76 490 33 q 655 223 619 119 q 690 511 690 327 q 655 803 690 698 q 555 951 619 908 q 404 994 490 994 q 254 952 318 994 q 154 805 190 909 q 118 517 118 701 q 154 225 118 330 q 254 76 190 119 q 404 33 318 33 z "},"Ó":{"ha":808,"x_min":68,"x_max":740,"o":"m 404 -12 q 226 38 301 -12 q 109 205 151 89 q 68 514 68 320 q 109 823 68 708 q 226 990 151 939 q 404 1040 301 1040 q 582 990 507 1040 q 699 823 658 939 q 740 514 740 708 q 699 205 740 320 q 582 38 658 89 q 404 -12 507 -12 m 404 33 q 555 76 490 33 q 655 223 619 119 q 690 511 690 327 q 655 803 690 698 q 555 951 619 908 q 404 994 490 994 q 254 952 318 994 q 154 805 190 909 q 118 517 118 701 q 154 225 118 330 q 254 76 190 119 q 404 33 318 33 m 385 1122 l 474 1311 l 524 1311 l 424 1122 l 385 1122 z "},"Ŏ":{"ha":808,"x_min":68,"x_max":740,"o":"m 404 -12 q 226 38 301 -12 q 109 205 151 89 q 68 514 68 320 q 109 823 68 708 q 226 990 151 939 q 404 1040 301 1040 q 582 990 507 1040 q 699 823 658 939 q 740 514 740 708 q 699 205 740 320 q 582 38 658 89 q 404 -12 507 -12 m 404 33 q 555 76 490 33 q 655 223 619 119 q 690 511 690 327 q 655 803 690 698 q 555 951 619 908 q 404 994 490 994 q 254 952 318 994 q 154 805 190 909 q 118 517 118 701 q 154 225 118 330 q 254 76 190 119 q 404 33 318 33 m 406 1131 q 318 1149 355 1131 q 260 1202 281 1167 q 236 1292 240 1238 l 275 1292 q 313 1199 283 1227 q 406 1171 343 1171 q 498 1199 468 1171 q 533 1292 528 1227 l 572 1292 q 549 1202 569 1238 q 492 1148 528 1166 q 406 1131 456 1131 z "},"Ô":{"ha":808,"x_min":68,"x_max":740,"o":"m 404 -12 q 226 38 301 -12 q 109 205 151 89 q 68 514 68 320 q 109 823 68 708 q 226 990 151 939 q 404 1040 301 1040 q 582 990 507 1040 q 699 823 658 939 q 740 514 740 708 q 699 205 740 320 q 582 38 658 89 q 404 -12 507 -12 m 404 33 q 555 76 490 33 q 655 223 619 119 q 690 511 690 327 q 655 803 690 698 q 555 951 619 908 q 404 994 490 994 q 254 952 318 994 q 154 805 190 909 q 118 517 118 701 q 154 225 118 330 q 254 76 190 119 q 404 33 318 33 m 242 1122 l 378 1311 l 431 1311 l 567 1122 l 518 1122 l 399 1290 l 410 1290 l 290 1122 l 242 1122 z "},"Ố":{"ha":808,"x_min":68,"x_max":740,"o":"m 404 -12 q 226 38 301 -12 q 109 205 151 89 q 68 514 68 320 q 109 823 68 708 q 226 990 151 939 q 404 1040 301 1040 q 582 990 507 1040 q 699 823 658 939 q 740 514 740 708 q 699 205 740 320 q 582 38 658 89 q 404 -12 507 -12 m 404 33 q 555 76 490 33 q 655 223 619 119 q 690 511 690 327 q 655 803 690 698 q 555 951 619 908 q 404 994 490 994 q 254 952 318 994 q 154 805 190 909 q 118 517 118 701 q 154 225 118 330 q 254 76 190 119 q 404 33 318 33 m 242 1122 l 378 1311 l 431 1311 l 567 1122 l 518 1122 l 399 1290 l 410 1290 l 290 1122 l 242 1122 m 528 1244 l 617 1433 l 667 1433 l 567 1244 l 528 1244 z "},"Ộ":{"ha":808,"x_min":68,"x_max":740,"o":"m 404 -12 q 226 38 301 -12 q 109 205 151 89 q 68 514 68 320 q 109 823 68 708 q 226 990 151 939 q 404 1040 301 1040 q 582 990 507 1040 q 699 823 658 939 q 740 514 740 708 q 699 205 740 320 q 582 38 658 89 q 404 -12 507 -12 m 404 33 q 555 76 490 33 q 655 223 619 119 q 690 511 690 327 q 655 803 690 698 q 555 951 619 908 q 404 994 490 994 q 254 952 318 994 q 154 805 190 909 q 118 517 118 701 q 154 225 118 330 q 254 76 190 119 q 404 33 318 33 m 404 -215 q 373 -203 385 -215 q 361 -172 361 -192 q 373 -140 361 -152 q 404 -128 385 -128 q 435 -140 423 -128 q 447 -172 447 -152 q 435 -203 447 -192 q 404 -215 423 -215 m 242 1122 l 378 1311 l 431 1311 l 567 1122 l 518 1122 l 399 1290 l 410 1290 l 290 1122 l 242 1122 z "},"Ồ":{"ha":808,"x_min":68,"x_max":740,"o":"m 404 -12 q 226 38 301 -12 q 109 205 151 89 q 68 514 68 320 q 109 823 68 708 q 226 990 151 939 q 404 1040 301 1040 q 582 990 507 1040 q 699 823 658 939 q 740 514 740 708 q 699 205 740 320 q 582 38 658 89 q 404 -12 507 -12 m 404 33 q 555 76 490 33 q 655 223 619 119 q 690 511 690 327 q 655 803 690 698 q 555 951 619 908 q 404 994 490 994 q 254 952 318 994 q 154 805 190 909 q 118 517 118 701 q 154 225 118 330 q 254 76 190 119 q 404 33 318 33 m 251 1122 l 387 1311 l 440 1311 l 576 1122 l 527 1122 l 408 1290 l 419 1290 l 299 1122 l 251 1122 m 551 1244 l 451 1433 l 501 1433 l 590 1244 l 551 1244 z "},"Ổ":{"ha":808,"x_min":68,"x_max":740,"o":"m 404 -12 q 226 38 301 -12 q 109 205 151 89 q 68 514 68 320 q 109 823 68 708 q 226 990 151 939 q 404 1040 301 1040 q 582 990 507 1040 q 699 823 658 939 q 740 514 740 708 q 699 205 740 320 q 582 38 658 89 q 404 -12 507 -12 m 404 33 q 555 76 490 33 q 655 223 619 119 q 690 511 690 327 q 655 803 690 698 q 555 951 619 908 q 404 994 490 994 q 254 952 318 994 q 154 805 190 909 q 118 517 118 701 q 154 225 118 330 q 254 76 190 119 q 404 33 318 33 m 242 1122 l 378 1311 l 431 1311 l 567 1122 l 518 1122 l 399 1290 l 410 1290 l 290 1122 l 242 1122 m 526 1244 q 544 1289 528 1274 q 581 1312 560 1303 q 617 1331 601 1321 q 632 1360 632 1340 q 617 1386 632 1376 q 554 1396 601 1396 q 493 1390 525 1396 q 431 1369 461 1383 l 431 1408 q 488 1427 455 1420 q 554 1433 521 1433 q 644 1413 615 1433 q 674 1361 674 1392 q 658 1319 674 1333 q 623 1295 643 1304 q 586 1275 603 1286 q 568 1244 570 1265 l 526 1244 z "},"Ỗ":{"ha":808,"x_min":68,"x_max":740,"o":"m 404 -12 q 226 38 301 -12 q 109 205 151 89 q 68 514 68 320 q 109 823 68 708 q 226 990 151 939 q 404 1040 301 1040 q 582 990 507 1040 q 699 823 658 939 q 740 514 740 708 q 699 205 740 320 q 582 38 658 89 q 404 -12 507 -12 m 404 33 q 555 76 490 33 q 655 223 619 119 q 690 511 690 327 q 655 803 690 698 q 555 951 619 908 q 404 994 490 994 q 254 952 318 994 q 154 805 190 909 q 118 517 118 701 q 154 225 118 330 q 254 76 190 119 q 404 33 318 33 m 242 1122 l 378 1311 l 431 1311 l 567 1122 l 518 1122 l 399 1290 l 410 1290 l 290 1122 l 242 1122 m 481 1343 q 425 1357 451 1343 q 375 1384 399 1370 q 328 1397 351 1397 q 281 1385 302 1397 q 242 1347 260 1372 l 242 1393 q 278 1425 256 1413 q 328 1436 301 1436 q 383 1423 357 1436 q 434 1395 410 1409 q 481 1382 458 1382 q 527 1394 507 1382 q 567 1432 548 1407 l 567 1386 q 530 1355 552 1367 q 481 1343 508 1343 z "},"Ȍ":{"ha":808,"x_min":68,"x_max":740,"o":"m 404 -12 q 226 38 301 -12 q 109 205 151 89 q 68 514 68 320 q 109 823 68 708 q 226 990 151 939 q 404 1040 301 1040 q 582 990 507 1040 q 699 823 658 939 q 740 514 740 708 q 699 205 740 320 q 582 38 658 89 q 404 -12 507 -12 m 404 33 q 555 76 490 33 q 655 223 619 119 q 690 511 690 327 q 655 803 690 698 q 555 951 619 908 q 404 994 490 994 q 254 952 318 994 q 154 805 190 909 q 118 517 118 701 q 154 225 118 330 q 254 76 190 119 q 404 33 318 33 m 474 1122 l 407 1311 l 451 1311 l 511 1122 l 474 1122 m 297 1122 l 231 1311 l 275 1311 l 335 1122 l 297 1122 z "},"Ö":{"ha":808,"x_min":68,"x_max":740,"o":"m 404 -12 q 226 38 301 -12 q 109 205 151 89 q 68 514 68 320 q 109 823 68 708 q 226 990 151 939 q 404 1040 301 1040 q 582 990 507 1040 q 699 823 658 939 q 740 514 740 708 q 699 205 740 320 q 582 38 658 89 q 404 -12 507 -12 m 404 33 q 555 76 490 33 q 655 223 619 119 q 690 511 690 327 q 655 803 690 698 q 555 951 619 908 q 404 994 490 994 q 254 952 318 994 q 154 805 190 909 q 118 517 118 701 q 154 225 118 330 q 254 76 190 119 q 404 33 318 33 m 529 1174 q 498 1185 510 1174 q 486 1217 486 1197 q 498 1249 486 1237 q 529 1261 510 1261 q 560 1249 548 1261 q 572 1217 572 1237 q 560 1185 572 1197 q 529 1174 548 1174 m 279 1174 q 248 1185 260 1174 q 236 1217 236 1197 q 248 1249 236 1237 q 279 1261 260 1261 q 310 1249 298 1261 q 322 1217 322 1237 q 310 1185 322 1197 q 279 1174 298 1174 z "},"Ȫ":{"ha":808,"x_min":68,"x_max":740,"o":"m 404 -12 q 226 38 301 -12 q 109 205 151 89 q 68 514 68 320 q 109 823 68 708 q 226 990 151 939 q 404 1040 301 1040 q 582 990 507 1040 q 699 823 658 939 q 740 514 740 708 q 699 205 740 320 q 582 38 658 89 q 404 -12 507 -12 m 404 33 q 555 76 490 33 q 655 223 619 119 q 690 511 690 327 q 655 803 690 698 q 555 951 619 908 q 404 994 490 994 q 254 952 318 994 q 154 805 190 909 q 118 517 118 701 q 154 225 118 330 q 254 76 190 119 q 404 33 318 33 z "},"Ȱ":{"ha":808,"x_min":68,"x_max":740,"o":"m 404 -12 q 226 38 301 -12 q 109 205 151 89 q 68 514 68 320 q 109 823 68 708 q 226 990 151 939 q 404 1040 301 1040 q 582 990 507 1040 q 699 823 658 939 q 740 514 740 708 q 699 205 740 320 q 582 38 658 89 q 404 -12 507 -12 m 404 33 q 555 76 490 33 q 655 223 619 119 q 690 511 690 327 q 655 803 690 698 q 555 951 619 908 q 404 994 490 994 q 254 952 318 994 q 154 805 190 909 q 118 517 118 701 q 154 225 118 330 q 254 76 190 119 q 404 33 318 33 z "},"Ọ":{"ha":808,"x_min":68,"x_max":740,"o":"m 404 -12 q 226 38 301 -12 q 109 205 151 89 q 68 514 68 320 q 109 823 68 708 q 226 990 151 939 q 404 1040 301 1040 q 582 990 507 1040 q 699 823 658 939 q 740 514 740 708 q 699 205 740 320 q 582 38 658 89 q 404 -12 507 -12 m 404 33 q 555 76 490 33 q 655 223 619 119 q 690 511 690 327 q 655 803 690 698 q 555 951 619 908 q 404 994 490 994 q 254 952 318 994 q 154 805 190 909 q 118 517 118 701 q 154 225 118 330 q 254 76 190 119 q 404 33 318 33 m 404 -215 q 373 -203 385 -215 q 361 -172 361 -192 q 373 -140 361 -152 q 404 -128 385 -128 q 435 -140 423 -128 q 447 -172 447 -152 q 435 -203 447 -192 q 404 -215 423 -215 z "},"Ò":{"ha":808,"x_min":68,"x_max":740,"o":"m 404 -12 q 226 38 301 -12 q 109 205 151 89 q 68 514 68 320 q 109 823 68 708 q 226 990 151 939 q 404 1040 301 1040 q 582 990 507 1040 q 699 823 658 939 q 740 514 740 708 q 699 205 740 320 q 582 38 658 89 q 404 -12 507 -12 m 404 33 q 555 76 490 33 q 655 223 619 119 q 690 511 690 327 q 655 803 690 698 q 555 951 619 908 q 404 994 490 994 q 254 952 318 994 q 154 805 190 909 q 118 517 118 701 q 154 225 118 330 q 254 76 190 119 q 404 33 318 33 m 385 1122 l 285 1311 l 335 1311 l 424 1122 l 385 1122 z "},"Ỏ":{"ha":808,"x_min":68,"x_max":740,"o":"m 404 -12 q 226 38 301 -12 q 109 205 151 89 q 68 514 68 320 q 109 823 68 708 q 226 990 151 939 q 404 1040 301 1040 q 582 990 507 1040 q 699 823 658 939 q 740 514 740 708 q 699 205 740 320 q 582 38 658 89 q 404 -12 507 -12 m 404 33 q 555 76 490 33 q 655 223 619 119 q 690 511 690 327 q 655 803 690 698 q 555 951 619 908 q 404 994 490 994 q 254 952 318 994 q 154 805 190 909 q 118 517 118 701 q 154 225 118 330 q 254 76 190 119 q 404 33 318 33 m 383 1122 q 405 1169 385 1154 q 445 1193 424 1183 q 476 1211 463 1201 q 489 1238 489 1220 q 474 1264 489 1253 q 411 1274 458 1274 q 350 1267 382 1274 q 288 1247 318 1261 l 288 1286 q 345 1305 312 1298 q 411 1311 378 1311 q 501 1290 472 1311 q 531 1239 531 1269 q 512 1194 531 1208 q 473 1169 494 1180 q 441 1150 456 1160 q 425 1122 427 1140 l 383 1122 z "},"Ơ":{"ha":808,"x_min":68,"x_max":740,"o":"m 404 -12 q 227 38 303 -12 q 110 205 151 89 q 68 514 68 320 q 109 823 68 708 q 226 990 151 939 q 404 1040 301 1040 q 469 1036 442 1040 q 520 1029 497 1033 q 571 1025 544 1025 q 659 1051 623 1025 q 694 1135 694 1078 q 690 1187 694 1164 q 678 1233 685 1210 l 724 1233 q 736 1187 732 1210 q 740 1133 740 1165 q 719 1050 740 1084 q 661 997 698 1015 q 578 979 624 979 l 585 988 q 700 820 659 935 q 740 514 740 706 q 699 205 740 320 q 581 38 657 89 q 404 -12 506 -12 m 404 33 q 555 76 490 33 q 655 223 619 119 q 690 511 690 327 q 655 803 690 698 q 555 951 619 908 q 404 994 490 994 q 254 952 318 994 q 154 805 190 909 q 118 517 118 701 q 154 225 118 330 q 254 76 190 119 q 404 33 318 33 z "},"Ớ":{"ha":808,"x_min":68,"x_max":740,"o":"m 404 -12 q 227 38 303 -12 q 110 205 151 89 q 68 514 68 320 q 109 823 68 708 q 226 990 151 939 q 404 1040 301 1040 q 469 1036 442 1040 q 520 1029 497 1033 q 571 1025 544 1025 q 659 1051 623 1025 q 694 1135 694 1078 q 690 1187 694 1164 q 678 1233 685 1210 l 724 1233 q 736 1187 732 1210 q 740 1133 740 1165 q 719 1050 740 1084 q 661 997 698 1015 q 578 979 624 979 l 585 988 q 700 820 659 935 q 740 514 740 706 q 699 205 740 320 q 581 38 657 89 q 404 -12 506 -12 m 404 33 q 555 76 490 33 q 655 223 619 119 q 690 511 690 327 q 655 803 690 698 q 555 951 619 908 q 404 994 490 994 q 254 952 318 994 q 154 805 190 909 q 118 517 118 701 q 154 225 118 330 q 254 76 190 119 q 404 33 318 33 m 385 1122 l 474 1311 l 524 1311 l 424 1122 l 385 1122 z "},"Ợ":{"ha":808,"x_min":68,"x_max":740,"o":"m 404 -12 q 227 38 303 -12 q 110 205 151 89 q 68 514 68 320 q 109 823 68 708 q 226 990 151 939 q 404 1040 301 1040 q 469 1036 442 1040 q 520 1029 497 1033 q 571 1025 544 1025 q 659 1051 623 1025 q 694 1135 694 1078 q 690 1187 694 1164 q 678 1233 685 1210 l 724 1233 q 736 1187 732 1210 q 740 1133 740 1165 q 719 1050 740 1084 q 661 997 698 1015 q 578 979 624 979 l 585 988 q 700 820 659 935 q 740 514 740 706 q 699 205 740 320 q 581 38 657 89 q 404 -12 506 -12 m 404 33 q 555 76 490 33 q 655 223 619 119 q 690 511 690 327 q 655 803 690 698 q 555 951 619 908 q 404 994 490 994 q 254 952 318 994 q 154 805 190 909 q 118 517 118 701 q 154 225 118 330 q 254 76 190 119 q 404 33 318 33 m 404 -215 q 373 -203 385 -215 q 361 -172 361 -192 q 373 -140 361 -152 q 404 -128 385 -128 q 435 -140 423 -128 q 447 -172 447 -152 q 435 -203 447 -192 q 404 -215 423 -215 z "},"Ờ":{"ha":808,"x_min":68,"x_max":740,"o":"m 404 -12 q 227 38 303 -12 q 110 205 151 89 q 68 514 68 320 q 109 823 68 708 q 226 990 151 939 q 404 1040 301 1040 q 469 1036 442 1040 q 520 1029 497 1033 q 571 1025 544 1025 q 659 1051 623 1025 q 694 1135 694 1078 q 690 1187 694 1164 q 678 1233 685 1210 l 724 1233 q 736 1187 732 1210 q 740 1133 740 1165 q 719 1050 740 1084 q 661 997 698 1015 q 578 979 624 979 l 585 988 q 700 820 659 935 q 740 514 740 706 q 699 205 740 320 q 581 38 657 89 q 404 -12 506 -12 m 404 33 q 555 76 490 33 q 655 223 619 119 q 690 511 690 327 q 655 803 690 698 q 555 951 619 908 q 404 994 490 994 q 254 952 318 994 q 154 805 190 909 q 118 517 118 701 q 154 225 118 330 q 254 76 190 119 q 404 33 318 33 m 385 1122 l 285 1311 l 335 1311 l 424 1122 l 385 1122 z "},"Ở":{"ha":808,"x_min":68,"x_max":740,"o":"m 404 -12 q 227 38 303 -12 q 110 205 151 89 q 68 514 68 320 q 109 823 68 708 q 226 990 151 939 q 404 1040 301 1040 q 469 1036 442 1040 q 520 1029 497 1033 q 571 1025 544 1025 q 659 1051 623 1025 q 694 1135 694 1078 q 690 1187 694 1164 q 678 1233 685 1210 l 724 1233 q 736 1187 732 1210 q 740 1133 740 1165 q 719 1050 740 1084 q 661 997 698 1015 q 578 979 624 979 l 585 988 q 700 820 659 935 q 740 514 740 706 q 699 205 740 320 q 581 38 657 89 q 404 -12 506 -12 m 404 33 q 555 76 490 33 q 655 223 619 119 q 690 511 690 327 q 655 803 690 698 q 555 951 619 908 q 404 994 490 994 q 254 952 318 994 q 154 805 190 909 q 118 517 118 701 q 154 225 118 330 q 254 76 190 119 q 404 33 318 33 m 383 1122 q 405 1169 385 1154 q 445 1193 424 1183 q 476 1211 463 1201 q 489 1238 489 1220 q 474 1264 489 1253 q 411 1274 458 1274 q 350 1267 382 1274 q 288 1247 318 1261 l 288 1286 q 345 1305 312 1298 q 411 1311 378 1311 q 501 1290 472 1311 q 531 1239 531 1269 q 512 1194 531 1208 q 473 1169 494 1180 q 441 1150 456 1160 q 425 1122 427 1140 l 383 1122 z "},"Ỡ":{"ha":808,"x_min":68,"x_max":740,"o":"m 404 -12 q 227 38 303 -12 q 110 205 151 89 q 68 514 68 320 q 109 823 68 708 q 226 990 151 939 q 404 1040 301 1040 q 469 1036 442 1040 q 520 1029 497 1033 q 571 1025 544 1025 q 659 1051 623 1025 q 694 1135 694 1078 q 690 1187 694 1164 q 678 1233 685 1210 l 724 1233 q 736 1187 732 1210 q 740 1133 740 1165 q 719 1050 740 1084 q 661 997 698 1015 q 578 979 624 979 l 585 988 q 700 820 659 935 q 740 514 740 706 q 699 205 740 320 q 581 38 657 89 q 404 -12 506 -12 m 404 33 q 555 76 490 33 q 655 223 619 119 q 690 511 690 327 q 655 803 690 698 q 555 951 619 908 q 404 994 490 994 q 254 952 318 994 q 154 805 190 909 q 118 517 118 701 q 154 225 118 330 q 254 76 190 119 q 404 33 318 33 m 493 1178 q 429 1191 458 1178 q 372 1218 399 1205 q 315 1232 344 1232 q 264 1219 286 1232 q 222 1182 242 1207 l 222 1228 q 262 1259 238 1248 q 315 1271 285 1271 q 380 1257 350 1271 q 437 1230 410 1244 q 493 1217 465 1217 q 544 1229 522 1217 q 586 1267 567 1242 l 586 1221 q 547 1190 571 1201 q 493 1178 524 1178 z "},"Ő":{"ha":808,"x_min":68,"x_max":740,"o":"m 404 -12 q 226 38 301 -12 q 109 205 151 89 q 68 514 68 320 q 109 823 68 708 q 226 990 151 939 q 404 1040 301 1040 q 582 990 507 1040 q 699 823 658 939 q 740 514 740 708 q 699 205 740 320 q 582 38 658 89 q 404 -12 507 -12 m 404 33 q 555 76 490 33 q 655 223 619 119 q 690 511 690 327 q 655 803 690 698 q 555 951 619 908 q 404 994 490 994 q 254 952 318 994 q 154 805 190 909 q 118 517 118 701 q 154 225 118 330 q 254 76 190 119 q 404 33 318 33 m 474 1122 l 533 1311 l 578 1311 l 511 1122 l 474 1122 m 297 1122 l 357 1311 l 401 1311 l 335 1122 l 297 1122 z "},"Ȏ":{"ha":808,"x_min":68,"x_max":740,"o":"m 404 -12 q 226 38 301 -12 q 109 205 151 89 q 68 514 68 320 q 109 823 68 708 q 226 990 151 939 q 404 1040 301 1040 q 582 990 507 1040 q 699 823 658 939 q 740 514 740 708 q 699 205 740 320 q 582 38 658 89 q 404 -12 507 -12 m 404 33 q 555 76 490 33 q 655 223 619 119 q 690 511 690 327 q 655 803 690 698 q 555 951 619 908 q 404 994 490 994 q 254 952 318 994 q 154 805 190 909 q 118 517 118 701 q 154 225 118 330 q 254 76 190 119 q 404 33 318 33 m 236 1142 q 260 1232 240 1196 q 316 1285 280 1267 q 403 1303 352 1303 q 490 1285 453 1303 q 548 1231 527 1267 q 572 1142 569 1195 l 533 1142 q 496 1234 526 1206 q 403 1263 465 1263 q 310 1234 340 1263 q 275 1142 281 1206 l 236 1142 z "},"Ō":{"ha":808,"x_min":68,"x_max":740,"o":"m 404 -12 q 226 38 301 -12 q 109 205 151 89 q 68 514 68 320 q 109 823 68 708 q 226 990 151 939 q 404 1040 301 1040 q 582 990 507 1040 q 699 823 658 939 q 740 514 740 708 q 699 205 740 320 q 582 38 658 89 q 404 -12 507 -12 m 404 33 q 555 76 490 33 q 655 223 619 119 q 690 511 690 327 q 655 803 690 698 q 555 951 619 908 q 404 994 490 994 q 254 952 318 994 q 154 805 190 909 q 118 517 118 701 q 154 225 118 330 q 254 76 190 119 q 404 33 318 33 m 238 1197 l 238 1238 l 571 1238 l 571 1197 l 238 1197 z "},"Ṓ":{"ha":808,"x_min":68,"x_max":740,"o":"m 404 -12 q 226 38 301 -12 q 109 205 151 89 q 68 514 68 320 q 109 823 68 708 q 226 990 151 939 q 404 1040 301 1040 q 582 990 507 1040 q 699 823 658 939 q 740 514 740 708 q 699 205 740 320 q 582 38 658 89 q 404 -12 507 -12 m 404 33 q 555 76 490 33 q 655 223 619 119 q 690 511 690 327 q 655 803 690 698 q 555 951 619 908 q 404 994 490 994 q 254 952 318 994 q 154 805 190 909 q 118 517 118 701 q 154 225 118 330 q 254 76 190 119 q 404 33 318 33 m 383 1308 l 472 1469 l 522 1469 l 422 1308 l 383 1308 m 238 1197 l 238 1238 l 571 1238 l 571 1197 l 238 1197 z "},"Ṑ":{"ha":808,"x_min":68,"x_max":740,"o":"m 404 -12 q 226 38 301 -12 q 109 205 151 89 q 68 514 68 320 q 109 823 68 708 q 226 990 151 939 q 404 1040 301 1040 q 582 990 507 1040 q 699 823 658 939 q 740 514 740 708 q 699 205 740 320 q 582 38 658 89 q 404 -12 507 -12 m 404 33 q 555 76 490 33 q 655 223 619 119 q 690 511 690 327 q 655 803 690 698 q 555 951 619 908 q 404 994 490 994 q 254 952 318 994 q 154 805 190 909 q 118 517 118 701 q 154 225 118 330 q 254 76 190 119 q 404 33 318 33 m 386 1308 l 286 1469 l 336 1469 l 425 1308 l 386 1308 m 238 1197 l 238 1238 l 571 1238 l 571 1197 l 238 1197 z "},"Ǫ":{"ha":808,"x_min":68,"x_max":740,"o":"m 478 -278 q 376 -248 413 -278 q 339 -161 339 -218 q 362 -76 339 -117 q 440 -1 385 -35 l 440 -12 l 404 -12 q 227 38 303 -12 q 110 205 151 89 q 68 514 68 320 q 109 823 68 708 q 226 990 151 939 q 404 1040 301 1040 q 582 990 507 1040 q 699 823 658 939 q 740 514 740 708 q 715 259 740 361 q 641 97 689 158 q 525 7 592 36 q 441 -42 474 -15 q 394 -98 409 -69 q 379 -158 379 -128 q 404 -221 379 -201 q 476 -242 428 -242 q 523 -235 499 -242 q 579 -214 547 -229 l 579 -251 q 528 -271 553 -265 q 478 -278 503 -278 m 404 33 q 555 76 490 33 q 655 223 619 119 q 690 511 690 327 q 655 803 690 698 q 555 951 619 908 q 404 994 490 994 q 254 952 318 994 q 154 805 190 909 q 118 517 118 701 q 154 225 118 330 q 254 76 190 119 q 404 33 318 33 z "},"Ø":{"ha":808,"x_min":68,"x_max":740,"o":"m 119 0 l 68 0 l 689 1028 l 740 1028 l 119 0 m 404 -12 q 226 38 301 -12 q 109 205 151 89 q 68 514 68 320 q 109 823 68 708 q 226 990 151 939 q 404 1040 301 1040 q 582 990 507 1040 q 699 823 658 939 q 740 514 740 708 q 699 205 740 320 q 582 38 658 89 q 404 -12 507 -12 m 404 33 q 555 76 490 33 q 655 223 619 119 q 690 511 690 327 q 655 803 690 698 q 555 951 619 908 q 404 994 490 994 q 254 952 318 994 q 154 805 190 909 q 118 517 118 701 q 154 225 118 330 q 254 76 190 119 q 404 33 318 33 z "},"Ǿ":{"ha":808,"x_min":68,"x_max":740,"o":"m 119 0 l 68 0 l 689 1028 l 740 1028 l 119 0 m 404 -12 q 226 38 301 -12 q 109 205 151 89 q 68 514 68 320 q 109 823 68 708 q 226 990 151 939 q 404 1040 301 1040 q 582 990 507 1040 q 699 823 658 939 q 740 514 740 708 q 699 205 740 320 q 582 38 658 89 q 404 -12 507 -12 m 404 33 q 555 76 490 33 q 655 223 619 119 q 690 511 690 327 q 655 803 690 698 q 555 951 619 908 q 404 994 490 994 q 254 952 318 994 q 154 805 190 909 q 118 517 118 701 q 154 225 118 330 q 254 76 190 119 q 404 33 318 33 m 386 1122 l 475 1311 l 525 1311 l 425 1122 l 386 1122 z "},"Õ":{"ha":808,"x_min":68,"x_max":740,"o":"m 404 -12 q 226 38 301 -12 q 109 205 151 89 q 68 514 68 320 q 109 823 68 708 q 226 990 151 939 q 404 1040 301 1040 q 582 990 507 1040 q 699 823 658 939 q 740 514 740 708 q 699 205 740 320 q 582 38 658 89 q 404 -12 507 -12 m 404 33 q 555 76 490 33 q 655 223 619 119 q 690 511 690 327 q 655 803 690 698 q 555 951 619 908 q 404 994 490 994 q 254 952 318 994 q 154 805 190 909 q 118 517 118 701 q 154 225 118 330 q 254 76 190 119 q 404 33 318 33 m 493 1178 q 442 1187 466 1178 q 395 1207 417 1196 q 355 1224 375 1217 q 315 1232 335 1232 q 264 1219 286 1232 q 222 1182 242 1207 l 222 1228 q 262 1259 238 1248 q 315 1271 285 1271 q 367 1262 342 1271 q 413 1242 391 1253 q 453 1225 433 1233 q 493 1217 473 1217 q 544 1229 522 1217 q 586 1267 567 1242 l 586 1221 q 547 1190 571 1201 q 493 1178 524 1178 z "},"Ṍ":{"ha":808,"x_min":68,"x_max":740,"o":"m 404 -12 q 226 38 301 -12 q 109 205 151 89 q 68 514 68 320 q 109 823 68 708 q 226 990 151 939 q 404 1040 301 1040 q 582 990 507 1040 q 699 823 658 939 q 740 514 740 708 q 699 205 740 320 q 582 38 658 89 q 404 -12 507 -12 m 404 33 q 555 76 490 33 q 655 223 619 119 q 690 511 690 327 q 655 803 690 698 q 555 951 619 908 q 404 994 490 994 q 254 952 318 994 q 154 805 190 909 q 118 517 118 701 q 154 225 118 330 q 254 76 190 119 q 404 33 318 33 m 382 1308 l 471 1469 l 521 1469 l 421 1308 l 382 1308 m 493 1178 q 442 1187 466 1178 q 395 1207 417 1196 q 355 1224 375 1217 q 315 1232 335 1232 q 264 1219 286 1232 q 222 1182 242 1207 l 222 1228 q 262 1259 238 1248 q 315 1271 285 1271 q 367 1262 342 1271 q 413 1242 391 1253 q 453 1225 433 1233 q 493 1217 473 1217 q 544 1229 522 1217 q 586 1267 567 1242 l 586 1221 q 547 1190 571 1201 q 493 1178 524 1178 z "},"Ṏ":{"ha":808,"x_min":68,"x_max":740,"o":"m 404 -12 q 226 38 301 -12 q 109 205 151 89 q 68 514 68 320 q 109 823 68 708 q 226 990 151 939 q 404 1040 301 1040 q 582 990 507 1040 q 699 823 658 939 q 740 514 740 708 q 699 205 740 320 q 582 38 658 89 q 404 -12 507 -12 m 404 33 q 555 76 490 33 q 655 223 619 119 q 690 511 690 327 q 655 803 690 698 q 555 951 619 908 q 404 994 490 994 q 254 952 318 994 q 154 805 190 909 q 118 517 118 701 q 154 225 118 330 q 254 76 190 119 q 404 33 318 33 z "},"Ȭ":{"ha":808,"x_min":68,"x_max":740,"o":"m 404 -12 q 226 38 301 -12 q 109 205 151 89 q 68 514 68 320 q 109 823 68 708 q 226 990 151 939 q 404 1040 301 1040 q 582 990 507 1040 q 699 823 658 939 q 740 514 740 708 q 699 205 740 320 q 582 38 658 89 q 404 -12 507 -12 m 404 33 q 555 76 490 33 q 655 223 619 119 q 690 511 690 327 q 655 803 690 698 q 555 951 619 908 q 404 994 490 994 q 254 952 318 994 q 154 805 190 909 q 118 517 118 701 q 154 225 118 330 q 254 76 190 119 q 404 33 318 33 z "},"Œ":{"ha":1151,"x_min":68,"x_max":1128,"o":"m 506 -7 q 267 46 365 -7 q 119 214 169 99 q 68 514 68 328 q 115 810 68 694 q 256 982 163 926 q 486 1038 349 1038 q 583 1033 544 1038 q 653 1028 623 1028 l 1121 1028 l 1121 982 l 672 982 l 672 46 l 1128 46 l 1128 0 l 657 0 q 615 -2 636 0 q 568 -5 594 -3 q 506 -7 542 -7 m 504 39 q 566 40 537 39 q 625 46 596 42 l 625 982 q 557 990 591 988 q 489 992 522 992 q 280 942 363 992 q 158 788 198 893 q 118 514 118 682 q 161 238 118 342 q 291 86 205 133 q 504 39 376 39 m 667 506 l 667 551 l 1058 551 l 1058 506 l 667 506 z "},"P":{"ha":732,"x_min":114,"x_max":668,"o":"m 114 0 l 114 1019 q 209 1032 159 1027 q 313 1038 260 1038 q 579 955 490 1038 q 668 697 668 872 q 575 446 668 532 q 283 360 483 360 q 222 361 251 360 q 161 365 192 363 l 161 0 l 114 0 m 288 406 q 538 477 458 406 q 618 694 618 548 q 543 921 618 851 q 313 992 469 992 q 235 989 273 992 q 161 981 198 986 l 161 413 q 224 407 192 408 q 288 406 256 406 z "},"Þ":{"ha":739,"x_min":114,"x_max":668,"o":"m 114 0 l 114 1028 l 161 1028 l 161 856 q 229 863 188 860 q 313 867 270 867 q 579 784 490 867 q 668 526 668 701 q 575 275 668 361 q 283 189 483 189 q 222 190 251 189 q 161 194 192 192 l 161 0 l 114 0 m 288 235 q 538 306 458 235 q 618 524 618 377 q 543 750 618 680 q 313 821 469 821 q 235 818 273 821 q 161 810 198 815 l 161 242 q 224 236 192 238 q 288 235 256 235 z "},"Q":{"ha":808,"x_min":68,"x_max":740,"o":"m 717 -125 q 458 -76 567 -106 q 273 1 348 -47 q 153 117 198 48 q 88 284 108 187 q 68 514 68 382 q 109 823 68 708 q 226 990 151 939 q 404 1040 301 1040 q 582 990 507 1040 q 699 823 658 939 q 740 514 740 708 q 705 226 740 342 q 598 50 669 110 q 417 -10 526 -10 q 387 -9 403 -10 q 356 -6 372 -8 l 342 15 q 460 -31 395 -12 q 592 -61 524 -50 q 725 -79 660 -73 l 717 -125 m 404 33 q 555 76 490 33 q 655 223 619 119 q 690 511 690 327 q 655 803 690 698 q 555 951 619 908 q 404 994 490 994 q 254 952 318 994 q 154 805 190 909 q 118 517 118 701 q 154 225 118 330 q 254 76 190 119 q 404 33 318 33 z "},"R":{"ha":779,"x_min":114,"x_max":750,"o":"m 114 0 l 114 1019 q 178 1028 145 1024 q 247 1035 211 1033 q 325 1038 283 1038 q 582 965 498 1038 q 667 749 667 892 q 624 585 667 651 q 495 486 581 519 q 282 453 410 453 q 214 454 242 453 q 161 457 186 455 l 161 0 l 114 0 m 690 0 l 344 485 l 401 485 l 750 0 l 690 0 m 278 497 q 539 559 458 497 q 619 749 619 621 q 589 884 619 831 q 493 965 559 938 q 321 992 428 992 q 238 989 275 992 q 161 979 201 985 l 161 501 q 203 499 185 500 q 240 498 222 498 q 278 497 258 497 z "},"Ŕ":{"ha":779,"x_min":114,"x_max":750,"o":"m 114 0 l 114 1019 q 178 1028 145 1024 q 247 1035 211 1033 q 325 1038 283 1038 q 582 965 498 1038 q 667 749 667 892 q 624 585 667 651 q 495 486 581 519 q 282 453 410 453 q 214 454 242 453 q 161 457 186 455 l 161 0 l 114 0 m 690 0 l 344 485 l 401 485 l 750 0 l 690 0 m 278 497 q 539 559 458 497 q 619 749 619 621 q 589 884 619 831 q 493 965 559 938 q 321 992 428 992 q 238 989 275 992 q 161 979 201 985 l 161 501 q 203 499 185 500 q 240 498 222 498 q 278 497 258 497 m 346 1122 l 435 1311 l 485 1311 l 385 1122 l 346 1122 z "},"Ř":{"ha":779,"x_min":114,"x_max":750,"o":"m 114 0 l 114 1019 q 178 1028 145 1024 q 247 1035 211 1033 q 325 1038 283 1038 q 582 965 498 1038 q 667 749 667 892 q 624 585 667 651 q 495 486 581 519 q 282 453 410 453 q 214 454 242 453 q 161 457 186 455 l 161 0 l 114 0 m 690 0 l 344 485 l 401 485 l 750 0 l 690 0 m 278 497 q 539 559 458 497 q 619 749 619 621 q 589 884 619 831 q 493 965 559 938 q 321 992 428 992 q 238 989 275 992 q 161 979 201 985 l 161 501 q 203 499 185 500 q 240 498 222 498 q 278 497 258 497 m 339 1122 l 203 1311 l 251 1311 l 371 1143 l 360 1143 l 479 1311 l 528 1311 l 392 1122 l 339 1122 z "},"Ŗ":{"ha":779,"x_min":114,"x_max":750,"o":"m 114 0 l 114 1019 q 178 1028 145 1024 q 247 1035 211 1033 q 325 1038 283 1038 q 582 965 498 1038 q 667 749 667 892 q 624 585 667 651 q 495 486 581 519 q 282 453 410 453 q 214 454 242 453 q 161 457 186 455 l 161 0 l 114 0 m 690 0 l 344 485 l 401 485 l 750 0 l 690 0 m 278 497 q 539 559 458 497 q 619 749 619 621 q 589 884 619 831 q 493 965 559 938 q 321 992 428 992 q 238 989 275 992 q 161 979 201 985 l 161 501 q 203 499 185 500 q 240 498 222 498 q 278 497 258 497 m 396 -311 q 415 -246 410 -274 q 419 -193 419 -218 l 422 -215 l 414 -215 q 383 -203 395 -215 q 371 -171 371 -190 q 382 -140 371 -152 q 411 -128 394 -128 q 444 -142 432 -128 q 457 -187 457 -157 q 450 -245 457 -212 q 426 -311 442 -278 l 396 -311 z "},"Ȑ":{"ha":779,"x_min":114,"x_max":750,"o":"m 114 0 l 114 1019 q 178 1028 145 1024 q 247 1035 211 1033 q 325 1038 283 1038 q 582 965 498 1038 q 667 749 667 892 q 624 585 667 651 q 495 486 581 519 q 282 453 410 453 q 214 454 242 453 q 161 457 186 455 l 161 0 l 114 0 m 690 0 l 344 485 l 401 485 l 750 0 l 690 0 m 278 497 q 539 559 458 497 q 619 749 619 621 q 589 884 619 831 q 493 965 559 938 q 321 992 428 992 q 238 989 275 992 q 161 979 201 985 l 161 501 q 203 499 185 500 q 240 498 222 498 q 278 497 258 497 m 435 1122 l 368 1311 l 413 1311 l 472 1122 l 435 1122 m 258 1122 l 192 1311 l 236 1311 l 296 1122 l 258 1122 z "},"Ṛ":{"ha":779,"x_min":114,"x_max":750,"o":"m 114 0 l 114 1019 q 178 1028 145 1024 q 247 1035 211 1033 q 325 1038 283 1038 q 582 965 498 1038 q 667 749 667 892 q 624 585 667 651 q 495 486 581 519 q 282 453 410 453 q 214 454 242 453 q 161 457 186 455 l 161 0 l 114 0 m 690 0 l 344 485 l 401 485 l 750 0 l 690 0 m 278 497 q 539 559 458 497 q 619 749 619 621 q 589 884 619 831 q 493 965 559 938 q 321 992 428 992 q 238 989 275 992 q 161 979 201 985 l 161 501 q 203 499 185 500 q 240 498 222 498 q 278 497 258 497 m 414 -215 q 383 -203 395 -215 q 371 -172 371 -192 q 383 -140 371 -152 q 414 -128 395 -128 q 445 -140 433 -128 q 457 -172 457 -152 q 445 -203 457 -192 q 414 -215 433 -215 z "},"Ȓ":{"ha":779,"x_min":114,"x_max":750,"o":"m 114 0 l 114 1019 q 178 1028 145 1024 q 247 1035 211 1033 q 325 1038 283 1038 q 582 965 498 1038 q 667 749 667 892 q 624 585 667 651 q 495 486 581 519 q 282 453 410 453 q 214 454 242 453 q 161 457 186 455 l 161 0 l 114 0 m 690 0 l 344 485 l 401 485 l 750 0 l 690 0 m 278 497 q 539 559 458 497 q 619 749 619 621 q 589 884 619 831 q 493 965 559 938 q 321 992 428 992 q 238 989 275 992 q 161 979 201 985 l 161 501 q 203 499 185 500 q 240 498 222 498 q 278 497 258 497 m 197 1142 q 221 1232 201 1196 q 277 1285 241 1267 q 364 1303 313 1303 q 451 1285 415 1303 q 509 1231 488 1267 q 533 1142 530 1195 l 494 1142 q 457 1234 488 1206 q 364 1263 426 1263 q 272 1234 301 1263 q 236 1142 242 1206 l 197 1142 z "},"Ṟ":{"ha":779,"x_min":114,"x_max":750,"o":"m 114 0 l 114 1019 q 178 1028 145 1024 q 247 1035 211 1033 q 325 1038 283 1038 q 582 965 498 1038 q 667 749 667 892 q 624 585 667 651 q 495 486 581 519 q 282 453 410 453 q 214 454 242 453 q 161 457 186 455 l 161 0 l 114 0 m 690 0 l 344 485 l 401 485 l 750 0 l 690 0 m 278 497 q 539 559 458 497 q 619 749 619 621 q 589 884 619 831 q 493 965 559 938 q 321 992 428 992 q 238 989 275 992 q 161 979 201 985 l 161 501 q 203 499 185 500 q 240 498 222 498 q 278 497 258 497 m 247 -192 l 247 -151 l 581 -151 l 581 -192 l 247 -192 z "},"S":{"ha":601,"x_min":47,"x_max":554,"o":"m 253 -12 q 158 -4 209 -12 q 57 22 106 5 l 57 69 q 127 49 93 57 q 193 37 161 41 q 257 33 226 33 q 441 90 378 33 q 504 258 504 146 q 457 406 504 354 q 303 494 410 457 l 267 507 q 103 609 160 544 q 47 778 47 673 q 124 970 47 901 q 346 1040 200 1040 q 434 1034 387 1040 q 517 1015 481 1028 l 517 968 q 430 989 472 983 q 343 994 387 994 q 206 970 260 994 q 124 897 151 945 q 97 781 97 849 q 142 639 97 689 q 292 551 188 588 l 328 539 q 452 476 402 513 q 528 385 503 438 q 554 261 554 333 q 519 112 554 173 q 417 19 484 51 q 253 -12 349 -12 z "},"Ś":{"ha":601,"x_min":47,"x_max":554,"o":"m 253 -12 q 158 -4 209 -12 q 57 22 106 5 l 57 69 q 127 49 93 57 q 193 37 161 41 q 257 33 226 33 q 441 90 378 33 q 504 258 504 146 q 457 406 504 354 q 303 494 410 457 l 267 507 q 103 609 160 544 q 47 778 47 673 q 124 970 47 901 q 346 1040 200 1040 q 434 1034 387 1040 q 517 1015 481 1028 l 517 968 q 430 989 472 983 q 343 994 387 994 q 206 970 260 994 q 124 897 151 945 q 97 781 97 849 q 142 639 97 689 q 292 551 188 588 l 328 539 q 452 476 402 513 q 528 385 503 438 q 554 261 554 333 q 519 112 554 173 q 417 19 484 51 q 253 -12 349 -12 m 286 1122 l 375 1311 l 425 1311 l 325 1122 l 286 1122 z "},"Ṥ":{"ha":601,"x_min":47,"x_max":554,"o":"m 253 -12 q 158 -4 209 -12 q 57 22 106 5 l 57 69 q 127 49 93 57 q 193 37 161 41 q 257 33 226 33 q 441 90 378 33 q 504 258 504 146 q 457 406 504 354 q 303 494 410 457 l 267 507 q 103 609 160 544 q 47 778 47 673 q 124 970 47 901 q 346 1040 200 1040 q 434 1034 387 1040 q 517 1015 481 1028 l 517 968 q 430 989 472 983 q 343 994 387 994 q 206 970 260 994 q 124 897 151 945 q 97 781 97 849 q 142 639 97 689 q 292 551 188 588 l 328 539 q 452 476 402 513 q 528 385 503 438 q 554 261 554 333 q 519 112 554 173 q 417 19 484 51 q 253 -12 349 -12 m 231 1283 q 200 1295 213 1283 q 188 1326 188 1307 q 200 1359 188 1347 q 231 1371 213 1371 q 262 1359 250 1371 q 274 1326 274 1347 q 262 1295 274 1307 q 231 1283 250 1283 m 286 1122 l 375 1311 l 425 1311 l 325 1122 l 286 1122 z "},"Š":{"ha":601,"x_min":47,"x_max":554,"o":"m 253 -12 q 158 -4 209 -12 q 57 22 106 5 l 57 69 q 127 49 93 57 q 193 37 161 41 q 257 33 226 33 q 441 90 378 33 q 504 258 504 146 q 457 406 504 354 q 303 494 410 457 l 267 507 q 103 609 160 544 q 47 778 47 673 q 124 970 47 901 q 346 1040 200 1040 q 434 1034 387 1040 q 517 1015 481 1028 l 517 968 q 430 989 472 983 q 343 994 387 994 q 206 970 260 994 q 124 897 151 945 q 97 781 97 849 q 142 639 97 689 q 292 551 188 588 l 328 539 q 452 476 402 513 q 528 385 503 438 q 554 261 554 333 q 519 112 554 173 q 417 19 484 51 q 253 -12 349 -12 m 279 1122 l 143 1311 l 192 1311 l 311 1143 l 300 1143 l 419 1311 l 468 1311 l 332 1122 l 279 1122 z "},"Ṧ":{"ha":601,"x_min":47,"x_max":554,"o":"m 253 -12 q 158 -4 209 -12 q 57 22 106 5 l 57 69 q 127 49 93 57 q 193 37 161 41 q 257 33 226 33 q 441 90 378 33 q 504 258 504 146 q 457 406 504 354 q 303 494 410 457 l 267 507 q 103 609 160 544 q 47 778 47 673 q 124 970 47 901 q 346 1040 200 1040 q 434 1034 387 1040 q 517 1015 481 1028 l 517 968 q 430 989 472 983 q 343 994 387 994 q 206 970 260 994 q 124 897 151 945 q 97 781 97 849 q 142 639 97 689 q 292 551 188 588 l 328 539 q 452 476 402 513 q 528 385 503 438 q 554 261 554 333 q 519 112 554 173 q 417 19 484 51 q 253 -12 349 -12 m 306 1311 q 275 1323 287 1311 q 263 1354 263 1335 q 275 1386 263 1374 q 306 1399 287 1399 q 336 1386 324 1399 q 349 1354 349 1374 q 336 1323 349 1335 q 306 1311 324 1311 m 279 1122 l 143 1311 l 192 1311 l 311 1143 l 300 1143 l 419 1311 l 468 1311 l 332 1122 l 279 1122 z "},"Ş":{"ha":601,"x_min":47,"x_max":554,"o":"m 253 -12 q 158 -4 209 -12 q 57 22 106 5 l 57 69 q 127 49 93 57 q 193 37 161 41 q 257 33 226 33 q 441 90 378 33 q 504 258 504 146 q 457 406 504 354 q 303 494 410 457 l 267 507 q 103 609 160 544 q 47 778 47 673 q 124 970 47 901 q 346 1040 200 1040 q 434 1034 387 1040 q 517 1015 481 1028 l 517 968 q 430 989 472 983 q 343 994 387 994 q 206 970 260 994 q 124 897 151 945 q 97 781 97 849 q 142 639 97 689 q 292 551 188 588 l 328 539 q 452 476 402 513 q 528 385 503 438 q 554 261 554 333 q 519 112 554 173 q 417 19 484 51 q 253 -12 349 -12 m 322 -278 q 262 -271 293 -278 q 203 -251 231 -265 l 203 -212 q 267 -235 240 -229 q 322 -242 295 -242 q 383 -226 360 -242 q 406 -178 406 -211 q 383 -129 406 -144 q 321 -114 360 -114 l 294 -114 l 294 14 l 333 14 l 333 -99 l 322 -78 q 410 -103 376 -78 q 444 -178 444 -128 q 410 -252 444 -226 q 322 -278 376 -278 z "},"Ŝ":{"ha":601,"x_min":47,"x_max":554,"o":"m 253 -12 q 158 -4 209 -12 q 57 22 106 5 l 57 69 q 127 49 93 57 q 193 37 161 41 q 257 33 226 33 q 441 90 378 33 q 504 258 504 146 q 457 406 504 354 q 303 494 410 457 l 267 507 q 103 609 160 544 q 47 778 47 673 q 124 970 47 901 q 346 1040 200 1040 q 434 1034 387 1040 q 517 1015 481 1028 l 517 968 q 430 989 472 983 q 343 994 387 994 q 206 970 260 994 q 124 897 151 945 q 97 781 97 849 q 142 639 97 689 q 292 551 188 588 l 328 539 q 452 476 402 513 q 528 385 503 438 q 554 261 554 333 q 519 112 554 173 q 417 19 484 51 q 253 -12 349 -12 m 143 1122 l 279 1311 l 332 1311 l 468 1122 l 419 1122 l 300 1290 l 311 1290 l 192 1122 l 143 1122 z "},"Ș":{"ha":601,"x_min":47,"x_max":554,"o":"m 253 -12 q 158 -4 209 -12 q 57 22 106 5 l 57 69 q 127 49 93 57 q 193 37 161 41 q 257 33 226 33 q 441 90 378 33 q 504 258 504 146 q 457 406 504 354 q 303 494 410 457 l 267 507 q 103 609 160 544 q 47 778 47 673 q 124 970 47 901 q 346 1040 200 1040 q 434 1034 387 1040 q 517 1015 481 1028 l 517 968 q 430 989 472 983 q 343 994 387 994 q 206 970 260 994 q 124 897 151 945 q 97 781 97 849 q 142 639 97 689 q 292 551 188 588 l 328 539 q 452 476 402 513 q 528 385 503 438 q 554 261 554 333 q 519 112 554 173 q 417 19 484 51 q 253 -12 349 -12 m 288 -311 q 307 -246 302 -274 q 311 -193 311 -218 l 314 -215 l 306 -215 q 275 -203 287 -215 q 263 -171 263 -190 q 274 -140 263 -152 q 303 -128 285 -128 q 336 -142 324 -128 q 349 -187 349 -157 q 341 -245 349 -212 q 318 -311 334 -278 l 288 -311 z "},"Ṡ":{"ha":601,"x_min":47,"x_max":554,"o":"m 253 -12 q 158 -4 209 -12 q 57 22 106 5 l 57 69 q 127 49 93 57 q 193 37 161 41 q 257 33 226 33 q 441 90 378 33 q 504 258 504 146 q 457 406 504 354 q 303 494 410 457 l 267 507 q 103 609 160 544 q 47 778 47 673 q 124 970 47 901 q 346 1040 200 1040 q 434 1034 387 1040 q 517 1015 481 1028 l 517 968 q 430 989 472 983 q 343 994 387 994 q 206 970 260 994 q 124 897 151 945 q 97 781 97 849 q 142 639 97 689 q 292 551 188 588 l 328 539 q 452 476 402 513 q 528 385 503 438 q 554 261 554 333 q 519 112 554 173 q 417 19 484 51 q 253 -12 349 -12 m 306 1174 q 275 1185 287 1174 q 263 1217 263 1197 q 275 1249 263 1237 q 306 1261 287 1261 q 336 1249 324 1261 q 349 1217 349 1237 q 336 1185 349 1197 q 306 1174 324 1174 z "},"Ṣ":{"ha":601,"x_min":47,"x_max":554,"o":"m 253 -12 q 158 -4 209 -12 q 57 22 106 5 l 57 69 q 127 49 93 57 q 193 37 161 41 q 257 33 226 33 q 441 90 378 33 q 504 258 504 146 q 457 406 504 354 q 303 494 410 457 l 267 507 q 103 609 160 544 q 47 778 47 673 q 124 970 47 901 q 346 1040 200 1040 q 434 1034 387 1040 q 517 1015 481 1028 l 517 968 q 430 989 472 983 q 343 994 387 994 q 206 970 260 994 q 124 897 151 945 q 97 781 97 849 q 142 639 97 689 q 292 551 188 588 l 328 539 q 452 476 402 513 q 528 385 503 438 q 554 261 554 333 q 519 112 554 173 q 417 19 484 51 q 253 -12 349 -12 m 306 -215 q 275 -203 287 -215 q 263 -172 263 -192 q 275 -140 263 -152 q 306 -128 287 -128 q 336 -140 324 -128 q 349 -172 349 -152 q 336 -203 349 -192 q 306 -215 324 -215 z "},"Ṩ":{"ha":601,"x_min":47,"x_max":554,"o":"m 253 -12 q 158 -4 209 -12 q 57 22 106 5 l 57 69 q 127 49 93 57 q 193 37 161 41 q 257 33 226 33 q 441 90 378 33 q 504 258 504 146 q 457 406 504 354 q 303 494 410 457 l 267 507 q 103 609 160 544 q 47 778 47 673 q 124 970 47 901 q 346 1040 200 1040 q 434 1034 387 1040 q 517 1015 481 1028 l 517 968 q 430 989 472 983 q 343 994 387 994 q 206 970 260 994 q 124 897 151 945 q 97 781 97 849 q 142 639 97 689 q 292 551 188 588 l 328 539 q 452 476 402 513 q 528 385 503 438 q 554 261 554 333 q 519 112 554 173 q 417 19 484 51 q 253 -12 349 -12 m 306 -215 q 275 -203 287 -215 q 263 -172 263 -192 q 275 -140 263 -152 q 306 -128 287 -128 q 336 -140 324 -128 q 349 -172 349 -152 q 336 -203 349 -192 q 306 -215 324 -215 m 306 1174 q 275 1185 287 1174 q 263 1217 263 1197 q 275 1249 263 1237 q 306 1261 287 1261 q 336 1249 324 1261 q 349 1217 349 1237 q 336 1185 349 1197 q 306 1174 324 1174 z "},"ẞ":{"ha":812,"x_min":100,"x_max":765,"o":"m 687 947 l 687 922 l 387 533 l 381 543 q 421 547 403 546 q 460 547 438 547 q 616 518 547 547 q 725 428 685 490 q 765 270 765 367 q 728 121 765 185 q 625 23 692 58 q 462 -12 557 -12 q 366 -4 417 -12 q 267 22 315 5 l 267 69 q 336 49 303 57 q 401 37 369 41 q 460 33 432 33 q 648 96 581 33 q 715 269 715 158 q 649 443 715 384 q 454 501 583 501 q 388 500 418 501 q 323 492 357 498 l 323 520 l 649 944 l 648 920 q 545 980 606 963 q 419 997 484 997 q 216 924 285 997 q 147 740 147 851 l 147 0 l 100 0 l 100 740 q 134 890 100 822 q 240 999 168 958 q 424 1040 311 1040 q 567 1017 500 1040 q 687 947 634 994 z "},"Ə":{"ha":810,"x_min":61,"x_max":742,"o":"m 397 -12 q 216 39 292 -12 q 101 206 141 90 q 61 514 61 322 l 61 542 l 711 542 l 711 496 l 94 496 l 111 514 q 145 224 111 328 q 243 76 179 119 q 397 33 307 33 q 553 76 488 33 q 656 223 619 119 q 692 513 692 328 q 653 805 692 700 q 535 952 615 910 q 332 994 455 994 q 223 988 281 994 q 108 965 165 982 l 108 1013 q 222 1034 166 1027 q 336 1040 277 1040 q 557 990 467 1040 q 695 824 648 940 q 742 514 742 709 q 700 205 742 320 q 580 38 658 89 q 397 -12 503 -12 z "},"T":{"ha":681,"x_min":6,"x_max":675,"o":"m 317 0 l 317 982 l 6 982 l 6 1028 l 675 1028 l 675 982 l 364 982 l 364 0 l 317 0 z "},"Ŧ":{"ha":681,"x_min":6,"x_max":675,"o":"m 110 535 l 110 576 l 571 576 l 571 535 l 110 535 m 317 0 l 317 982 l 6 982 l 6 1028 l 675 1028 l 675 982 l 364 982 l 364 0 l 317 0 z "},"Ť":{"ha":681,"x_min":6,"x_max":675,"o":"m 317 0 l 317 982 l 6 982 l 6 1028 l 675 1028 l 675 982 l 364 982 l 364 0 l 317 0 m 314 1122 l 178 1311 l 226 1311 l 346 1143 l 335 1143 l 454 1311 l 503 1311 l 367 1122 l 314 1122 z "},"Ţ":{"ha":681,"x_min":6,"x_max":675,"o":"m 317 0 l 317 982 l 6 982 l 6 1028 l 675 1028 l 675 982 l 364 982 l 364 0 l 317 0 m 357 -278 q 297 -271 328 -278 q 238 -251 266 -265 l 238 -212 q 302 -235 274 -229 q 357 -242 330 -242 q 417 -226 394 -242 q 440 -178 440 -211 q 417 -129 440 -144 q 356 -114 394 -114 l 329 -114 l 329 14 l 368 14 l 368 -99 l 357 -78 q 445 -103 410 -78 q 479 -178 479 -128 q 445 -252 479 -226 q 357 -278 410 -278 z "},"Ț":{"ha":681,"x_min":6,"x_max":675,"o":"m 317 0 l 317 982 l 6 982 l 6 1028 l 675 1028 l 675 982 l 364 982 l 364 0 l 317 0 m 322 -311 q 341 -246 337 -274 q 346 -193 346 -218 l 349 -215 l 340 -215 q 309 -203 322 -215 q 297 -171 297 -190 q 309 -140 297 -152 q 338 -128 320 -128 q 371 -142 358 -128 q 383 -187 383 -157 q 376 -245 383 -212 q 353 -311 369 -278 l 322 -311 z "},"Ṭ":{"ha":681,"x_min":6,"x_max":675,"o":"m 317 0 l 317 982 l 6 982 l 6 1028 l 675 1028 l 675 982 l 364 982 l 364 0 l 317 0 m 340 -215 q 309 -203 322 -215 q 297 -172 297 -192 q 309 -140 297 -152 q 340 -128 322 -128 q 371 -140 359 -128 q 383 -172 383 -152 q 371 -203 383 -192 q 340 -215 359 -215 z "},"Ṯ":{"ha":681,"x_min":6,"x_max":675,"o":"m 317 0 l 317 982 l 6 982 l 6 1028 l 675 1028 l 675 982 l 364 982 l 364 0 l 317 0 m 174 -192 l 174 -151 l 507 -151 l 507 -192 l 174 -192 z "},"U":{"ha":832,"x_min":108,"x_max":724,"o":"m 417 -12 q 240 26 308 -12 q 140 143 172 65 q 108 342 108 222 l 108 1028 l 156 1028 l 156 335 q 216 108 156 183 q 417 33 276 33 q 618 108 558 33 q 678 335 678 183 l 678 1028 l 724 1028 l 724 342 q 692 143 724 222 q 593 26 660 65 q 417 -12 525 -12 z "},"Ú":{"ha":832,"x_min":108,"x_max":724,"o":"m 417 -12 q 240 26 308 -12 q 140 143 172 65 q 108 342 108 222 l 108 1028 l 156 1028 l 156 335 q 216 108 156 183 q 417 33 276 33 q 618 108 558 33 q 678 335 678 183 l 678 1028 l 724 1028 l 724 342 q 692 143 724 222 q 593 26 660 65 q 417 -12 525 -12 m 397 1122 l 486 1311 l 536 1311 l 436 1122 l 397 1122 z "},"Ŭ":{"ha":832,"x_min":108,"x_max":724,"o":"m 417 -12 q 240 26 308 -12 q 140 143 172 65 q 108 342 108 222 l 108 1028 l 156 1028 l 156 335 q 216 108 156 183 q 417 33 276 33 q 618 108 558 33 q 678 335 678 183 l 678 1028 l 724 1028 l 724 342 q 692 143 724 222 q 593 26 660 65 q 417 -12 525 -12 m 418 1131 q 331 1149 367 1131 q 273 1202 294 1167 q 249 1292 252 1238 l 288 1292 q 325 1199 295 1227 q 418 1171 356 1171 q 511 1199 481 1171 q 546 1292 541 1227 l 585 1292 q 561 1202 581 1238 q 505 1148 541 1166 q 418 1131 469 1131 z "},"Û":{"ha":832,"x_min":108,"x_max":724,"o":"m 417 -12 q 240 26 308 -12 q 140 143 172 65 q 108 342 108 222 l 108 1028 l 156 1028 l 156 335 q 216 108 156 183 q 417 33 276 33 q 618 108 558 33 q 678 335 678 183 l 678 1028 l 724 1028 l 724 342 q 692 143 724 222 q 593 26 660 65 q 417 -12 525 -12 m 254 1122 l 390 1311 l 443 1311 l 579 1122 l 531 1122 l 411 1290 l 422 1290 l 303 1122 l 254 1122 z "},"Ȕ":{"ha":832,"x_min":108,"x_max":724,"o":"m 417 -12 q 240 26 308 -12 q 140 143 172 65 q 108 342 108 222 l 108 1028 l 156 1028 l 156 335 q 216 108 156 183 q 417 33 276 33 q 618 108 558 33 q 678 335 678 183 l 678 1028 l 724 1028 l 724 342 q 692 143 724 222 q 593 26 660 65 q 417 -12 525 -12 m 486 1122 l 419 1311 l 464 1311 l 524 1122 l 486 1122 m 310 1122 l 243 1311 l 288 1311 l 347 1122 l 310 1122 z "},"Ü":{"ha":832,"x_min":108,"x_max":724,"o":"m 417 -12 q 240 26 308 -12 q 140 143 172 65 q 108 342 108 222 l 108 1028 l 156 1028 l 156 335 q 216 108 156 183 q 417 33 276 33 q 618 108 558 33 q 678 335 678 183 l 678 1028 l 724 1028 l 724 342 q 692 143 724 222 q 593 26 660 65 q 417 -12 525 -12 m 542 1174 q 511 1185 523 1174 q 499 1217 499 1197 q 511 1249 499 1237 q 542 1261 523 1261 q 573 1249 560 1261 q 585 1217 585 1237 q 573 1185 585 1197 q 542 1174 560 1174 m 292 1174 q 261 1185 273 1174 q 249 1217 249 1197 q 261 1249 249 1237 q 292 1261 273 1261 q 323 1249 310 1261 q 335 1217 335 1237 q 323 1185 335 1197 q 292 1174 310 1174 z "},"Ụ":{"ha":832,"x_min":108,"x_max":724,"o":"m 417 -12 q 240 26 308 -12 q 140 143 172 65 q 108 342 108 222 l 108 1028 l 156 1028 l 156 335 q 216 108 156 183 q 417 33 276 33 q 618 108 558 33 q 678 335 678 183 l 678 1028 l 724 1028 l 724 342 q 692 143 724 222 q 593 26 660 65 q 417 -12 525 -12 m 417 -215 q 386 -203 398 -215 q 374 -172 374 -192 q 386 -140 374 -152 q 417 -128 398 -128 q 448 -140 435 -128 q 460 -172 460 -152 q 448 -203 460 -192 q 417 -215 435 -215 z "},"Ù":{"ha":832,"x_min":108,"x_max":724,"o":"m 417 -12 q 240 26 308 -12 q 140 143 172 65 q 108 342 108 222 l 108 1028 l 156 1028 l 156 335 q 216 108 156 183 q 417 33 276 33 q 618 108 558 33 q 678 335 678 183 l 678 1028 l 724 1028 l 724 342 q 692 143 724 222 q 593 26 660 65 q 417 -12 525 -12 m 397 1122 l 297 1311 l 347 1311 l 436 1122 l 397 1122 z "},"Ủ":{"ha":832,"x_min":108,"x_max":724,"o":"m 417 -12 q 240 26 308 -12 q 140 143 172 65 q 108 342 108 222 l 108 1028 l 156 1028 l 156 335 q 216 108 156 183 q 417 33 276 33 q 618 108 558 33 q 678 335 678 183 l 678 1028 l 724 1028 l 724 342 q 692 143 724 222 q 593 26 660 65 q 417 -12 525 -12 m 396 1122 q 417 1169 397 1154 q 458 1193 437 1183 q 488 1211 475 1201 q 501 1238 501 1220 q 486 1264 501 1253 q 424 1274 471 1274 q 363 1267 394 1274 q 300 1247 331 1261 l 300 1286 q 357 1305 324 1298 q 424 1311 390 1311 q 514 1290 484 1311 q 543 1239 543 1269 q 525 1194 543 1208 q 485 1169 506 1180 q 454 1150 468 1160 q 438 1122 440 1140 l 396 1122 z "},"Ư":{"ha":832,"x_min":108,"x_max":869,"o":"m 417 -12 q 240 26 308 -12 q 140 143 172 65 q 108 342 108 222 l 108 1028 l 156 1028 l 156 335 q 216 108 156 183 q 417 33 276 33 q 618 108 558 33 q 678 335 678 183 l 678 1028 l 700 1028 q 788 1053 752 1028 q 824 1135 824 1078 q 819 1187 824 1164 q 807 1233 815 1210 l 853 1233 q 865 1187 861 1210 q 869 1133 869 1165 q 828 1025 869 1063 q 724 985 786 988 l 724 342 q 692 143 724 222 q 593 26 660 65 q 417 -12 525 -12 z "},"Ứ":{"ha":832,"x_min":108,"x_max":869,"o":"m 417 -12 q 240 26 308 -12 q 140 143 172 65 q 108 342 108 222 l 108 1028 l 156 1028 l 156 335 q 216 108 156 183 q 417 33 276 33 q 618 108 558 33 q 678 335 678 183 l 678 1028 l 700 1028 q 788 1053 752 1028 q 824 1135 824 1078 q 819 1187 824 1164 q 807 1233 815 1210 l 853 1233 q 865 1187 861 1210 q 869 1133 869 1165 q 828 1025 869 1063 q 724 985 786 988 l 724 342 q 692 143 724 222 q 593 26 660 65 q 417 -12 525 -12 m 397 1122 l 486 1311 l 536 1311 l 436 1122 l 397 1122 z "},"Ự":{"ha":832,"x_min":108,"x_max":869,"o":"m 417 -12 q 240 26 308 -12 q 140 143 172 65 q 108 342 108 222 l 108 1028 l 156 1028 l 156 335 q 216 108 156 183 q 417 33 276 33 q 618 108 558 33 q 678 335 678 183 l 678 1028 l 700 1028 q 788 1053 752 1028 q 824 1135 824 1078 q 819 1187 824 1164 q 807 1233 815 1210 l 853 1233 q 865 1187 861 1210 q 869 1133 869 1165 q 828 1025 869 1063 q 724 985 786 988 l 724 342 q 692 143 724 222 q 593 26 660 65 q 417 -12 525 -12 m 417 -215 q 386 -203 398 -215 q 374 -172 374 -192 q 386 -140 374 -152 q 417 -128 398 -128 q 448 -140 435 -128 q 460 -172 460 -152 q 448 -203 460 -192 q 417 -215 435 -215 z "},"Ừ":{"ha":832,"x_min":108,"x_max":869,"o":"m 417 -12 q 240 26 308 -12 q 140 143 172 65 q 108 342 108 222 l 108 1028 l 156 1028 l 156 335 q 216 108 156 183 q 417 33 276 33 q 618 108 558 33 q 678 335 678 183 l 678 1028 l 700 1028 q 788 1053 752 1028 q 824 1135 824 1078 q 819 1187 824 1164 q 807 1233 815 1210 l 853 1233 q 865 1187 861 1210 q 869 1133 869 1165 q 828 1025 869 1063 q 724 985 786 988 l 724 342 q 692 143 724 222 q 593 26 660 65 q 417 -12 525 -12 m 397 1122 l 297 1311 l 347 1311 l 436 1122 l 397 1122 z "},"Ử":{"ha":832,"x_min":108,"x_max":869,"o":"m 417 -12 q 240 26 308 -12 q 140 143 172 65 q 108 342 108 222 l 108 1028 l 156 1028 l 156 335 q 216 108 156 183 q 417 33 276 33 q 618 108 558 33 q 678 335 678 183 l 678 1028 l 700 1028 q 788 1053 752 1028 q 824 1135 824 1078 q 819 1187 824 1164 q 807 1233 815 1210 l 853 1233 q 865 1187 861 1210 q 869 1133 869 1165 q 828 1025 869 1063 q 724 985 786 988 l 724 342 q 692 143 724 222 q 593 26 660 65 q 417 -12 525 -12 m 396 1122 q 417 1169 397 1154 q 458 1193 437 1183 q 488 1211 475 1201 q 501 1238 501 1220 q 486 1264 501 1253 q 424 1274 471 1274 q 363 1267 394 1274 q 300 1247 331 1261 l 300 1286 q 357 1305 324 1298 q 424 1311 390 1311 q 514 1290 484 1311 q 543 1239 543 1269 q 525 1194 543 1208 q 485 1169 506 1180 q 454 1150 468 1160 q 438 1122 440 1140 l 396 1122 z "},"Ữ":{"ha":832,"x_min":108,"x_max":869,"o":"m 417 -12 q 240 26 308 -12 q 140 143 172 65 q 108 342 108 222 l 108 1028 l 156 1028 l 156 335 q 216 108 156 183 q 417 33 276 33 q 618 108 558 33 q 678 335 678 183 l 678 1028 l 700 1028 q 788 1053 752 1028 q 824 1135 824 1078 q 819 1187 824 1164 q 807 1233 815 1210 l 853 1233 q 865 1187 861 1210 q 869 1133 869 1165 q 828 1025 869 1063 q 724 985 786 988 l 724 342 q 692 143 724 222 q 593 26 660 65 q 417 -12 525 -12 m 506 1178 q 454 1187 478 1178 q 408 1207 430 1196 q 368 1224 388 1217 q 328 1232 348 1232 q 277 1219 299 1232 q 235 1182 255 1207 l 235 1228 q 274 1259 251 1248 q 328 1271 298 1271 q 379 1262 355 1271 q 426 1242 403 1253 q 466 1225 446 1233 q 506 1217 485 1217 q 557 1229 535 1217 q 599 1267 579 1242 l 599 1221 q 560 1190 583 1201 q 506 1178 536 1178 z "},"Ű":{"ha":832,"x_min":108,"x_max":724,"o":"m 417 -12 q 240 26 308 -12 q 140 143 172 65 q 108 342 108 222 l 108 1028 l 156 1028 l 156 335 q 216 108 156 183 q 417 33 276 33 q 618 108 558 33 q 678 335 678 183 l 678 1028 l 724 1028 l 724 342 q 692 143 724 222 q 593 26 660 65 q 417 -12 525 -12 m 486 1122 l 546 1311 l 590 1311 l 524 1122 l 486 1122 m 310 1122 l 369 1311 l 414 1311 l 347 1122 l 310 1122 z "},"Ȗ":{"ha":832,"x_min":108,"x_max":724,"o":"m 417 -12 q 240 26 308 -12 q 140 143 172 65 q 108 342 108 222 l 108 1028 l 156 1028 l 156 335 q 216 108 156 183 q 417 33 276 33 q 618 108 558 33 q 678 335 678 183 l 678 1028 l 724 1028 l 724 342 q 692 143 724 222 q 593 26 660 65 q 417 -12 525 -12 m 249 1142 q 272 1232 252 1196 q 328 1285 292 1267 q 415 1303 365 1303 q 503 1285 466 1303 q 560 1231 540 1267 q 585 1142 581 1195 l 546 1142 q 508 1234 539 1206 q 415 1263 478 1263 q 323 1234 353 1263 q 288 1142 293 1206 l 249 1142 z "},"Ū":{"ha":832,"x_min":108,"x_max":724,"o":"m 417 -12 q 240 26 308 -12 q 140 143 172 65 q 108 342 108 222 l 108 1028 l 156 1028 l 156 335 q 216 108 156 183 q 417 33 276 33 q 618 108 558 33 q 678 335 678 183 l 678 1028 l 724 1028 l 724 342 q 692 143 724 222 q 593 26 660 65 q 417 -12 525 -12 m 250 1197 l 250 1238 l 583 1238 l 583 1197 l 250 1197 z "},"Ṻ":{"ha":832,"x_min":108,"x_max":724,"o":"m 417 -12 q 240 26 308 -12 q 140 143 172 65 q 108 342 108 222 l 108 1028 l 156 1028 l 156 335 q 216 108 156 183 q 417 33 276 33 q 618 108 558 33 q 678 335 678 183 l 678 1028 l 724 1028 l 724 342 q 692 143 724 222 q 593 26 660 65 q 417 -12 525 -12 z "},"Ų":{"ha":832,"x_min":108,"x_max":724,"o":"m 475 -278 q 374 -248 410 -278 q 338 -161 338 -218 q 361 -75 338 -115 q 439 -3 385 -35 l 444 -12 l 417 -12 q 240 26 308 -12 q 140 143 172 65 q 108 342 108 222 l 108 1028 l 156 1028 l 156 335 q 216 108 156 183 q 417 33 276 33 q 618 108 558 33 q 678 335 678 183 l 678 1028 l 724 1028 l 724 342 q 685 128 724 217 q 542 4 647 39 q 439 -45 474 -18 q 390 -102 403 -73 q 376 -158 376 -131 q 401 -221 376 -201 q 474 -242 426 -242 q 520 -235 496 -242 q 576 -214 544 -229 l 576 -251 q 525 -271 551 -265 q 475 -278 500 -278 z "},"Ů":{"ha":832,"x_min":108,"x_max":724,"o":"m 417 -12 q 240 26 308 -12 q 140 143 172 65 q 108 342 108 222 l 108 1028 l 156 1028 l 156 335 q 216 108 156 183 q 417 33 276 33 q 618 108 558 33 q 678 335 678 183 l 678 1028 l 724 1028 l 724 342 q 692 143 724 222 q 593 26 660 65 q 417 -12 525 -12 m 417 1118 q 325 1155 362 1118 q 289 1246 289 1191 q 325 1338 289 1301 q 417 1374 362 1374 q 508 1338 472 1374 q 544 1246 544 1301 q 508 1155 544 1191 q 417 1118 472 1118 m 417 1154 q 482 1179 456 1154 q 507 1246 507 1203 q 482 1313 507 1289 q 417 1338 456 1338 q 352 1313 377 1338 q 326 1246 326 1289 q 352 1179 326 1203 q 417 1154 377 1154 z "},"Ũ":{"ha":832,"x_min":108,"x_max":724,"o":"m 417 -12 q 240 26 308 -12 q 140 143 172 65 q 108 342 108 222 l 108 1028 l 156 1028 l 156 335 q 216 108 156 183 q 417 33 276 33 q 618 108 558 33 q 678 335 678 183 l 678 1028 l 724 1028 l 724 342 q 692 143 724 222 q 593 26 660 65 q 417 -12 525 -12 m 506 1178 q 454 1187 478 1178 q 408 1207 430 1196 q 368 1224 388 1217 q 328 1232 348 1232 q 277 1219 299 1232 q 235 1182 255 1207 l 235 1228 q 274 1259 251 1248 q 328 1271 298 1271 q 379 1262 355 1271 q 426 1242 403 1253 q 466 1225 446 1233 q 506 1217 485 1217 q 557 1229 535 1217 q 599 1267 579 1242 l 599 1221 q 560 1190 583 1201 q 506 1178 536 1178 z "},"Ṹ":{"ha":832,"x_min":108,"x_max":724,"o":"m 417 -12 q 240 26 308 -12 q 140 143 172 65 q 108 342 108 222 l 108 1028 l 156 1028 l 156 335 q 216 108 156 183 q 417 33 276 33 q 618 108 558 33 q 678 335 678 183 l 678 1028 l 724 1028 l 724 342 q 692 143 724 222 q 593 26 660 65 q 417 -12 525 -12 m 394 1308 l 483 1469 l 533 1469 l 433 1308 l 394 1308 m 506 1178 q 454 1187 478 1178 q 408 1207 430 1196 q 368 1224 388 1217 q 328 1232 348 1232 q 277 1219 299 1232 q 235 1182 255 1207 l 235 1228 q 274 1259 251 1248 q 328 1271 298 1271 q 379 1262 355 1271 q 426 1242 403 1253 q 466 1225 446 1233 q 506 1217 485 1217 q 557 1229 535 1217 q 599 1267 579 1242 l 599 1221 q 560 1190 583 1201 q 506 1178 536 1178 z "},"V":{"ha":763,"x_min":7,"x_max":756,"o":"m 349 0 l 7 1028 l 58 1028 l 388 28 l 376 28 l 707 1028 l 756 1028 l 414 0 l 349 0 z "},"W":{"ha":1231,"x_min":39,"x_max":1192,"o":"m 301 0 l 39 1028 l 89 1028 l 340 28 l 329 28 l 583 1028 l 649 1028 l 903 28 l 892 28 l 1144 1028 l 1192 1028 l 929 0 l 864 0 l 611 993 l 621 993 l 367 0 l 301 0 z "},"Ẃ":{"ha":1231,"x_min":39,"x_max":1192,"o":"m 301 0 l 39 1028 l 89 1028 l 340 28 l 329 28 l 583 1028 l 649 1028 l 903 28 l 892 28 l 1144 1028 l 1192 1028 l 929 0 l 864 0 l 611 993 l 621 993 l 367 0 l 301 0 m 597 1122 l 686 1311 l 736 1311 l 636 1122 l 597 1122 z "},"Ŵ":{"ha":1231,"x_min":39,"x_max":1192,"o":"m 301 0 l 39 1028 l 89 1028 l 340 28 l 329 28 l 583 1028 l 649 1028 l 903 28 l 892 28 l 1144 1028 l 1192 1028 l 929 0 l 864 0 l 611 993 l 621 993 l 367 0 l 301 0 m 454 1122 l 590 1311 l 643 1311 l 779 1122 l 731 1122 l 611 1290 l 622 1290 l 503 1122 l 454 1122 z "},"Ẅ":{"ha":1231,"x_min":39,"x_max":1192,"o":"m 301 0 l 39 1028 l 89 1028 l 340 28 l 329 28 l 583 1028 l 649 1028 l 903 28 l 892 28 l 1144 1028 l 1192 1028 l 929 0 l 864 0 l 611 993 l 621 993 l 367 0 l 301 0 m 742 1174 q 711 1185 723 1174 q 699 1217 699 1197 q 711 1249 699 1237 q 742 1261 723 1261 q 773 1249 760 1261 q 785 1217 785 1237 q 773 1185 785 1197 q 742 1174 760 1174 m 492 1174 q 461 1185 473 1174 q 449 1217 449 1197 q 461 1249 449 1237 q 492 1261 473 1261 q 523 1249 510 1261 q 535 1217 535 1237 q 523 1185 535 1197 q 492 1174 510 1174 z "},"Ẁ":{"ha":1231,"x_min":39,"x_max":1192,"o":"m 301 0 l 39 1028 l 89 1028 l 340 28 l 329 28 l 583 1028 l 649 1028 l 903 28 l 892 28 l 1144 1028 l 1192 1028 l 929 0 l 864 0 l 611 993 l 621 993 l 367 0 l 301 0 m 597 1122 l 497 1311 l 547 1311 l 636 1122 l 597 1122 z "},"X":{"ha":747,"x_min":22,"x_max":725,"o":"m 668 0 l 374 475 l 346 519 l 29 1028 l 85 1028 l 374 563 l 401 519 l 725 0 l 668 0 m 22 0 l 346 519 l 374 563 l 663 1028 l 718 1028 l 401 519 l 374 475 l 78 0 l 22 0 z "},"Y":{"ha":681,"x_min":-15,"x_max":690,"o":"m 317 0 l 317 492 l 328 453 l -15 1028 l 39 1028 l 350 503 l 331 503 l 638 1028 l 690 1028 l 353 453 l 364 492 l 364 0 l 317 0 z "},"Ý":{"ha":681,"x_min":-15,"x_max":690,"o":"m 317 0 l 317 492 l 328 453 l -15 1028 l 39 1028 l 350 503 l 331 503 l 638 1028 l 690 1028 l 353 453 l 364 492 l 364 0 l 317 0 m 321 1122 l 410 1311 l 460 1311 l 360 1122 l 321 1122 z "},"Ŷ":{"ha":681,"x_min":-15,"x_max":690,"o":"m 317 0 l 317 492 l 328 453 l -15 1028 l 39 1028 l 350 503 l 331 503 l 638 1028 l 690 1028 l 353 453 l 364 492 l 364 0 l 317 0 m 178 1122 l 314 1311 l 367 1311 l 503 1122 l 454 1122 l 335 1290 l 346 1290 l 226 1122 l 178 1122 z "},"Ÿ":{"ha":681,"x_min":-15,"x_max":690,"o":"m 317 0 l 317 492 l 328 453 l -15 1028 l 39 1028 l 350 503 l 331 503 l 638 1028 l 690 1028 l 353 453 l 364 492 l 364 0 l 317 0 m 465 1174 q 434 1185 447 1174 q 422 1217 422 1197 q 434 1249 422 1237 q 465 1261 447 1261 q 496 1249 484 1261 q 508 1217 508 1237 q 496 1185 508 1197 q 465 1174 484 1174 m 215 1174 q 184 1185 197 1174 q 172 1217 172 1197 q 184 1249 172 1237 q 215 1261 197 1261 q 246 1249 234 1261 q 258 1217 258 1237 q 246 1185 258 1197 q 215 1174 234 1174 z "},"Ẏ":{"ha":681,"x_min":-15,"x_max":690,"o":"m 317 0 l 317 492 l 328 453 l -15 1028 l 39 1028 l 350 503 l 331 503 l 638 1028 l 690 1028 l 353 453 l 364 492 l 364 0 l 317 0 m 340 1174 q 309 1185 322 1174 q 297 1217 297 1197 q 309 1249 297 1237 q 340 1261 322 1261 q 371 1249 359 1261 q 383 1217 383 1237 q 371 1185 383 1197 q 340 1174 359 1174 z "},"Ỵ":{"ha":681,"x_min":-15,"x_max":690,"o":"m 317 0 l 317 492 l 328 453 l -15 1028 l 39 1028 l 350 503 l 331 503 l 638 1028 l 690 1028 l 353 453 l 364 492 l 364 0 l 317 0 m 340 -215 q 309 -203 322 -215 q 297 -172 297 -192 q 309 -140 297 -152 q 340 -128 322 -128 q 371 -140 359 -128 q 383 -172 383 -152 q 371 -203 383 -192 q 340 -215 359 -215 z "},"Ỳ":{"ha":681,"x_min":-15,"x_max":690,"o":"m 317 0 l 317 492 l 328 453 l -15 1028 l 39 1028 l 350 503 l 331 503 l 638 1028 l 690 1028 l 353 453 l 364 492 l 364 0 l 317 0 m 321 1122 l 221 1311 l 271 1311 l 360 1122 l 321 1122 z "},"Ỷ":{"ha":681,"x_min":-15,"x_max":690,"o":"m 317 0 l 317 492 l 328 453 l -15 1028 l 39 1028 l 350 503 l 331 503 l 638 1028 l 690 1028 l 353 453 l 364 492 l 364 0 l 317 0 m 319 1122 q 341 1169 321 1154 q 381 1193 360 1183 q 412 1211 399 1201 q 425 1238 425 1220 q 410 1264 425 1253 q 347 1274 394 1274 q 286 1267 318 1274 q 224 1247 254 1261 l 224 1286 q 281 1305 248 1298 q 347 1311 314 1311 q 437 1290 408 1311 q 467 1239 467 1269 q 448 1194 467 1208 q 409 1169 430 1180 q 377 1150 392 1160 q 361 1122 363 1140 l 319 1122 z "},"Ȳ":{"ha":681,"x_min":-15,"x_max":690,"o":"m 317 0 l 317 492 l 328 453 l -15 1028 l 39 1028 l 350 503 l 331 503 l 638 1028 l 690 1028 l 353 453 l 364 492 l 364 0 l 317 0 m 174 1197 l 174 1238 l 507 1238 l 507 1197 l 174 1197 z "},"Ỹ":{"ha":681,"x_min":-15,"x_max":690,"o":"m 317 0 l 317 492 l 328 453 l -15 1028 l 39 1028 l 350 503 l 331 503 l 638 1028 l 690 1028 l 353 453 l 364 492 l 364 0 l 317 0 m 429 1178 q 378 1187 402 1178 q 331 1207 353 1196 q 291 1224 311 1217 q 251 1232 272 1232 q 200 1219 222 1232 q 158 1182 178 1207 l 158 1228 q 198 1259 174 1248 q 251 1271 222 1271 q 303 1262 278 1271 q 349 1242 327 1253 q 389 1225 369 1233 q 429 1217 409 1217 q 481 1229 458 1217 q 522 1267 503 1242 l 522 1221 q 483 1190 507 1201 q 429 1178 460 1178 z "},"Z":{"ha":660,"x_min":39,"x_max":621,"o":"m 39 0 l 39 28 l 563 1001 l 574 983 l 46 983 l 46 1028 l 614 1028 l 614 1000 l 90 26 l 79 44 l 621 44 l 621 0 l 39 0 z "},"Ź":{"ha":660,"x_min":39,"x_max":621,"o":"m 39 0 l 39 28 l 563 1001 l 574 983 l 46 983 l 46 1028 l 614 1028 l 614 1000 l 90 26 l 79 44 l 621 44 l 621 0 l 39 0 m 311 1122 l 400 1311 l 450 1311 l 350 1122 l 311 1122 z "},"Ž":{"ha":660,"x_min":39,"x_max":621,"o":"m 39 0 l 39 28 l 563 1001 l 574 983 l 46 983 l 46 1028 l 614 1028 l 614 1000 l 90 26 l 79 44 l 621 44 l 621 0 l 39 0 m 304 1122 l 168 1311 l 217 1311 l 336 1143 l 325 1143 l 444 1311 l 493 1311 l 357 1122 l 304 1122 z "},"Ż":{"ha":660,"x_min":39,"x_max":621,"o":"m 39 0 l 39 28 l 563 1001 l 574 983 l 46 983 l 46 1028 l 614 1028 l 614 1000 l 90 26 l 79 44 l 621 44 l 621 0 l 39 0 m 331 1174 q 300 1185 312 1174 q 288 1217 288 1197 q 300 1249 288 1237 q 331 1261 312 1261 q 361 1249 349 1261 q 374 1217 374 1237 q 361 1185 374 1197 q 331 1174 349 1174 z "},"Ẓ":{"ha":660,"x_min":39,"x_max":621,"o":"m 39 0 l 39 28 l 563 1001 l 574 983 l 46 983 l 46 1028 l 614 1028 l 614 1000 l 90 26 l 79 44 l 621 44 l 621 0 l 39 0 m 331 -215 q 300 -203 312 -215 q 288 -172 288 -192 q 300 -140 288 -152 q 331 -128 312 -128 q 361 -140 349 -128 q 374 -172 374 -152 q 361 -203 374 -192 q 331 -215 349 -215 z "},"a":{"ha":683,"x_min":19,"x_max":664,"o":"m 19 0 l 310 826 l 372 826 l 664 0 l 613 0 l 333 799 l 347 799 l 68 0 l 19 0 m 150 289 l 163 333 l 519 333 l 532 289 l 150 289 z "},"á":{"ha":683,"x_min":19,"x_max":664,"o":"m 19 0 l 310 826 l 372 826 l 664 0 l 613 0 l 333 799 l 347 799 l 68 0 l 19 0 m 150 289 l 163 333 l 519 333 l 532 289 l 150 289 z "},"ă":{"ha":683,"x_min":19,"x_max":664,"o":"m 19 0 l 310 826 l 372 826 l 664 0 l 613 0 l 333 799 l 347 799 l 68 0 l 19 0 m 150 289 l 163 333 l 519 333 l 532 289 l 150 289 z "},"ắ":{"ha":683,"x_min":19,"x_max":664,"o":"m 19 0 l 310 826 l 372 826 l 664 0 l 613 0 l 333 799 l 347 799 l 68 0 l 19 0 m 150 289 l 163 333 l 519 333 l 532 289 l 150 289 z "},"ặ":{"ha":683,"x_min":19,"x_max":664,"o":"m 19 0 l 310 826 l 372 826 l 664 0 l 613 0 l 333 799 l 347 799 l 68 0 l 19 0 m 150 289 l 163 333 l 519 333 l 532 289 l 150 289 z "},"ằ":{"ha":683,"x_min":19,"x_max":664,"o":"m 19 0 l 310 826 l 372 826 l 664 0 l 613 0 l 333 799 l 347 799 l 68 0 l 19 0 m 150 289 l 163 333 l 519 333 l 532 289 l 150 289 z "},"ẳ":{"ha":683,"x_min":19,"x_max":664,"o":"m 19 0 l 310 826 l 372 826 l 664 0 l 613 0 l 333 799 l 347 799 l 68 0 l 19 0 m 150 289 l 163 333 l 519 333 l 532 289 l 150 289 z "},"ẵ":{"ha":683,"x_min":19,"x_max":664,"o":"m 19 0 l 310 826 l 372 826 l 664 0 l 613 0 l 333 799 l 347 799 l 68 0 l 19 0 m 150 289 l 163 333 l 519 333 l 532 289 l 150 289 z "},"â":{"ha":683,"x_min":19,"x_max":664,"o":"m 19 0 l 310 826 l 372 826 l 664 0 l 613 0 l 333 799 l 347 799 l 68 0 l 19 0 m 150 289 l 163 333 l 519 333 l 532 289 l 150 289 z "},"ấ":{"ha":683,"x_min":19,"x_max":664,"o":"m 19 0 l 310 826 l 372 826 l 664 0 l 613 0 l 333 799 l 347 799 l 68 0 l 19 0 m 150 289 l 163 333 l 519 333 l 532 289 l 150 289 z "},"ậ":{"ha":683,"x_min":19,"x_max":664,"o":"m 19 0 l 310 826 l 372 826 l 664 0 l 613 0 l 333 799 l 347 799 l 68 0 l 19 0 m 150 289 l 163 333 l 519 333 l 532 289 l 150 289 z "},"ầ":{"ha":683,"x_min":19,"x_max":664,"o":"m 19 0 l 310 826 l 372 826 l 664 0 l 613 0 l 333 799 l 347 799 l 68 0 l 19 0 m 150 289 l 163 333 l 519 333 l 532 289 l 150 289 z "},"ẩ":{"ha":683,"x_min":19,"x_max":664,"o":"m 19 0 l 310 826 l 372 826 l 664 0 l 613 0 l 333 799 l 347 799 l 68 0 l 19 0 m 150 289 l 163 333 l 519 333 l 532 289 l 150 289 z "},"ẫ":{"ha":683,"x_min":19,"x_max":664,"o":"m 19 0 l 310 826 l 372 826 l 664 0 l 613 0 l 333 799 l 347 799 l 68 0 l 19 0 m 150 289 l 163 333 l 519 333 l 532 289 l 150 289 z "},"ȁ":{"ha":683,"x_min":19,"x_max":664,"o":"m 19 0 l 310 826 l 372 826 l 664 0 l 613 0 l 333 799 l 347 799 l 68 0 l 19 0 m 150 289 l 163 333 l 519 333 l 532 289 l 150 289 z "},"ä":{"ha":683,"x_min":19,"x_max":664,"o":"m 19 0 l 310 826 l 372 826 l 664 0 l 613 0 l 333 799 l 347 799 l 68 0 l 19 0 m 150 289 l 163 333 l 519 333 l 532 289 l 150 289 z "},"ạ":{"ha":683,"x_min":19,"x_max":664,"o":"m 19 0 l 310 826 l 372 826 l 664 0 l 613 0 l 333 799 l 347 799 l 68 0 l 19 0 m 150 289 l 163 333 l 519 333 l 532 289 l 150 289 z "},"à":{"ha":683,"x_min":19,"x_max":664,"o":"m 19 0 l 310 826 l 372 826 l 664 0 l 613 0 l 333 799 l 347 799 l 68 0 l 19 0 m 150 289 l 163 333 l 519 333 l 532 289 l 150 289 z "},"ả":{"ha":683,"x_min":19,"x_max":664,"o":"m 19 0 l 310 826 l 372 826 l 664 0 l 613 0 l 333 799 l 347 799 l 68 0 l 19 0 m 150 289 l 163 333 l 519 333 l 532 289 l 150 289 z "},"ȃ":{"ha":683,"x_min":19,"x_max":664,"o":"m 19 0 l 310 826 l 372 826 l 664 0 l 613 0 l 333 799 l 347 799 l 68 0 l 19 0 m 150 289 l 163 333 l 519 333 l 532 289 l 150 289 z "},"ā":{"ha":683,"x_min":19,"x_max":664,"o":"m 19 0 l 310 826 l 372 826 l 664 0 l 613 0 l 333 799 l 347 799 l 68 0 l 19 0 m 150 289 l 163 333 l 519 333 l 532 289 l 150 289 z "},"ą":{"ha":683,"x_min":19,"x_max":742,"o":"m 19 0 l 310 826 l 372 826 l 664 0 l 613 0 l 333 799 l 347 799 l 68 0 l 19 0 m 150 289 l 163 333 l 519 333 l 532 289 l 150 289 z "},"å":{"ha":683,"x_min":19,"x_max":664,"o":"m 19 0 l 310 826 l 372 826 l 664 0 l 613 0 l 333 799 l 347 799 l 68 0 l 19 0 m 150 289 l 163 333 l 519 333 l 532 289 l 150 289 z "},"ǻ":{"ha":683,"x_min":19,"x_max":664,"o":"m 19 0 l 310 826 l 372 826 l 664 0 l 613 0 l 333 799 l 347 799 l 68 0 l 19 0 m 150 289 l 163 333 l 519 333 l 532 289 l 150 289 z "},"ã":{"ha":683,"x_min":19,"x_max":664,"o":"m 19 0 l 310 826 l 372 826 l 664 0 l 613 0 l 333 799 l 347 799 l 68 0 l 19 0 m 150 289 l 163 333 l 519 333 l 532 289 l 150 289 z "},"æ":{"ha":932,"x_min":19,"x_max":907,"o":"m 19 0 l 317 826 l 481 826 l 481 782 l 349 782 l 68 0 l 19 0 m 151 289 l 164 333 l 496 333 l 496 289 l 151 289 m 490 0 l 451 826 l 901 826 l 901 782 l 500 782 l 536 44 l 907 44 l 907 0 l 490 0 m 506 401 l 506 446 l 847 446 l 847 401 l 506 401 z "},"ǽ":{"ha":932,"x_min":19,"x_max":907,"o":"m 19 0 l 317 826 l 481 826 l 481 782 l 349 782 l 68 0 l 19 0 m 151 289 l 164 333 l 496 333 l 496 289 l 151 289 m 490 0 l 451 826 l 901 826 l 901 782 l 500 782 l 536 44 l 907 44 l 907 0 l 490 0 m 506 401 l 506 446 l 847 446 l 847 401 l 506 401 z "},"b":{"ha":675,"x_min":115,"x_max":625,"o":"m 289 -6 q 229 -5 258 -6 q 172 -2 200 -3 q 115 3 143 0 l 115 818 q 170 827 141 823 q 232 833 199 831 q 303 835 265 835 q 530 782 459 835 q 600 621 600 729 q 584 533 600 575 q 528 463 567 492 q 422 425 490 433 l 422 432 q 536 395 492 424 q 603 321 581 366 q 625 218 625 276 q 590 95 625 144 q 481 20 556 45 q 289 -6 407 -6 m 290 38 q 458 57 394 38 q 549 117 521 77 q 578 218 578 157 q 519 356 578 310 q 333 403 460 403 l 153 403 l 153 447 l 310 447 q 501 493 449 447 q 553 619 553 538 q 496 750 553 710 q 303 790 440 790 q 227 788 260 790 q 163 779 193 785 l 163 43 q 226 39 193 40 q 290 38 258 38 z "},"c":{"ha":565,"x_min":69,"x_max":557,"o":"m 392 -10 q 221 29 293 -10 q 109 160 149 68 q 69 413 69 252 q 109 661 69 568 q 222 795 148 754 q 400 836 296 836 q 481 832 439 836 q 557 815 523 827 l 557 768 q 475 786 513 782 q 399 790 438 790 q 246 756 308 790 q 152 640 184 722 q 119 414 119 558 q 152 184 119 267 q 246 69 185 102 q 392 36 307 36 q 472 43 433 36 q 557 65 511 50 l 557 18 q 481 -2 523 6 q 392 -10 439 -10 z "},"ć":{"ha":565,"x_min":69,"x_max":557,"o":"m 392 -10 q 221 29 293 -10 q 109 160 149 68 q 69 413 69 252 q 109 661 69 568 q 222 795 148 754 q 400 836 296 836 q 481 832 439 836 q 557 815 523 827 l 557 768 q 475 786 513 782 q 399 790 438 790 q 246 756 308 790 q 152 640 184 722 q 119 414 119 558 q 152 184 119 267 q 246 69 185 102 q 392 36 307 36 q 472 43 433 36 q 557 65 511 50 l 557 18 q 481 -2 523 6 q 392 -10 439 -10 z "},"č":{"ha":565,"x_min":69,"x_max":557,"o":"m 392 -10 q 221 29 293 -10 q 109 160 149 68 q 69 413 69 252 q 109 661 69 568 q 222 795 148 754 q 400 836 296 836 q 481 832 439 836 q 557 815 523 827 l 557 768 q 475 786 513 782 q 399 790 438 790 q 246 756 308 790 q 152 640 184 722 q 119 414 119 558 q 152 184 119 267 q 246 69 185 102 q 392 36 307 36 q 472 43 433 36 q 557 65 511 50 l 557 18 q 481 -2 523 6 q 392 -10 439 -10 z "},"ç":{"ha":565,"x_min":69,"x_max":557,"o":"m 392 -10 q 221 29 293 -10 q 109 160 149 68 q 69 413 69 252 q 109 661 69 568 q 222 795 148 754 q 400 836 296 836 q 481 832 439 836 q 557 815 523 827 l 557 768 q 475 786 513 782 q 399 790 438 790 q 246 756 308 790 q 152 640 184 722 q 119 414 119 558 q 152 184 119 267 q 246 69 185 102 q 392 36 307 36 q 472 43 433 36 q 557 65 511 50 l 557 18 q 481 -2 523 6 q 392 -10 439 -10 z "},"ḉ":{"ha":565,"x_min":69,"x_max":557,"o":"m 392 -10 q 221 29 293 -10 q 109 160 149 68 q 69 413 69 252 q 109 661 69 568 q 222 795 148 754 q 400 836 296 836 q 481 832 439 836 q 557 815 523 827 l 557 768 q 475 786 513 782 q 399 790 438 790 q 246 756 308 790 q 152 640 184 722 q 119 414 119 558 q 152 184 119 267 q 246 69 185 102 q 392 36 307 36 q 472 43 433 36 q 557 65 511 50 l 557 18 q 481 -2 523 6 q 392 -10 439 -10 z "},"ĉ":{"ha":565,"x_min":69,"x_max":557,"o":"m 392 -10 q 221 29 293 -10 q 109 160 149 68 q 69 413 69 252 q 109 661 69 568 q 222 795 148 754 q 400 836 296 836 q 481 832 439 836 q 557 815 523 827 l 557 768 q 475 786 513 782 q 399 790 438 790 q 246 756 308 790 q 152 640 184 722 q 119 414 119 558 q 152 184 119 267 q 246 69 185 102 q 392 36 307 36 q 472 43 433 36 q 557 65 511 50 l 557 18 q 481 -2 523 6 q 392 -10 439 -10 z "},"ċ":{"ha":565,"x_min":69,"x_max":557,"o":"m 392 -10 q 221 29 293 -10 q 109 160 149 68 q 69 413 69 252 q 109 661 69 568 q 222 795 148 754 q 400 836 296 836 q 481 832 439 836 q 557 815 523 827 l 557 768 q 475 786 513 782 q 399 790 438 790 q 246 756 308 790 q 152 640 184 722 q 119 414 119 558 q 152 184 119 267 q 246 69 185 102 q 392 36 307 36 q 472 43 433 36 q 557 65 511 50 l 557 18 q 481 -2 523 6 q 392 -10 439 -10 z "},"d":{"ha":721,"x_min":115,"x_max":651,"o":"m 267 -6 q 197 -4 231 -6 q 115 3 163 -2 l 115 819 q 169 827 141 824 q 226 833 197 831 q 283 835 255 835 q 560 733 468 835 q 651 413 651 631 q 608 172 651 264 q 478 37 564 80 q 267 -6 392 -6 m 272 39 q 455 76 382 39 q 565 195 528 113 q 601 413 601 278 q 568 628 601 545 q 464 751 534 712 q 283 790 393 790 q 224 788 254 790 q 163 781 193 785 l 163 44 q 217 40 192 40 q 272 39 243 39 z "},"ð":{"ha":721,"x_min":0,"x_max":651,"o":"m 0 403 l 0 442 l 338 442 l 338 403 l 0 403 m 267 -6 q 197 -4 231 -6 q 115 3 163 -2 l 115 819 q 169 827 141 824 q 226 833 197 831 q 283 835 255 835 q 560 733 468 835 q 651 413 651 631 q 608 172 651 264 q 478 37 564 80 q 267 -6 392 -6 m 272 39 q 455 76 382 39 q 565 195 528 113 q 601 413 601 278 q 568 628 601 545 q 464 751 534 712 q 283 790 393 790 q 224 788 254 790 q 163 781 193 785 l 163 44 q 217 40 192 40 q 272 39 243 39 z "},"ď":{"ha":721,"x_min":115,"x_max":651,"o":"m 267 -6 q 197 -4 231 -6 q 115 3 163 -2 l 115 819 q 169 827 141 824 q 226 833 197 831 q 283 835 255 835 q 560 733 468 835 q 651 413 651 631 q 608 172 651 264 q 478 37 564 80 q 267 -6 392 -6 m 272 39 q 455 76 382 39 q 565 195 528 113 q 601 413 601 278 q 568 628 601 545 q 464 751 534 712 q 283 790 393 790 q 224 788 254 790 q 163 781 193 785 l 163 44 q 217 40 192 40 q 272 39 243 39 z "},"đ":{"ha":721,"x_min":0,"x_max":651,"o":"m 0 403 l 0 442 l 338 442 l 338 403 l 0 403 m 267 -6 q 197 -4 231 -6 q 115 3 163 -2 l 115 819 q 169 827 141 824 q 226 833 197 831 q 283 835 255 835 q 560 733 468 835 q 651 413 651 631 q 608 172 651 264 q 478 37 564 80 q 267 -6 392 -6 m 272 39 q 455 76 382 39 q 565 195 528 113 q 601 413 601 278 q 568 628 601 545 q 464 751 534 712 q 283 790 393 790 q 224 788 254 790 q 163 781 193 785 l 163 44 q 217 40 192 40 q 272 39 243 39 z "},"ḍ":{"ha":721,"x_min":115,"x_max":651,"o":"m 267 -6 q 197 -4 231 -6 q 115 3 163 -2 l 115 819 q 169 827 141 824 q 226 833 197 831 q 283 835 255 835 q 560 733 468 835 q 651 413 651 631 q 608 172 651 264 q 478 37 564 80 q 267 -6 392 -6 m 272 39 q 455 76 382 39 q 565 195 528 113 q 601 413 601 278 q 568 628 601 545 q 464 751 534 712 q 283 790 393 790 q 224 788 254 790 q 163 781 193 785 l 163 44 q 217 40 192 40 q 272 39 243 39 z "},"ḏ":{"ha":721,"x_min":115,"x_max":651,"o":"m 267 -6 q 197 -4 231 -6 q 115 3 163 -2 l 115 819 q 169 827 141 824 q 226 833 197 831 q 283 835 255 835 q 560 733 468 835 q 651 413 651 631 q 608 172 651 264 q 478 37 564 80 q 267 -6 392 -6 m 272 39 q 455 76 382 39 q 565 195 528 113 q 601 413 601 278 q 568 628 601 545 q 464 751 534 712 q 283 790 393 790 q 224 788 254 790 q 163 781 193 785 l 163 44 q 217 40 192 40 q 272 39 243 39 z "},"ǳ":{"ha":1275,"x_min":115,"x_max":1235,"o":"m 267 -6 q 197 -4 231 -6 q 115 3 163 -2 l 115 819 q 169 827 141 824 q 226 833 197 831 q 283 835 255 835 q 560 733 468 835 q 651 413 651 631 q 608 172 651 264 q 478 37 564 80 q 267 -6 392 -6 m 272 39 q 455 76 382 39 q 565 195 528 113 q 601 413 601 278 q 568 628 601 545 q 464 751 534 712 q 283 790 393 790 q 224 788 254 790 q 163 781 193 785 l 163 44 q 217 40 192 40 q 272 39 243 39 m 733 0 l 733 29 l 1178 796 l 1186 782 l 739 782 l 739 826 l 1229 826 l 1229 797 l 783 31 l 775 44 l 1235 44 l 1235 0 l 733 0 z "},"ǆ":{"ha":1275,"x_min":115,"x_max":1235,"o":"m 267 -6 q 197 -4 231 -6 q 115 3 163 -2 l 115 819 q 169 827 141 824 q 226 833 197 831 q 283 835 255 835 q 560 733 468 835 q 651 413 651 631 q 608 172 651 264 q 478 37 564 80 q 267 -6 392 -6 m 272 39 q 455 76 382 39 q 565 195 528 113 q 601 413 601 278 q 568 628 601 545 q 464 751 534 712 q 283 790 393 790 q 224 788 254 790 q 163 781 193 785 l 163 44 q 217 40 192 40 q 272 39 243 39 m 733 0 l 733 29 l 1178 796 l 1186 782 l 739 782 l 739 826 l 1229 826 l 1229 797 l 783 31 l 775 44 l 1235 44 l 1235 0 l 733 0 z "},"e":{"ha":589,"x_min":115,"x_max":564,"o":"m 115 0 l 115 826 l 558 826 l 558 782 l 163 782 l 163 44 l 564 44 l 564 0 l 115 0 m 156 401 l 156 446 l 504 446 l 504 401 l 156 401 z "},"é":{"ha":589,"x_min":115,"x_max":564,"o":"m 115 0 l 115 826 l 558 826 l 558 782 l 163 782 l 163 44 l 564 44 l 564 0 l 115 0 m 156 401 l 156 446 l 504 446 l 504 401 l 156 401 z "},"ĕ":{"ha":589,"x_min":115,"x_max":564,"o":"m 115 0 l 115 826 l 558 826 l 558 782 l 163 782 l 163 44 l 564 44 l 564 0 l 115 0 m 156 401 l 156 446 l 504 446 l 504 401 l 156 401 z "},"ě":{"ha":589,"x_min":115,"x_max":564,"o":"m 115 0 l 115 826 l 558 826 l 558 782 l 163 782 l 163 44 l 564 44 l 564 0 l 115 0 m 156 401 l 156 446 l 504 446 l 504 401 l 156 401 z "},"ḝ":{"ha":589,"x_min":115,"x_max":564,"o":"m 115 0 l 115 826 l 558 826 l 558 782 l 163 782 l 163 44 l 564 44 l 564 0 l 115 0 m 156 401 l 156 446 l 504 446 l 504 401 l 156 401 z "},"ê":{"ha":589,"x_min":115,"x_max":564,"o":"m 115 0 l 115 826 l 558 826 l 558 782 l 163 782 l 163 44 l 564 44 l 564 0 l 115 0 m 156 401 l 156 446 l 504 446 l 504 401 l 156 401 z "},"ế":{"ha":589,"x_min":115,"x_max":613,"o":"m 115 0 l 115 826 l 558 826 l 558 782 l 163 782 l 163 44 l 564 44 l 564 0 l 115 0 m 156 401 l 156 446 l 504 446 l 504 401 l 156 401 z "},"ệ":{"ha":589,"x_min":115,"x_max":564,"o":"m 115 0 l 115 826 l 558 826 l 558 782 l 163 782 l 163 44 l 564 44 l 564 0 l 115 0 m 156 401 l 156 446 l 504 446 l 504 401 l 156 401 z "},"ề":{"ha":589,"x_min":115,"x_max":564,"o":"m 115 0 l 115 826 l 558 826 l 558 782 l 163 782 l 163 44 l 564 44 l 564 0 l 115 0 m 156 401 l 156 446 l 504 446 l 504 401 l 156 401 z "},"ể":{"ha":589,"x_min":115,"x_max":619,"o":"m 115 0 l 115 826 l 558 826 l 558 782 l 163 782 l 163 44 l 564 44 l 564 0 l 115 0 m 156 401 l 156 446 l 504 446 l 504 401 l 156 401 z "},"ễ":{"ha":589,"x_min":115,"x_max":564,"o":"m 115 0 l 115 826 l 558 826 l 558 782 l 163 782 l 163 44 l 564 44 l 564 0 l 115 0 m 156 401 l 156 446 l 504 446 l 504 401 l 156 401 z "},"ȅ":{"ha":589,"x_min":115,"x_max":564,"o":"m 115 0 l 115 826 l 558 826 l 558 782 l 163 782 l 163 44 l 564 44 l 564 0 l 115 0 m 156 401 l 156 446 l 504 446 l 504 401 l 156 401 z "},"ë":{"ha":589,"x_min":115,"x_max":564,"o":"m 115 0 l 115 826 l 558 826 l 558 782 l 163 782 l 163 44 l 564 44 l 564 0 l 115 0 m 156 401 l 156 446 l 504 446 l 504 401 l 156 401 z "},"ė":{"ha":589,"x_min":115,"x_max":564,"o":"m 115 0 l 115 826 l 558 826 l 558 782 l 163 782 l 163 44 l 564 44 l 564 0 l 115 0 m 156 401 l 156 446 l 504 446 l 504 401 l 156 401 z "},"ẹ":{"ha":589,"x_min":115,"x_max":564,"o":"m 115 0 l 115 826 l 558 826 l 558 782 l 163 782 l 163 44 l 564 44 l 564 0 l 115 0 m 156 401 l 156 446 l 504 446 l 504 401 l 156 401 z "},"è":{"ha":589,"x_min":115,"x_max":564,"o":"m 115 0 l 115 826 l 558 826 l 558 782 l 163 782 l 163 44 l 564 44 l 564 0 l 115 0 m 156 401 l 156 446 l 504 446 l 504 401 l 156 401 z "},"ẻ":{"ha":589,"x_min":115,"x_max":564,"o":"m 115 0 l 115 826 l 558 826 l 558 782 l 163 782 l 163 44 l 564 44 l 564 0 l 115 0 m 156 401 l 156 446 l 504 446 l 504 401 l 156 401 z "},"ȇ":{"ha":589,"x_min":115,"x_max":564,"o":"m 115 0 l 115 826 l 558 826 l 558 782 l 163 782 l 163 44 l 564 44 l 564 0 l 115 0 m 156 401 l 156 446 l 504 446 l 504 401 l 156 401 z "},"ē":{"ha":589,"x_min":115,"x_max":564,"o":"m 115 0 l 115 826 l 558 826 l 558 782 l 163 782 l 163 44 l 564 44 l 564 0 l 115 0 m 156 401 l 156 446 l 504 446 l 504 401 l 156 401 z "},"ḗ":{"ha":589,"x_min":115,"x_max":564,"o":"m 115 0 l 115 826 l 558 826 l 558 782 l 163 782 l 163 44 l 564 44 l 564 0 l 115 0 m 156 401 l 156 446 l 504 446 l 504 401 l 156 401 z "},"ḕ":{"ha":589,"x_min":115,"x_max":564,"o":"m 115 0 l 115 826 l 558 826 l 558 782 l 163 782 l 163 44 l 564 44 l 564 0 l 115 0 m 156 401 l 156 446 l 504 446 l 504 401 l 156 401 z "},"ę":{"ha":589,"x_min":115,"x_max":642,"o":"m 115 0 l 115 826 l 558 826 l 558 782 l 163 782 l 163 44 l 564 44 l 564 0 l 115 0 m 156 401 l 156 446 l 504 446 l 504 401 l 156 401 z "},"ẽ":{"ha":589,"x_min":115,"x_max":564,"o":"m 115 0 l 115 826 l 558 826 l 558 782 l 163 782 l 163 44 l 564 44 l 564 0 l 115 0 m 156 401 l 156 446 l 504 446 l 504 401 l 156 401 z "},"ə":{"ha":719,"x_min":63,"x_max":650,"o":"m 353 -10 q 198 32 263 -10 q 98 166 133 73 q 63 415 63 260 l 63 439 l 619 439 l 619 394 l 94 394 l 113 413 q 141 185 113 267 q 223 69 169 103 q 353 35 276 35 q 485 68 429 35 q 570 184 540 102 q 600 411 600 266 q 567 642 600 559 q 467 758 535 725 q 296 792 400 792 q 201 786 251 792 q 103 767 151 781 l 103 814 q 200 831 152 826 q 299 836 249 836 q 490 795 412 836 q 609 662 569 755 q 650 413 650 569 q 613 166 650 258 q 510 32 576 73 q 353 -10 443 -10 z "},"f":{"ha":565,"x_min":115,"x_max":551,"o":"m 115 0 l 115 826 l 551 826 l 551 782 l 163 782 l 163 0 l 115 0 m 156 400 l 156 444 l 499 444 l 499 400 l 156 400 z "},"g":{"ha":688,"x_min":69,"x_max":597,"o":"m 449 -6 q 241 34 325 -6 q 113 165 156 74 q 69 413 69 257 q 112 663 69 570 q 234 796 155 756 q 422 836 313 836 q 506 831 463 836 q 586 814 548 826 l 586 767 q 501 786 542 781 q 421 792 460 792 q 258 757 326 792 q 155 640 191 723 q 119 413 119 558 q 156 189 119 271 q 266 73 192 108 q 449 39 339 39 q 508 41 479 39 q 565 50 538 44 l 550 28 l 550 401 l 597 401 l 597 8 q 519 -3 553 0 q 449 -6 484 -6 z "},"ǵ":{"ha":688,"x_min":69,"x_max":597,"o":"m 449 -6 q 241 34 325 -6 q 113 165 156 74 q 69 413 69 257 q 112 663 69 570 q 234 796 155 756 q 422 836 313 836 q 506 831 463 836 q 586 814 548 826 l 586 767 q 501 786 542 781 q 421 792 460 792 q 258 757 326 792 q 155 640 191 723 q 119 413 119 558 q 156 189 119 271 q 266 73 192 108 q 449 39 339 39 q 508 41 479 39 q 565 50 538 44 l 550 28 l 550 401 l 597 401 l 597 8 q 519 -3 553 0 q 449 -6 484 -6 z "},"ğ":{"ha":688,"x_min":69,"x_max":597,"o":"m 449 -6 q 241 34 325 -6 q 113 165 156 74 q 69 413 69 257 q 112 663 69 570 q 234 796 155 756 q 422 836 313 836 q 506 831 463 836 q 586 814 548 826 l 586 767 q 501 786 542 781 q 421 792 460 792 q 258 757 326 792 q 155 640 191 723 q 119 413 119 558 q 156 189 119 271 q 266 73 192 108 q 449 39 339 39 q 508 41 479 39 q 565 50 538 44 l 550 28 l 550 401 l 597 401 l 597 8 q 519 -3 553 0 q 449 -6 484 -6 z "},"ǧ":{"ha":688,"x_min":69,"x_max":597,"o":"m 449 -6 q 241 34 325 -6 q 113 165 156 74 q 69 413 69 257 q 112 663 69 570 q 234 796 155 756 q 422 836 313 836 q 506 831 463 836 q 586 814 548 826 l 586 767 q 501 786 542 781 q 421 792 460 792 q 258 757 326 792 q 155 640 191 723 q 119 413 119 558 q 156 189 119 271 q 266 73 192 108 q 449 39 339 39 q 508 41 479 39 q 565 50 538 44 l 550 28 l 550 401 l 597 401 l 597 8 q 519 -3 553 0 q 449 -6 484 -6 z "},"ĝ":{"ha":688,"x_min":69,"x_max":597,"o":"m 449 -6 q 241 34 325 -6 q 113 165 156 74 q 69 413 69 257 q 112 663 69 570 q 234 796 155 756 q 422 836 313 836 q 506 831 463 836 q 586 814 548 826 l 586 767 q 501 786 542 781 q 421 792 460 792 q 258 757 326 792 q 155 640 191 723 q 119 413 119 558 q 156 189 119 271 q 266 73 192 108 q 449 39 339 39 q 508 41 479 39 q 565 50 538 44 l 550 28 l 550 401 l 597 401 l 597 8 q 519 -3 553 0 q 449 -6 484 -6 z "},"ģ":{"ha":688,"x_min":69,"x_max":597,"o":"m 449 -6 q 241 34 325 -6 q 113 165 156 74 q 69 413 69 257 q 112 663 69 570 q 234 796 155 756 q 422 836 313 836 q 506 831 463 836 q 586 814 548 826 l 586 767 q 501 786 542 781 q 421 792 460 792 q 258 757 326 792 q 155 640 191 723 q 119 413 119 558 q 156 189 119 271 q 266 73 192 108 q 449 39 339 39 q 508 41 479 39 q 565 50 538 44 l 550 28 l 550 401 l 597 401 l 597 8 q 519 -3 553 0 q 449 -6 484 -6 z "},"ġ":{"ha":688,"x_min":69,"x_max":597,"o":"m 449 -6 q 241 34 325 -6 q 113 165 156 74 q 69 413 69 257 q 112 663 69 570 q 234 796 155 756 q 422 836 313 836 q 506 831 463 836 q 586 814 548 826 l 586 767 q 501 786 542 781 q 421 792 460 792 q 258 757 326 792 q 155 640 191 723 q 119 413 119 558 q 156 189 119 271 q 266 73 192 108 q 449 39 339 39 q 508 41 479 39 q 565 50 538 44 l 550 28 l 550 401 l 597 401 l 597 8 q 519 -3 553 0 q 449 -6 484 -6 z "},"ḡ":{"ha":688,"x_min":69,"x_max":597,"o":"m 449 -6 q 241 34 325 -6 q 113 165 156 74 q 69 413 69 257 q 112 663 69 570 q 234 796 155 756 q 422 836 313 836 q 506 831 463 836 q 586 814 548 826 l 586 767 q 501 786 542 781 q 421 792 460 792 q 258 757 326 792 q 155 640 191 723 q 119 413 119 558 q 156 189 119 271 q 266 73 192 108 q 449 39 339 39 q 508 41 479 39 q 565 50 538 44 l 550 28 l 550 401 l 597 401 l 597 8 q 519 -3 553 0 q 449 -6 484 -6 z "},"h":{"ha":765,"x_min":115,"x_max":650,"o":"m 115 0 l 115 826 l 163 826 l 163 447 l 603 447 l 603 826 l 650 826 l 650 0 l 603 0 l 603 403 l 163 403 l 163 0 l 115 0 z "},"ħ":{"ha":765,"x_min":1,"x_max":766,"o":"m 1 619 l 1 658 l 766 658 l 766 619 l 1 619 m 115 0 l 115 826 l 163 826 l 163 447 l 603 447 l 603 826 l 650 826 l 650 0 l 603 0 l 603 403 l 163 403 l 163 0 l 115 0 z "},"ḫ":{"ha":765,"x_min":115,"x_max":650,"o":"m 115 0 l 115 826 l 163 826 l 163 447 l 603 447 l 603 826 l 650 826 l 650 0 l 603 0 l 603 403 l 163 403 l 163 0 l 115 0 z "},"ĥ":{"ha":765,"x_min":115,"x_max":650,"o":"m 115 0 l 115 826 l 163 826 l 163 447 l 603 447 l 603 826 l 650 826 l 650 0 l 603 0 l 603 403 l 163 403 l 163 0 l 115 0 z "},"ḥ":{"ha":765,"x_min":115,"x_max":650,"o":"m 115 0 l 115 826 l 163 826 l 163 447 l 603 447 l 603 826 l 650 826 l 650 0 l 603 0 l 603 403 l 163 403 l 163 0 l 115 0 z "},"i":{"ha":278,"x_min":115,"x_max":163,"o":"m 115 0 l 115 826 l 163 826 l 163 0 l 115 0 z "},"ı":{"ha":278,"x_min":115,"x_max":163,"o":"m 115 0 l 115 826 l 163 826 l 163 0 l 115 0 z "},"í":{"ha":278,"x_min":115,"x_max":258,"o":"m 115 0 l 115 826 l 163 826 l 163 0 l 115 0 z "},"ĭ":{"ha":278,"x_min":-29,"x_max":307,"o":"m 115 0 l 115 826 l 163 826 l 163 0 l 115 0 z "},"î":{"ha":278,"x_min":-24,"x_max":301,"o":"m 115 0 l 115 826 l 163 826 l 163 0 l 115 0 z "},"ȉ":{"ha":278,"x_min":-35,"x_max":246,"o":"m 115 0 l 115 826 l 163 826 l 163 0 l 115 0 z "},"ï":{"ha":278,"x_min":-29,"x_max":307,"o":"m 115 0 l 115 826 l 163 826 l 163 0 l 115 0 z "},"ḯ":{"ha":278,"x_min":-29,"x_max":307,"o":"m 115 0 l 115 826 l 163 826 l 163 0 l 115 0 z "},"ị":{"ha":278,"x_min":96,"x_max":182,"o":"m 115 0 l 115 826 l 163 826 l 163 0 l 115 0 z "},"ì":{"ha":278,"x_min":19,"x_max":163,"o":"m 115 0 l 115 826 l 163 826 l 163 0 l 115 0 z "},"ỉ":{"ha":278,"x_min":22,"x_max":265,"o":"m 115 0 l 115 826 l 163 826 l 163 0 l 115 0 z "},"ȋ":{"ha":278,"x_min":-29,"x_max":307,"o":"m 115 0 l 115 826 l 163 826 l 163 0 l 115 0 z "},"ī":{"ha":278,"x_min":-28,"x_max":306,"o":"m 115 0 l 115 826 l 163 826 l 163 0 l 115 0 z "},"į":{"ha":278,"x_min":1,"x_max":240,"o":"m 115 0 l 115 826 l 163 826 l 163 0 l 115 0 z "},"ĩ":{"ha":278,"x_min":-43,"x_max":321,"o":"m 115 0 l 115 826 l 163 826 l 163 0 l 115 0 z "},"j":{"ha":278,"x_min":15,"x_max":163,"o":"m 49 -190 l 15 -167 q 73 -65 51 -114 q 105 37 95 -17 q 115 160 115 91 l 115 826 l 163 826 l 163 146 q 151 25 163 80 q 114 -82 139 -30 q 49 -190 88 -133 z "},"ĵ":{"ha":278,"x_min":-24,"x_max":301,"o":"m 49 -190 l 15 -167 q 73 -65 51 -114 q 105 37 95 -17 q 115 160 115 91 l 115 826 l 163 826 l 163 146 q 151 25 163 80 q 114 -82 139 -30 q 49 -190 88 -133 z "},"k":{"ha":639,"x_min":115,"x_max":664,"o":"m 607 0 l 258 424 l 583 826 l 639 826 l 307 417 l 307 433 l 664 0 l 607 0 m 115 0 l 115 826 l 163 826 l 163 0 l 115 0 m 151 403 l 151 447 l 286 447 l 286 403 l 151 403 z "},"ķ":{"ha":639,"x_min":115,"x_max":664,"o":"m 607 0 l 258 424 l 583 826 l 639 826 l 307 417 l 307 433 l 664 0 l 607 0 m 115 0 l 115 826 l 163 826 l 163 0 l 115 0 m 151 403 l 151 447 l 286 447 l 286 403 l 151 403 z "},"l":{"ha":553,"x_min":115,"x_max":549,"o":"m 115 0 l 115 826 l 163 826 l 163 44 l 549 44 l 549 0 l 115 0 z "},"ĺ":{"ha":553,"x_min":115,"x_max":549,"o":"m 115 0 l 115 826 l 163 826 l 163 44 l 549 44 l 549 0 l 115 0 z "},"ľ":{"ha":553,"x_min":115,"x_max":549,"o":"m 115 0 l 115 826 l 163 826 l 163 44 l 549 44 l 549 0 l 115 0 z "},"ļ":{"ha":553,"x_min":115,"x_max":549,"o":"m 115 0 l 115 826 l 163 826 l 163 44 l 549 44 l 549 0 l 115 0 z "},"ŀ":{"ha":553,"x_min":115,"x_max":549,"o":"m 115 0 l 115 826 l 163 826 l 163 44 l 549 44 l 549 0 l 115 0 m 403 392 q 372 403 384 392 q 360 435 360 415 q 372 467 360 455 q 403 479 384 479 q 434 467 422 479 q 446 435 446 455 q 434 403 446 415 q 403 392 422 392 z "},"ḷ":{"ha":553,"x_min":115,"x_max":549,"o":"m 115 0 l 115 826 l 163 826 l 163 44 l 549 44 l 549 0 l 115 0 z "},"ǉ":{"ha":831,"x_min":115,"x_max":715,"o":"m 115 0 l 115 826 l 163 826 l 163 44 l 549 44 l 549 0 l 115 0 m 601 -190 l 568 -167 q 626 -65 603 -114 q 658 37 648 -17 q 668 160 668 91 l 668 826 l 715 826 l 715 146 q 703 25 715 80 q 666 -82 692 -30 q 601 -190 641 -133 z "},"ḻ":{"ha":553,"x_min":115,"x_max":549,"o":"m 115 0 l 115 826 l 163 826 l 163 44 l 549 44 l 549 0 l 115 0 z "},"ł":{"ha":553,"x_min":22,"x_max":549,"o":"m 115 0 l 115 826 l 163 826 l 163 44 l 549 44 l 549 0 l 115 0 m 22 297 l 22 349 l 315 613 l 315 561 l 22 297 z "},"m":{"ha":943,"x_min":118,"x_max":825,"o":"m 118 0 l 118 826 l 171 826 l 481 139 l 463 139 l 771 826 l 825 826 l 825 0 l 779 0 l 779 785 l 800 785 l 496 113 l 446 113 l 140 783 l 163 783 l 163 0 l 118 0 z "},"ṃ":{"ha":943,"x_min":118,"x_max":825,"o":"m 118 0 l 118 826 l 171 826 l 481 139 l 463 139 l 771 826 l 825 826 l 825 0 l 779 0 l 779 785 l 800 785 l 496 113 l 446 113 l 140 783 l 163 783 l 163 0 l 118 0 z "},"n":{"ha":782,"x_min":115,"x_max":667,"o":"m 115 0 l 115 826 l 167 826 l 640 50 l 621 50 l 621 826 l 667 826 l 667 0 l 615 0 l 142 776 l 161 776 l 161 0 l 115 0 z "},"ń":{"ha":782,"x_min":115,"x_max":667,"o":"m 115 0 l 115 826 l 167 826 l 640 50 l 621 50 l 621 826 l 667 826 l 667 0 l 615 0 l 142 776 l 161 776 l 161 0 l 115 0 z "},"ň":{"ha":782,"x_min":115,"x_max":667,"o":"m 115 0 l 115 826 l 167 826 l 640 50 l 621 50 l 621 826 l 667 826 l 667 0 l 615 0 l 142 776 l 161 776 l 161 0 l 115 0 z "},"ņ":{"ha":782,"x_min":115,"x_max":667,"o":"m 115 0 l 115 826 l 167 826 l 640 50 l 621 50 l 621 826 l 667 826 l 667 0 l 615 0 l 142 776 l 161 776 l 161 0 l 115 0 z "},"ṅ":{"ha":782,"x_min":115,"x_max":667,"o":"m 115 0 l 115 826 l 167 826 l 640 50 l 621 50 l 621 826 l 667 826 l 667 0 l 615 0 l 142 776 l 161 776 l 161 0 l 115 0 z "},"ṇ":{"ha":782,"x_min":115,"x_max":667,"o":"m 115 0 l 115 826 l 167 826 l 640 50 l 621 50 l 621 826 l 667 826 l 667 0 l 615 0 l 142 776 l 161 776 l 161 0 l 115 0 z "},"ŋ":{"ha":782,"x_min":115,"x_max":667,"o":"m 115 0 l 115 826 l 167 826 l 640 50 l 628 -22 l 142 776 l 161 776 l 161 0 l 115 0 m 554 -319 l 521 -296 q 578 -194 556 -243 q 611 -92 601 -146 q 621 31 621 -38 l 621 826 l 667 826 l 667 17 q 655 -104 667 -49 q 619 -211 644 -159 q 554 -319 594 -262 z "},"ǌ":{"ha":1060,"x_min":115,"x_max":944,"o":"m 115 0 l 115 826 l 167 826 l 640 50 l 621 50 l 621 826 l 667 826 l 667 0 l 615 0 l 142 776 l 161 776 l 161 0 l 115 0 m 831 -190 l 797 -167 q 855 -65 833 -114 q 887 37 877 -17 q 897 160 897 91 l 897 826 l 944 826 l 944 146 q 933 25 944 80 q 895 -82 921 -30 q 831 -190 870 -133 z "},"ṉ":{"ha":782,"x_min":115,"x_max":667,"o":"m 115 0 l 115 826 l 167 826 l 640 50 l 621 50 l 621 826 l 667 826 l 667 0 l 615 0 l 142 776 l 161 776 l 161 0 l 115 0 z "},"ñ":{"ha":782,"x_min":115,"x_max":667,"o":"m 115 0 l 115 826 l 167 826 l 640 50 l 621 50 l 621 826 l 667 826 l 667 0 l 615 0 l 142 776 l 161 776 l 161 0 l 115 0 z "},"o":{"ha":719,"x_min":69,"x_max":650,"o":"m 360 -10 q 206 31 272 -10 q 105 165 141 72 q 69 413 69 258 q 105 661 69 568 q 206 795 141 754 q 360 836 272 836 q 514 795 449 836 q 615 661 579 754 q 650 413 650 568 q 615 165 650 258 q 514 31 579 72 q 360 -10 449 -10 m 360 35 q 487 69 433 35 q 572 185 542 103 q 601 411 601 267 q 572 641 601 558 q 487 758 542 724 q 360 792 433 792 q 233 758 288 792 q 149 642 179 724 q 119 415 119 560 q 149 186 119 269 q 233 69 179 103 q 360 35 288 35 z "},"ó":{"ha":719,"x_min":69,"x_max":650,"o":"m 360 -10 q 206 31 272 -10 q 105 165 141 72 q 69 413 69 258 q 105 661 69 568 q 206 795 141 754 q 360 836 272 836 q 514 795 449 836 q 615 661 579 754 q 650 413 650 568 q 615 165 650 258 q 514 31 579 72 q 360 -10 449 -10 m 360 35 q 487 69 433 35 q 572 185 542 103 q 601 411 601 267 q 572 641 601 558 q 487 758 542 724 q 360 792 433 792 q 233 758 288 792 q 149 642 179 724 q 119 415 119 560 q 149 186 119 269 q 233 69 179 103 q 360 35 288 35 z "},"ŏ":{"ha":719,"x_min":69,"x_max":650,"o":"m 360 -10 q 206 31 272 -10 q 105 165 141 72 q 69 413 69 258 q 105 661 69 568 q 206 795 141 754 q 360 836 272 836 q 514 795 449 836 q 615 661 579 754 q 650 413 650 568 q 615 165 650 258 q 514 31 579 72 q 360 -10 449 -10 m 360 35 q 487 69 433 35 q 572 185 542 103 q 601 411 601 267 q 572 641 601 558 q 487 758 542 724 q 360 792 433 792 q 233 758 288 792 q 149 642 179 724 q 119 415 119 560 q 149 186 119 269 q 233 69 179 103 q 360 35 288 35 z "},"ô":{"ha":719,"x_min":69,"x_max":650,"o":"m 360 -10 q 206 31 272 -10 q 105 165 141 72 q 69 413 69 258 q 105 661 69 568 q 206 795 141 754 q 360 836 272 836 q 514 795 449 836 q 615 661 579 754 q 650 413 650 568 q 615 165 650 258 q 514 31 579 72 q 360 -10 449 -10 m 360 35 q 487 69 433 35 q 572 185 542 103 q 601 411 601 267 q 572 641 601 558 q 487 758 542 724 q 360 792 433 792 q 233 758 288 792 q 149 642 179 724 q 119 415 119 560 q 149 186 119 269 q 233 69 179 103 q 360 35 288 35 z "},"ố":{"ha":719,"x_min":69,"x_max":650,"o":"m 360 -10 q 206 31 272 -10 q 105 165 141 72 q 69 413 69 258 q 105 661 69 568 q 206 795 141 754 q 360 836 272 836 q 514 795 449 836 q 615 661 579 754 q 650 413 650 568 q 615 165 650 258 q 514 31 579 72 q 360 -10 449 -10 m 360 35 q 487 69 433 35 q 572 185 542 103 q 601 411 601 267 q 572 641 601 558 q 487 758 542 724 q 360 792 433 792 q 233 758 288 792 q 149 642 179 724 q 119 415 119 560 q 149 186 119 269 q 233 69 179 103 q 360 35 288 35 z "},"ộ":{"ha":719,"x_min":69,"x_max":650,"o":"m 360 -10 q 206 31 272 -10 q 105 165 141 72 q 69 413 69 258 q 105 661 69 568 q 206 795 141 754 q 360 836 272 836 q 514 795 449 836 q 615 661 579 754 q 650 413 650 568 q 615 165 650 258 q 514 31 579 72 q 360 -10 449 -10 m 360 35 q 487 69 433 35 q 572 185 542 103 q 601 411 601 267 q 572 641 601 558 q 487 758 542 724 q 360 792 433 792 q 233 758 288 792 q 149 642 179 724 q 119 415 119 560 q 149 186 119 269 q 233 69 179 103 q 360 35 288 35 z "},"ồ":{"ha":719,"x_min":69,"x_max":650,"o":"m 360 -10 q 206 31 272 -10 q 105 165 141 72 q 69 413 69 258 q 105 661 69 568 q 206 795 141 754 q 360 836 272 836 q 514 795 449 836 q 615 661 579 754 q 650 413 650 568 q 615 165 650 258 q 514 31 579 72 q 360 -10 449 -10 m 360 35 q 487 69 433 35 q 572 185 542 103 q 601 411 601 267 q 572 641 601 558 q 487 758 542 724 q 360 792 433 792 q 233 758 288 792 q 149 642 179 724 q 119 415 119 560 q 149 186 119 269 q 233 69 179 103 q 360 35 288 35 z "},"ổ":{"ha":719,"x_min":69,"x_max":650,"o":"m 360 -10 q 206 31 272 -10 q 105 165 141 72 q 69 413 69 258 q 105 661 69 568 q 206 795 141 754 q 360 836 272 836 q 514 795 449 836 q 615 661 579 754 q 650 413 650 568 q 615 165 650 258 q 514 31 579 72 q 360 -10 449 -10 m 360 35 q 487 69 433 35 q 572 185 542 103 q 601 411 601 267 q 572 641 601 558 q 487 758 542 724 q 360 792 433 792 q 233 758 288 792 q 149 642 179 724 q 119 415 119 560 q 149 186 119 269 q 233 69 179 103 q 360 35 288 35 z "},"ỗ":{"ha":719,"x_min":69,"x_max":650,"o":"m 360 -10 q 206 31 272 -10 q 105 165 141 72 q 69 413 69 258 q 105 661 69 568 q 206 795 141 754 q 360 836 272 836 q 514 795 449 836 q 615 661 579 754 q 650 413 650 568 q 615 165 650 258 q 514 31 579 72 q 360 -10 449 -10 m 360 35 q 487 69 433 35 q 572 185 542 103 q 601 411 601 267 q 572 641 601 558 q 487 758 542 724 q 360 792 433 792 q 233 758 288 792 q 149 642 179 724 q 119 415 119 560 q 149 186 119 269 q 233 69 179 103 q 360 35 288 35 z "},"ȍ":{"ha":719,"x_min":69,"x_max":650,"o":"m 360 -10 q 206 31 272 -10 q 105 165 141 72 q 69 413 69 258 q 105 661 69 568 q 206 795 141 754 q 360 836 272 836 q 514 795 449 836 q 615 661 579 754 q 650 413 650 568 q 615 165 650 258 q 514 31 579 72 q 360 -10 449 -10 m 360 35 q 487 69 433 35 q 572 185 542 103 q 601 411 601 267 q 572 641 601 558 q 487 758 542 724 q 360 792 433 792 q 233 758 288 792 q 149 642 179 724 q 119 415 119 560 q 149 186 119 269 q 233 69 179 103 q 360 35 288 35 z "},"ö":{"ha":719,"x_min":69,"x_max":650,"o":"m 360 -10 q 206 31 272 -10 q 105 165 141 72 q 69 413 69 258 q 105 661 69 568 q 206 795 141 754 q 360 836 272 836 q 514 795 449 836 q 615 661 579 754 q 650 413 650 568 q 615 165 650 258 q 514 31 579 72 q 360 -10 449 -10 m 360 35 q 487 69 433 35 q 572 185 542 103 q 601 411 601 267 q 572 641 601 558 q 487 758 542 724 q 360 792 433 792 q 233 758 288 792 q 149 642 179 724 q 119 415 119 560 q 149 186 119 269 q 233 69 179 103 q 360 35 288 35 z "},"ȫ":{"ha":719,"x_min":69,"x_max":650,"o":"m 360 -10 q 206 31 272 -10 q 105 165 141 72 q 69 413 69 258 q 105 661 69 568 q 206 795 141 754 q 360 836 272 836 q 514 795 449 836 q 615 661 579 754 q 650 413 650 568 q 615 165 650 258 q 514 31 579 72 q 360 -10 449 -10 m 360 35 q 487 69 433 35 q 572 185 542 103 q 601 411 601 267 q 572 641 601 558 q 487 758 542 724 q 360 792 433 792 q 233 758 288 792 q 149 642 179 724 q 119 415 119 560 q 149 186 119 269 q 233 69 179 103 q 360 35 288 35 z "},"ȱ":{"ha":719,"x_min":69,"x_max":650,"o":"m 360 -10 q 206 31 272 -10 q 105 165 141 72 q 69 413 69 258 q 105 661 69 568 q 206 795 141 754 q 360 836 272 836 q 514 795 449 836 q 615 661 579 754 q 650 413 650 568 q 615 165 650 258 q 514 31 579 72 q 360 -10 449 -10 m 360 35 q 487 69 433 35 q 572 185 542 103 q 601 411 601 267 q 572 641 601 558 q 487 758 542 724 q 360 792 433 792 q 233 758 288 792 q 149 642 179 724 q 119 415 119 560 q 149 186 119 269 q 233 69 179 103 q 360 35 288 35 z "},"ọ":{"ha":719,"x_min":69,"x_max":650,"o":"m 360 -10 q 206 31 272 -10 q 105 165 141 72 q 69 413 69 258 q 105 661 69 568 q 206 795 141 754 q 360 836 272 836 q 514 795 449 836 q 615 661 579 754 q 650 413 650 568 q 615 165 650 258 q 514 31 579 72 q 360 -10 449 -10 m 360 35 q 487 69 433 35 q 572 185 542 103 q 601 411 601 267 q 572 641 601 558 q 487 758 542 724 q 360 792 433 792 q 233 758 288 792 q 149 642 179 724 q 119 415 119 560 q 149 186 119 269 q 233 69 179 103 q 360 35 288 35 z "},"ò":{"ha":719,"x_min":69,"x_max":650,"o":"m 360 -10 q 206 31 272 -10 q 105 165 141 72 q 69 413 69 258 q 105 661 69 568 q 206 795 141 754 q 360 836 272 836 q 514 795 449 836 q 615 661 579 754 q 650 413 650 568 q 615 165 650 258 q 514 31 579 72 q 360 -10 449 -10 m 360 35 q 487 69 433 35 q 572 185 542 103 q 601 411 601 267 q 572 641 601 558 q 487 758 542 724 q 360 792 433 792 q 233 758 288 792 q 149 642 179 724 q 119 415 119 560 q 149 186 119 269 q 233 69 179 103 q 360 35 288 35 z "},"ỏ":{"ha":719,"x_min":69,"x_max":650,"o":"m 360 -10 q 206 31 272 -10 q 105 165 141 72 q 69 413 69 258 q 105 661 69 568 q 206 795 141 754 q 360 836 272 836 q 514 795 449 836 q 615 661 579 754 q 650 413 650 568 q 615 165 650 258 q 514 31 579 72 q 360 -10 449 -10 m 360 35 q 487 69 433 35 q 572 185 542 103 q 601 411 601 267 q 572 641 601 558 q 487 758 542 724 q 360 792 433 792 q 233 758 288 792 q 149 642 179 724 q 119 415 119 560 q 149 186 119 269 q 233 69 179 103 q 360 35 288 35 z "},"ơ":{"ha":719,"x_min":69,"x_max":650,"o":"m 360 -10 q 207 31 272 -10 q 106 165 142 72 q 69 413 69 258 q 105 661 69 568 q 206 795 141 754 q 360 836 272 836 q 409 833 385 836 q 457 827 433 830 q 503 824 480 824 q 577 845 548 824 q 607 913 607 866 q 603 954 607 935 q 593 992 599 972 l 636 992 q 646 954 642 972 q 650 911 650 936 q 610 816 650 849 q 510 783 570 783 l 514 793 q 614 658 578 751 q 650 413 650 566 q 614 165 650 258 q 513 31 578 72 q 360 -10 447 -10 m 360 35 q 487 69 433 35 q 572 185 542 103 q 601 411 601 267 q 572 641 601 558 q 487 758 542 724 q 360 792 433 792 q 233 758 288 792 q 149 642 179 724 q 119 415 119 560 q 149 186 119 269 q 233 69 179 103 q 360 35 288 35 z "},"ớ":{"ha":719,"x_min":69,"x_max":650,"o":"m 360 -10 q 207 31 272 -10 q 106 165 142 72 q 69 413 69 258 q 105 661 69 568 q 206 795 141 754 q 360 836 272 836 q 409 833 385 836 q 457 827 433 830 q 503 824 480 824 q 577 845 548 824 q 607 913 607 866 q 603 954 607 935 q 593 992 599 972 l 636 992 q 646 954 642 972 q 650 911 650 936 q 610 816 650 849 q 510 783 570 783 l 514 793 q 614 658 578 751 q 650 413 650 566 q 614 165 650 258 q 513 31 578 72 q 360 -10 447 -10 m 360 35 q 487 69 433 35 q 572 185 542 103 q 601 411 601 267 q 572 641 601 558 q 487 758 542 724 q 360 792 433 792 q 233 758 288 792 q 149 642 179 724 q 119 415 119 560 q 149 186 119 269 q 233 69 179 103 q 360 35 288 35 z "},"ợ":{"ha":719,"x_min":69,"x_max":650,"o":"m 360 -10 q 207 31 272 -10 q 106 165 142 72 q 69 413 69 258 q 105 661 69 568 q 206 795 141 754 q 360 836 272 836 q 409 833 385 836 q 457 827 433 830 q 503 824 480 824 q 577 845 548 824 q 607 913 607 866 q 603 954 607 935 q 593 992 599 972 l 636 992 q 646 954 642 972 q 650 911 650 936 q 610 816 650 849 q 510 783 570 783 l 514 793 q 614 658 578 751 q 650 413 650 566 q 614 165 650 258 q 513 31 578 72 q 360 -10 447 -10 m 360 35 q 487 69 433 35 q 572 185 542 103 q 601 411 601 267 q 572 641 601 558 q 487 758 542 724 q 360 792 433 792 q 233 758 288 792 q 149 642 179 724 q 119 415 119 560 q 149 186 119 269 q 233 69 179 103 q 360 35 288 35 z "},"ờ":{"ha":719,"x_min":69,"x_max":650,"o":"m 360 -10 q 207 31 272 -10 q 106 165 142 72 q 69 413 69 258 q 105 661 69 568 q 206 795 141 754 q 360 836 272 836 q 409 833 385 836 q 457 827 433 830 q 503 824 480 824 q 577 845 548 824 q 607 913 607 866 q 603 954 607 935 q 593 992 599 972 l 636 992 q 646 954 642 972 q 650 911 650 936 q 610 816 650 849 q 510 783 570 783 l 514 793 q 614 658 578 751 q 650 413 650 566 q 614 165 650 258 q 513 31 578 72 q 360 -10 447 -10 m 360 35 q 487 69 433 35 q 572 185 542 103 q 601 411 601 267 q 572 641 601 558 q 487 758 542 724 q 360 792 433 792 q 233 758 288 792 q 149 642 179 724 q 119 415 119 560 q 149 186 119 269 q 233 69 179 103 q 360 35 288 35 z "},"ở":{"ha":719,"x_min":69,"x_max":650,"o":"m 360 -10 q 207 31 272 -10 q 106 165 142 72 q 69 413 69 258 q 105 661 69 568 q 206 795 141 754 q 360 836 272 836 q 409 833 385 836 q 457 827 433 830 q 503 824 480 824 q 577 845 548 824 q 607 913 607 866 q 603 954 607 935 q 593 992 599 972 l 636 992 q 646 954 642 972 q 650 911 650 936 q 610 816 650 849 q 510 783 570 783 l 514 793 q 614 658 578 751 q 650 413 650 566 q 614 165 650 258 q 513 31 578 72 q 360 -10 447 -10 m 360 35 q 487 69 433 35 q 572 185 542 103 q 601 411 601 267 q 572 641 601 558 q 487 758 542 724 q 360 792 433 792 q 233 758 288 792 q 149 642 179 724 q 119 415 119 560 q 149 186 119 269 q 233 69 179 103 q 360 35 288 35 z "},"ỡ":{"ha":719,"x_min":69,"x_max":650,"o":"m 360 -10 q 207 31 272 -10 q 106 165 142 72 q 69 413 69 258 q 105 661 69 568 q 206 795 141 754 q 360 836 272 836 q 409 833 385 836 q 457 827 433 830 q 503 824 480 824 q 577 845 548 824 q 607 913 607 866 q 603 954 607 935 q 593 992 599 972 l 636 992 q 646 954 642 972 q 650 911 650 936 q 610 816 650 849 q 510 783 570 783 l 514 793 q 614 658 578 751 q 650 413 650 566 q 614 165 650 258 q 513 31 578 72 q 360 -10 447 -10 m 360 35 q 487 69 433 35 q 572 185 542 103 q 601 411 601 267 q 572 641 601 558 q 487 758 542 724 q 360 792 433 792 q 233 758 288 792 q 149 642 179 724 q 119 415 119 560 q 149 186 119 269 q 233 69 179 103 q 360 35 288 35 m 449 976 q 384 990 414 976 q 327 1017 355 1003 q 271 1031 299 1031 q 220 1018 242 1031 q 178 981 198 1006 l 178 1026 q 217 1058 194 1047 q 271 1069 241 1069 q 335 1056 306 1069 q 393 1029 365 1042 q 449 1015 420 1015 q 500 1028 478 1015 q 542 1065 522 1040 l 542 1019 q 503 988 526 1000 q 449 976 479 976 z "},"ő":{"ha":719,"x_min":69,"x_max":650,"o":"m 360 -10 q 206 31 272 -10 q 105 165 141 72 q 69 413 69 258 q 105 661 69 568 q 206 795 141 754 q 360 836 272 836 q 514 795 449 836 q 615 661 579 754 q 650 413 650 568 q 615 165 650 258 q 514 31 579 72 q 360 -10 449 -10 m 360 35 q 487 69 433 35 q 572 185 542 103 q 601 411 601 267 q 572 641 601 558 q 487 758 542 724 q 360 792 433 792 q 233 758 288 792 q 149 642 179 724 q 119 415 119 560 q 149 186 119 269 q 233 69 179 103 q 360 35 288 35 z "},"ȏ":{"ha":719,"x_min":69,"x_max":650,"o":"m 360 -10 q 206 31 272 -10 q 105 165 141 72 q 69 413 69 258 q 105 661 69 568 q 206 795 141 754 q 360 836 272 836 q 514 795 449 836 q 615 661 579 754 q 650 413 650 568 q 615 165 650 258 q 514 31 579 72 q 360 -10 449 -10 m 360 35 q 487 69 433 35 q 572 185 542 103 q 601 411 601 267 q 572 641 601 558 q 487 758 542 724 q 360 792 433 792 q 233 758 288 792 q 149 642 179 724 q 119 415 119 560 q 149 186 119 269 q 233 69 179 103 q 360 35 288 35 z "},"ō":{"ha":719,"x_min":69,"x_max":650,"o":"m 360 -10 q 206 31 272 -10 q 105 165 141 72 q 69 413 69 258 q 105 661 69 568 q 206 795 141 754 q 360 836 272 836 q 514 795 449 836 q 615 661 579 754 q 650 413 650 568 q 615 165 650 258 q 514 31 579 72 q 360 -10 449 -10 m 360 35 q 487 69 433 35 q 572 185 542 103 q 601 411 601 267 q 572 641 601 558 q 487 758 542 724 q 360 792 433 792 q 233 758 288 792 q 149 642 179 724 q 119 415 119 560 q 149 186 119 269 q 233 69 179 103 q 360 35 288 35 z "},"ṓ":{"ha":719,"x_min":69,"x_max":650,"o":"m 360 -10 q 206 31 272 -10 q 105 165 141 72 q 69 413 69 258 q 105 661 69 568 q 206 795 141 754 q 360 836 272 836 q 514 795 449 836 q 615 661 579 754 q 650 413 650 568 q 615 165 650 258 q 514 31 579 72 q 360 -10 449 -10 m 360 35 q 487 69 433 35 q 572 185 542 103 q 601 411 601 267 q 572 641 601 558 q 487 758 542 724 q 360 792 433 792 q 233 758 288 792 q 149 642 179 724 q 119 415 119 560 q 149 186 119 269 q 233 69 179 103 q 360 35 288 35 z "},"ṑ":{"ha":719,"x_min":69,"x_max":650,"o":"m 360 -10 q 206 31 272 -10 q 105 165 141 72 q 69 413 69 258 q 105 661 69 568 q 206 795 141 754 q 360 836 272 836 q 514 795 449 836 q 615 661 579 754 q 650 413 650 568 q 615 165 650 258 q 514 31 579 72 q 360 -10 449 -10 m 360 35 q 487 69 433 35 q 572 185 542 103 q 601 411 601 267 q 572 641 601 558 q 487 758 542 724 q 360 792 433 792 q 233 758 288 792 q 149 642 179 724 q 119 415 119 560 q 149 186 119 269 q 233 69 179 103 q 360 35 288 35 z "},"ǫ":{"ha":719,"x_min":69,"x_max":650,"o":"m 418 -278 q 317 -248 353 -278 q 281 -161 281 -218 q 292 -102 281 -131 q 326 -49 303 -74 q 385 0 349 -23 l 389 -10 l 360 -10 q 206 31 272 -10 q 105 165 141 72 q 69 413 69 258 q 105 661 69 568 q 206 795 141 754 q 360 836 272 836 q 514 795 449 836 q 615 661 579 754 q 650 413 650 568 q 631 219 650 299 q 575 89 612 139 q 486 15 538 39 q 381 -45 417 -16 q 332 -102 345 -74 q 319 -158 319 -131 q 344 -221 319 -201 q 417 -242 369 -242 q 463 -235 439 -242 q 519 -214 488 -229 l 519 -251 q 468 -271 494 -265 q 418 -278 443 -278 m 360 35 q 487 69 433 35 q 572 185 542 103 q 601 411 601 267 q 572 641 601 558 q 487 758 542 724 q 360 792 433 792 q 233 758 288 792 q 149 642 179 724 q 119 415 119 560 q 149 186 119 269 q 233 69 179 103 q 360 35 288 35 z "},"ø":{"ha":719,"x_min":69,"x_max":650,"o":"m 118 0 l 70 0 l 601 826 l 649 826 l 118 0 m 360 -10 q 206 31 272 -10 q 105 165 141 72 q 69 413 69 258 q 105 661 69 568 q 206 795 141 754 q 360 836 272 836 q 514 795 449 836 q 615 661 579 754 q 650 413 650 568 q 615 165 650 258 q 514 31 579 72 q 360 -10 449 -10 m 360 35 q 487 69 433 35 q 572 185 542 103 q 601 411 601 267 q 572 641 601 558 q 487 758 542 724 q 360 792 433 792 q 233 758 288 792 q 149 642 179 724 q 119 415 119 560 q 149 186 119 269 q 233 69 179 103 q 360 35 288 35 z "},"ǿ":{"ha":719,"x_min":69,"x_max":650,"o":"m 118 0 l 70 0 l 601 826 l 649 826 l 118 0 m 360 -10 q 206 31 272 -10 q 105 165 141 72 q 69 413 69 258 q 105 661 69 568 q 206 795 141 754 q 360 836 272 836 q 514 795 449 836 q 615 661 579 754 q 650 413 650 568 q 615 165 650 258 q 514 31 579 72 q 360 -10 449 -10 m 360 35 q 487 69 433 35 q 572 185 542 103 q 601 411 601 267 q 572 641 601 558 q 487 758 542 724 q 360 792 433 792 q 233 758 288 792 q 149 642 179 724 q 119 415 119 560 q 149 186 119 269 q 233 69 179 103 q 360 35 288 35 z "},"õ":{"ha":719,"x_min":69,"x_max":650,"o":"m 360 -10 q 206 31 272 -10 q 105 165 141 72 q 69 413 69 258 q 105 661 69 568 q 206 795 141 754 q 360 836 272 836 q 514 795 449 836 q 615 661 579 754 q 650 413 650 568 q 615 165 650 258 q 514 31 579 72 q 360 -10 449 -10 m 360 35 q 487 69 433 35 q 572 185 542 103 q 601 411 601 267 q 572 641 601 558 q 487 758 542 724 q 360 792 433 792 q 233 758 288 792 q 149 642 179 724 q 119 415 119 560 q 149 186 119 269 q 233 69 179 103 q 360 35 288 35 z "},"ṍ":{"ha":719,"x_min":69,"x_max":650,"o":"m 360 -10 q 206 31 272 -10 q 105 165 141 72 q 69 413 69 258 q 105 661 69 568 q 206 795 141 754 q 360 836 272 836 q 514 795 449 836 q 615 661 579 754 q 650 413 650 568 q 615 165 650 258 q 514 31 579 72 q 360 -10 449 -10 m 360 35 q 487 69 433 35 q 572 185 542 103 q 601 411 601 267 q 572 641 601 558 q 487 758 542 724 q 360 792 433 792 q 233 758 288 792 q 149 642 179 724 q 119 415 119 560 q 149 186 119 269 q 233 69 179 103 q 360 35 288 35 z "},"ṏ":{"ha":719,"x_min":69,"x_max":650,"o":"m 360 -10 q 206 31 272 -10 q 105 165 141 72 q 69 413 69 258 q 105 661 69 568 q 206 795 141 754 q 360 836 272 836 q 514 795 449 836 q 615 661 579 754 q 650 413 650 568 q 615 165 650 258 q 514 31 579 72 q 360 -10 449 -10 m 360 35 q 487 69 433 35 q 572 185 542 103 q 601 411 601 267 q 572 641 601 558 q 487 758 542 724 q 360 792 433 792 q 233 758 288 792 q 149 642 179 724 q 119 415 119 560 q 149 186 119 269 q 233 69 179 103 q 360 35 288 35 z "},"ȭ":{"ha":719,"x_min":69,"x_max":650,"o":"m 360 -10 q 206 31 272 -10 q 105 165 141 72 q 69 413 69 258 q 105 661 69 568 q 206 795 141 754 q 360 836 272 836 q 514 795 449 836 q 615 661 579 754 q 650 413 650 568 q 615 165 650 258 q 514 31 579 72 q 360 -10 449 -10 m 360 35 q 487 69 433 35 q 572 185 542 103 q 601 411 601 267 q 572 641 601 558 q 487 758 542 724 q 360 792 433 792 q 233 758 288 792 q 149 642 179 724 q 119 415 119 560 q 149 186 119 269 q 233 69 179 103 q 360 35 288 35 z "},"œ":{"ha":1004,"x_min":69,"x_max":979,"o":"m 446 -6 q 240 37 324 -6 q 113 172 156 80 q 69 413 69 264 q 110 651 69 558 q 232 789 151 744 q 431 833 312 833 q 513 830 478 833 q 574 826 548 826 l 974 826 l 974 782 l 592 782 l 592 44 l 979 44 l 979 0 l 576 0 q 520 -3 549 0 q 446 -6 492 -6 m 443 39 q 495 40 470 39 q 546 44 521 42 l 546 782 q 488 788 517 786 q 431 789 459 789 q 256 750 325 789 q 153 628 187 711 q 119 413 119 545 q 201 125 119 210 q 443 39 283 39 m 585 401 l 585 446 l 919 446 l 919 401 l 585 401 z "},"p":{"ha":660,"x_min":115,"x_max":594,"o":"m 115 0 l 115 819 q 198 830 154 826 q 288 835 242 835 q 517 767 440 835 q 594 558 594 700 q 514 355 594 424 q 265 285 434 285 q 213 286 238 285 q 163 289 188 287 l 163 0 l 115 0 m 268 329 q 478 385 411 329 q 546 557 546 442 q 483 735 546 679 q 289 790 420 790 q 224 788 256 790 q 163 782 193 786 l 163 335 q 215 331 189 332 q 268 329 241 329 z "},"þ":{"ha":667,"x_min":115,"x_max":594,"o":"m 115 0 l 115 826 l 163 826 l 163 690 q 219 696 185 694 q 288 699 252 699 q 517 632 440 699 q 594 424 594 565 q 514 220 594 290 q 265 150 434 150 q 213 151 238 150 q 163 154 188 152 l 163 0 l 115 0 m 268 193 q 478 250 411 193 q 546 421 546 306 q 483 600 546 544 q 289 656 420 656 q 224 653 256 656 q 163 646 193 650 l 163 199 q 215 194 189 196 q 268 193 241 193 z "},"q":{"ha":719,"x_min":69,"x_max":650,"o":"m 629 -107 q 406 -66 501 -91 q 247 -1 311 -40 q 143 94 182 38 q 87 229 104 151 q 69 413 69 308 q 105 661 69 568 q 206 795 141 754 q 360 836 272 836 q 514 795 449 836 q 615 661 579 754 q 650 413 650 568 q 630 215 650 299 q 567 80 609 132 q 464 7 526 28 q 318 -3 401 -14 l 310 15 q 411 -23 356 -8 q 524 -47 467 -37 q 636 -61 582 -56 l 629 -107 m 360 35 q 487 69 433 35 q 572 185 542 103 q 601 411 601 267 q 572 641 601 558 q 487 758 542 724 q 360 792 433 792 q 233 758 288 792 q 149 642 179 724 q 119 415 119 560 q 149 186 119 269 q 233 69 179 103 q 360 35 288 35 z "},"r":{"ha":694,"x_min":115,"x_max":664,"o":"m 115 0 l 115 819 q 200 830 156 826 q 299 835 244 835 q 520 776 447 835 q 593 600 593 717 q 557 466 594 520 q 446 385 520 413 q 264 358 372 358 q 212 359 240 358 q 163 363 183 360 l 163 0 l 115 0 m 603 0 l 310 389 l 368 389 l 664 0 l 603 0 m 261 401 q 478 450 411 401 q 546 599 546 499 q 488 743 546 696 q 296 790 431 790 q 227 788 258 790 q 163 781 196 786 l 163 406 q 214 402 192 403 q 261 401 235 401 z "},"ŕ":{"ha":694,"x_min":115,"x_max":664,"o":"m 115 0 l 115 819 q 200 830 156 826 q 299 835 244 835 q 520 776 447 835 q 593 600 593 717 q 557 466 594 520 q 446 385 520 413 q 264 358 372 358 q 212 359 240 358 q 163 363 183 360 l 163 0 l 115 0 m 603 0 l 310 389 l 368 389 l 664 0 l 603 0 m 261 401 q 478 450 411 401 q 546 599 546 499 q 488 743 546 696 q 296 790 431 790 q 227 788 258 790 q 163 781 196 786 l 163 406 q 214 402 192 403 q 261 401 235 401 z "},"ř":{"ha":694,"x_min":115,"x_max":664,"o":"m 115 0 l 115 819 q 200 830 156 826 q 299 835 244 835 q 520 776 447 835 q 593 600 593 717 q 557 466 594 520 q 446 385 520 413 q 264 358 372 358 q 212 359 240 358 q 163 363 183 360 l 163 0 l 115 0 m 603 0 l 310 389 l 368 389 l 664 0 l 603 0 m 261 401 q 478 450 411 401 q 546 599 546 499 q 488 743 546 696 q 296 790 431 790 q 227 788 258 790 q 163 781 196 786 l 163 406 q 214 402 192 403 q 261 401 235 401 z "},"ŗ":{"ha":694,"x_min":115,"x_max":664,"o":"m 115 0 l 115 819 q 200 830 156 826 q 299 835 244 835 q 520 776 447 835 q 593 600 593 717 q 557 466 594 520 q 446 385 520 413 q 264 358 372 358 q 212 359 240 358 q 163 363 183 360 l 163 0 l 115 0 m 603 0 l 310 389 l 368 389 l 664 0 l 603 0 m 261 401 q 478 450 411 401 q 546 599 546 499 q 488 743 546 696 q 296 790 431 790 q 227 788 258 790 q 163 781 196 786 l 163 406 q 214 402 192 403 q 261 401 235 401 z "},"ȑ":{"ha":694,"x_min":115,"x_max":664,"o":"m 115 0 l 115 819 q 200 830 156 826 q 299 835 244 835 q 520 776 447 835 q 593 600 593 717 q 557 466 594 520 q 446 385 520 413 q 264 358 372 358 q 212 359 240 358 q 163 363 183 360 l 163 0 l 115 0 m 603 0 l 310 389 l 368 389 l 664 0 l 603 0 m 261 401 q 478 450 411 401 q 546 599 546 499 q 488 743 546 696 q 296 790 431 790 q 227 788 258 790 q 163 781 196 786 l 163 406 q 214 402 192 403 q 261 401 235 401 z "},"ṛ":{"ha":694,"x_min":115,"x_max":664,"o":"m 115 0 l 115 819 q 200 830 156 826 q 299 835 244 835 q 520 776 447 835 q 593 600 593 717 q 557 466 594 520 q 446 385 520 413 q 264 358 372 358 q 212 359 240 358 q 163 363 183 360 l 163 0 l 115 0 m 603 0 l 310 389 l 368 389 l 664 0 l 603 0 m 261 401 q 478 450 411 401 q 546 599 546 499 q 488 743 546 696 q 296 790 431 790 q 227 788 258 790 q 163 781 196 786 l 163 406 q 214 402 192 403 q 261 401 235 401 z "},"ȓ":{"ha":694,"x_min":115,"x_max":664,"o":"m 115 0 l 115 819 q 200 830 156 826 q 299 835 244 835 q 520 776 447 835 q 593 600 593 717 q 557 466 594 520 q 446 385 520 413 q 264 358 372 358 q 212 359 240 358 q 163 363 183 360 l 163 0 l 115 0 m 603 0 l 310 389 l 368 389 l 664 0 l 603 0 m 261 401 q 478 450 411 401 q 546 599 546 499 q 488 743 546 696 q 296 790 431 790 q 227 788 258 790 q 163 781 196 786 l 163 406 q 214 402 192 403 q 261 401 235 401 z "},"ṟ":{"ha":694,"x_min":115,"x_max":664,"o":"m 115 0 l 115 819 q 200 830 156 826 q 299 835 244 835 q 520 776 447 835 q 593 600 593 717 q 557 466 594 520 q 446 385 520 413 q 264 358 372 358 q 212 359 240 358 q 163 363 183 360 l 163 0 l 115 0 m 603 0 l 310 389 l 368 389 l 664 0 l 603 0 m 261 401 q 478 450 411 401 q 546 599 546 499 q 488 743 546 696 q 296 790 431 790 q 227 788 258 790 q 163 781 196 786 l 163 406 q 214 402 192 403 q 261 401 235 401 z "},"s":{"ha":536,"x_min":49,"x_max":488,"o":"m 228 -10 q 145 -3 190 -10 q 58 18 100 3 l 58 65 q 118 48 89 55 q 175 38 147 42 q 231 35 203 35 q 345 55 299 35 q 415 113 392 74 q 439 210 439 152 q 424 289 439 256 q 376 347 410 322 q 285 389 342 371 l 249 400 q 99 482 149 431 q 49 622 49 532 q 78 737 49 689 q 166 810 108 785 q 308 836 224 836 q 385 831 344 836 q 456 817 426 826 l 456 769 q 381 786 417 781 q 307 792 344 792 q 191 772 237 792 q 122 715 144 752 q 99 625 99 678 q 134 513 99 552 q 261 446 169 474 l 297 435 q 402 386 360 415 q 466 314 444 356 q 488 213 488 271 q 457 91 488 141 q 369 16 427 42 q 228 -10 311 -10 z "},"ś":{"ha":536,"x_min":49,"x_max":488,"o":"m 228 -10 q 145 -3 190 -10 q 58 18 100 3 l 58 65 q 118 48 89 55 q 175 38 147 42 q 231 35 203 35 q 345 55 299 35 q 415 113 392 74 q 439 210 439 152 q 424 289 439 256 q 376 347 410 322 q 285 389 342 371 l 249 400 q 99 482 149 431 q 49 622 49 532 q 78 737 49 689 q 166 810 108 785 q 308 836 224 836 q 385 831 344 836 q 456 817 426 826 l 456 769 q 381 786 417 781 q 307 792 344 792 q 191 772 237 792 q 122 715 144 752 q 99 625 99 678 q 134 513 99 552 q 261 446 169 474 l 297 435 q 402 386 360 415 q 466 314 444 356 q 488 213 488 271 q 457 91 488 141 q 369 16 427 42 q 228 -10 311 -10 z "},"ṥ":{"ha":536,"x_min":49,"x_max":488,"o":"m 228 -10 q 145 -3 190 -10 q 58 18 100 3 l 58 65 q 118 48 89 55 q 175 38 147 42 q 231 35 203 35 q 345 55 299 35 q 415 113 392 74 q 439 210 439 152 q 424 289 439 256 q 376 347 410 322 q 285 389 342 371 l 249 400 q 99 482 149 431 q 49 622 49 532 q 78 737 49 689 q 166 810 108 785 q 308 836 224 836 q 385 831 344 836 q 456 817 426 826 l 456 769 q 381 786 417 781 q 307 792 344 792 q 191 772 237 792 q 122 715 144 752 q 99 625 99 678 q 134 513 99 552 q 261 446 169 474 l 297 435 q 402 386 360 415 q 466 314 444 356 q 488 213 488 271 q 457 91 488 141 q 369 16 427 42 q 228 -10 311 -10 z "},"š":{"ha":536,"x_min":49,"x_max":488,"o":"m 228 -10 q 145 -3 190 -10 q 58 18 100 3 l 58 65 q 118 48 89 55 q 175 38 147 42 q 231 35 203 35 q 345 55 299 35 q 415 113 392 74 q 439 210 439 152 q 424 289 439 256 q 376 347 410 322 q 285 389 342 371 l 249 400 q 99 482 149 431 q 49 622 49 532 q 78 737 49 689 q 166 810 108 785 q 308 836 224 836 q 385 831 344 836 q 456 817 426 826 l 456 769 q 381 786 417 781 q 307 792 344 792 q 191 772 237 792 q 122 715 144 752 q 99 625 99 678 q 134 513 99 552 q 261 446 169 474 l 297 435 q 402 386 360 415 q 466 314 444 356 q 488 213 488 271 q 457 91 488 141 q 369 16 427 42 q 228 -10 311 -10 z "},"ṧ":{"ha":536,"x_min":49,"x_max":488,"o":"m 228 -10 q 145 -3 190 -10 q 58 18 100 3 l 58 65 q 118 48 89 55 q 175 38 147 42 q 231 35 203 35 q 345 55 299 35 q 415 113 392 74 q 439 210 439 152 q 424 289 439 256 q 376 347 410 322 q 285 389 342 371 l 249 400 q 99 482 149 431 q 49 622 49 532 q 78 737 49 689 q 166 810 108 785 q 308 836 224 836 q 385 831 344 836 q 456 817 426 826 l 456 769 q 381 786 417 781 q 307 792 344 792 q 191 772 237 792 q 122 715 144 752 q 99 625 99 678 q 134 513 99 552 q 261 446 169 474 l 297 435 q 402 386 360 415 q 466 314 444 356 q 488 213 488 271 q 457 91 488 141 q 369 16 427 42 q 228 -10 311 -10 z "},"ş":{"ha":536,"x_min":49,"x_max":488,"o":"m 228 -10 q 145 -3 190 -10 q 58 18 100 3 l 58 65 q 118 48 89 55 q 175 38 147 42 q 231 35 203 35 q 345 55 299 35 q 415 113 392 74 q 439 210 439 152 q 424 289 439 256 q 376 347 410 322 q 285 389 342 371 l 249 400 q 99 482 149 431 q 49 622 49 532 q 78 737 49 689 q 166 810 108 785 q 308 836 224 836 q 385 831 344 836 q 456 817 426 826 l 456 769 q 381 786 417 781 q 307 792 344 792 q 191 772 237 792 q 122 715 144 752 q 99 625 99 678 q 134 513 99 552 q 261 446 169 474 l 297 435 q 402 386 360 415 q 466 314 444 356 q 488 213 488 271 q 457 91 488 141 q 369 16 427 42 q 228 -10 311 -10 z "},"ŝ":{"ha":536,"x_min":49,"x_max":488,"o":"m 228 -10 q 145 -3 190 -10 q 58 18 100 3 l 58 65 q 118 48 89 55 q 175 38 147 42 q 231 35 203 35 q 345 55 299 35 q 415 113 392 74 q 439 210 439 152 q 424 289 439 256 q 376 347 410 322 q 285 389 342 371 l 249 400 q 99 482 149 431 q 49 622 49 532 q 78 737 49 689 q 166 810 108 785 q 308 836 224 836 q 385 831 344 836 q 456 817 426 826 l 456 769 q 381 786 417 781 q 307 792 344 792 q 191 772 237 792 q 122 715 144 752 q 99 625 99 678 q 134 513 99 552 q 261 446 169 474 l 297 435 q 402 386 360 415 q 466 314 444 356 q 488 213 488 271 q 457 91 488 141 q 369 16 427 42 q 228 -10 311 -10 z "},"ș":{"ha":536,"x_min":49,"x_max":488,"o":"m 228 -10 q 145 -3 190 -10 q 58 18 100 3 l 58 65 q 118 48 89 55 q 175 38 147 42 q 231 35 203 35 q 345 55 299 35 q 415 113 392 74 q 439 210 439 152 q 424 289 439 256 q 376 347 410 322 q 285 389 342 371 l 249 400 q 99 482 149 431 q 49 622 49 532 q 78 737 49 689 q 166 810 108 785 q 308 836 224 836 q 385 831 344 836 q 456 817 426 826 l 456 769 q 381 786 417 781 q 307 792 344 792 q 191 772 237 792 q 122 715 144 752 q 99 625 99 678 q 134 513 99 552 q 261 446 169 474 l 297 435 q 402 386 360 415 q 466 314 444 356 q 488 213 488 271 q 457 91 488 141 q 369 16 427 42 q 228 -10 311 -10 z "},"ṡ":{"ha":536,"x_min":49,"x_max":488,"o":"m 228 -10 q 145 -3 190 -10 q 58 18 100 3 l 58 65 q 118 48 89 55 q 175 38 147 42 q 231 35 203 35 q 345 55 299 35 q 415 113 392 74 q 439 210 439 152 q 424 289 439 256 q 376 347 410 322 q 285 389 342 371 l 249 400 q 99 482 149 431 q 49 622 49 532 q 78 737 49 689 q 166 810 108 785 q 308 836 224 836 q 385 831 344 836 q 456 817 426 826 l 456 769 q 381 786 417 781 q 307 792 344 792 q 191 772 237 792 q 122 715 144 752 q 99 625 99 678 q 134 513 99 552 q 261 446 169 474 l 297 435 q 402 386 360 415 q 466 314 444 356 q 488 213 488 271 q 457 91 488 141 q 369 16 427 42 q 228 -10 311 -10 z "},"ṣ":{"ha":536,"x_min":49,"x_max":488,"o":"m 228 -10 q 145 -3 190 -10 q 58 18 100 3 l 58 65 q 118 48 89 55 q 175 38 147 42 q 231 35 203 35 q 345 55 299 35 q 415 113 392 74 q 439 210 439 152 q 424 289 439 256 q 376 347 410 322 q 285 389 342 371 l 249 400 q 99 482 149 431 q 49 622 49 532 q 78 737 49 689 q 166 810 108 785 q 308 836 224 836 q 385 831 344 836 q 456 817 426 826 l 456 769 q 381 786 417 781 q 307 792 344 792 q 191 772 237 792 q 122 715 144 752 q 99 625 99 678 q 134 513 99 552 q 261 446 169 474 l 297 435 q 402 386 360 415 q 466 314 444 356 q 488 213 488 271 q 457 91 488 141 q 369 16 427 42 q 228 -10 311 -10 z "},"ṩ":{"ha":536,"x_min":49,"x_max":488,"o":"m 228 -10 q 145 -3 190 -10 q 58 18 100 3 l 58 65 q 118 48 89 55 q 175 38 147 42 q 231 35 203 35 q 345 55 299 35 q 415 113 392 74 q 439 210 439 152 q 424 289 439 256 q 376 347 410 322 q 285 389 342 371 l 249 400 q 99 482 149 431 q 49 622 49 532 q 78 737 49 689 q 166 810 108 785 q 308 836 224 836 q 385 831 344 836 q 456 817 426 826 l 456 769 q 381 786 417 781 q 307 792 344 792 q 191 772 237 792 q 122 715 144 752 q 99 625 99 678 q 134 513 99 552 q 261 446 169 474 l 297 435 q 402 386 360 415 q 466 314 444 356 q 488 213 488 271 q 457 91 488 141 q 369 16 427 42 q 228 -10 311 -10 z "},"ß":{"ha":678,"x_min":89,"x_max":630,"o":"m 568 767 l 568 741 l 328 424 l 327 438 q 356 442 342 441 q 387 442 369 442 q 511 419 456 442 q 598 349 566 397 q 630 224 630 301 q 602 99 630 151 q 520 18 574 47 q 389 -10 466 -10 q 311 -3 352 -10 q 230 18 269 3 l 230 63 q 285 46 258 53 q 337 36 312 40 q 386 33 363 33 q 532 83 483 33 q 581 224 581 133 q 528 356 581 311 q 372 401 476 401 q 324 399 347 401 q 274 393 300 397 l 274 421 l 533 765 l 531 742 q 445 780 493 767 q 340 794 397 794 q 228 768 274 794 q 159 691 183 743 q 136 559 136 640 l 136 0 l 89 0 l 89 552 q 117 707 89 644 q 201 803 144 770 q 342 836 257 836 q 466 818 408 836 q 568 767 524 799 z "},"t":{"ha":592,"x_min":8,"x_max":583,"o":"m 272 0 l 272 782 l 8 782 l 8 826 l 583 826 l 583 782 l 319 782 l 319 0 l 272 0 z "},"ŧ":{"ha":592,"x_min":8,"x_max":583,"o":"m 272 0 l 272 782 l 8 782 l 8 826 l 583 826 l 583 782 l 319 782 l 319 0 l 272 0 m 97 423 l 97 462 l 494 462 l 494 423 l 97 423 z "},"ť":{"ha":592,"x_min":8,"x_max":583,"o":"m 272 0 l 272 782 l 8 782 l 8 826 l 583 826 l 583 782 l 319 782 l 319 0 l 272 0 z "},"ţ":{"ha":592,"x_min":8,"x_max":583,"o":"m 272 0 l 272 782 l 8 782 l 8 826 l 583 826 l 583 782 l 319 782 l 319 0 l 272 0 z "},"ț":{"ha":592,"x_min":8,"x_max":583,"o":"m 272 0 l 272 782 l 8 782 l 8 826 l 583 826 l 583 782 l 319 782 l 319 0 l 272 0 z "},"ṭ":{"ha":592,"x_min":8,"x_max":583,"o":"m 272 0 l 272 782 l 8 782 l 8 826 l 583 826 l 583 782 l 319 782 l 319 0 l 272 0 z "},"ṯ":{"ha":592,"x_min":8,"x_max":583,"o":"m 272 0 l 272 782 l 8 782 l 8 826 l 583 826 l 583 782 l 319 782 l 319 0 l 272 0 z "},"u":{"ha":751,"x_min":110,"x_max":642,"o":"m 376 -10 q 225 21 284 -10 q 138 116 166 52 q 110 279 110 180 l 110 826 l 157 826 l 157 272 q 208 92 157 149 q 376 35 259 35 q 545 92 494 35 q 596 272 596 149 l 596 826 l 642 826 l 642 279 q 614 116 642 180 q 527 21 586 52 q 376 -10 469 -10 z "},"ú":{"ha":751,"x_min":110,"x_max":642,"o":"m 376 -10 q 225 21 284 -10 q 138 116 166 52 q 110 279 110 180 l 110 826 l 157 826 l 157 272 q 208 92 157 149 q 376 35 259 35 q 545 92 494 35 q 596 272 596 149 l 596 826 l 642 826 l 642 279 q 614 116 642 180 q 527 21 586 52 q 376 -10 469 -10 z "},"ŭ":{"ha":751,"x_min":110,"x_max":642,"o":"m 376 -10 q 225 21 284 -10 q 138 116 166 52 q 110 279 110 180 l 110 826 l 157 826 l 157 272 q 208 92 157 149 q 376 35 259 35 q 545 92 494 35 q 596 272 596 149 l 596 826 l 642 826 l 642 279 q 614 116 642 180 q 527 21 586 52 q 376 -10 469 -10 z "},"û":{"ha":751,"x_min":110,"x_max":642,"o":"m 376 -10 q 225 21 284 -10 q 138 116 166 52 q 110 279 110 180 l 110 826 l 157 826 l 157 272 q 208 92 157 149 q 376 35 259 35 q 545 92 494 35 q 596 272 596 149 l 596 826 l 642 826 l 642 279 q 614 116 642 180 q 527 21 586 52 q 376 -10 469 -10 z "},"ȕ":{"ha":751,"x_min":110,"x_max":642,"o":"m 376 -10 q 225 21 284 -10 q 138 116 166 52 q 110 279 110 180 l 110 826 l 157 826 l 157 272 q 208 92 157 149 q 376 35 259 35 q 545 92 494 35 q 596 272 596 149 l 596 826 l 642 826 l 642 279 q 614 116 642 180 q 527 21 586 52 q 376 -10 469 -10 z "},"ü":{"ha":751,"x_min":110,"x_max":642,"o":"m 376 -10 q 225 21 284 -10 q 138 116 166 52 q 110 279 110 180 l 110 826 l 157 826 l 157 272 q 208 92 157 149 q 376 35 259 35 q 545 92 494 35 q 596 272 596 149 l 596 826 l 642 826 l 642 279 q 614 116 642 180 q 527 21 586 52 q 376 -10 469 -10 z "},"ụ":{"ha":751,"x_min":110,"x_max":642,"o":"m 376 -10 q 225 21 284 -10 q 138 116 166 52 q 110 279 110 180 l 110 826 l 157 826 l 157 272 q 208 92 157 149 q 376 35 259 35 q 545 92 494 35 q 596 272 596 149 l 596 826 l 642 826 l 642 279 q 614 116 642 180 q 527 21 586 52 q 376 -10 469 -10 z "},"ù":{"ha":751,"x_min":110,"x_max":642,"o":"m 376 -10 q 225 21 284 -10 q 138 116 166 52 q 110 279 110 180 l 110 826 l 157 826 l 157 272 q 208 92 157 149 q 376 35 259 35 q 545 92 494 35 q 596 272 596 149 l 596 826 l 642 826 l 642 279 q 614 116 642 180 q 527 21 586 52 q 376 -10 469 -10 z "},"ủ":{"ha":751,"x_min":110,"x_max":642,"o":"m 376 -10 q 225 21 284 -10 q 138 116 166 52 q 110 279 110 180 l 110 826 l 157 826 l 157 272 q 208 92 157 149 q 376 35 259 35 q 545 92 494 35 q 596 272 596 149 l 596 826 l 642 826 l 642 279 q 614 116 642 180 q 527 21 586 52 q 376 -10 469 -10 z "},"ư":{"ha":751,"x_min":110,"x_max":764,"o":"m 376 -10 q 225 21 284 -10 q 138 116 166 52 q 110 279 110 180 l 110 826 l 157 826 l 157 272 q 208 92 157 149 q 376 35 259 35 q 545 92 494 35 q 596 272 596 149 l 596 826 l 617 826 q 692 846 662 826 q 722 913 722 866 q 718 954 722 935 q 708 992 715 972 l 750 992 q 761 954 758 972 q 764 911 764 936 q 730 823 764 853 q 642 789 695 792 l 642 279 q 614 116 642 180 q 527 21 586 52 q 376 -10 469 -10 z "},"ứ":{"ha":751,"x_min":110,"x_max":764,"o":"m 376 -10 q 225 21 284 -10 q 138 116 166 52 q 110 279 110 180 l 110 826 l 157 826 l 157 272 q 208 92 157 149 q 376 35 259 35 q 545 92 494 35 q 596 272 596 149 l 596 826 l 617 826 q 692 846 662 826 q 722 913 722 866 q 718 954 722 935 q 708 992 715 972 l 750 992 q 761 954 758 972 q 764 911 764 936 q 730 823 764 853 q 642 789 695 792 l 642 279 q 614 116 642 180 q 527 21 586 52 q 376 -10 469 -10 z "},"ự":{"ha":751,"x_min":110,"x_max":764,"o":"m 376 -10 q 225 21 284 -10 q 138 116 166 52 q 110 279 110 180 l 110 826 l 157 826 l 157 272 q 208 92 157 149 q 376 35 259 35 q 545 92 494 35 q 596 272 596 149 l 596 826 l 617 826 q 692 846 662 826 q 722 913 722 866 q 718 954 722 935 q 708 992 715 972 l 750 992 q 761 954 758 972 q 764 911 764 936 q 730 823 764 853 q 642 789 695 792 l 642 279 q 614 116 642 180 q 527 21 586 52 q 376 -10 469 -10 z "},"ừ":{"ha":751,"x_min":110,"x_max":764,"o":"m 376 -10 q 225 21 284 -10 q 138 116 166 52 q 110 279 110 180 l 110 826 l 157 826 l 157 272 q 208 92 157 149 q 376 35 259 35 q 545 92 494 35 q 596 272 596 149 l 596 826 l 617 826 q 692 846 662 826 q 722 913 722 866 q 718 954 722 935 q 708 992 715 972 l 750 992 q 761 954 758 972 q 764 911 764 936 q 730 823 764 853 q 642 789 695 792 l 642 279 q 614 116 642 180 q 527 21 586 52 q 376 -10 469 -10 z "},"ử":{"ha":751,"x_min":110,"x_max":764,"o":"m 376 -10 q 225 21 284 -10 q 138 116 166 52 q 110 279 110 180 l 110 826 l 157 826 l 157 272 q 208 92 157 149 q 376 35 259 35 q 545 92 494 35 q 596 272 596 149 l 596 826 l 617 826 q 692 846 662 826 q 722 913 722 866 q 718 954 722 935 q 708 992 715 972 l 750 992 q 761 954 758 972 q 764 911 764 936 q 730 823 764 853 q 642 789 695 792 l 642 279 q 614 116 642 180 q 527 21 586 52 q 376 -10 469 -10 z "},"ữ":{"ha":751,"x_min":110,"x_max":764,"o":"m 376 -10 q 225 21 284 -10 q 138 116 166 52 q 110 279 110 180 l 110 826 l 157 826 l 157 272 q 208 92 157 149 q 376 35 259 35 q 545 92 494 35 q 596 272 596 149 l 596 826 l 617 826 q 692 846 662 826 q 722 913 722 866 q 718 954 722 935 q 708 992 715 972 l 750 992 q 761 954 758 972 q 764 911 764 936 q 730 823 764 853 q 642 789 695 792 l 642 279 q 614 116 642 180 q 527 21 586 52 q 376 -10 469 -10 m 465 976 q 401 990 431 976 q 344 1017 372 1003 q 288 1031 316 1031 q 236 1018 258 1031 q 194 981 215 1006 l 194 1026 q 234 1058 210 1047 q 288 1069 258 1069 q 352 1056 322 1069 q 409 1029 382 1042 q 465 1015 437 1015 q 517 1028 494 1015 q 558 1065 539 1040 l 558 1019 q 519 988 543 1000 q 465 976 496 976 z "},"ű":{"ha":751,"x_min":110,"x_max":642,"o":"m 376 -10 q 225 21 284 -10 q 138 116 166 52 q 110 279 110 180 l 110 826 l 157 826 l 157 272 q 208 92 157 149 q 376 35 259 35 q 545 92 494 35 q 596 272 596 149 l 596 826 l 642 826 l 642 279 q 614 116 642 180 q 527 21 586 52 q 376 -10 469 -10 z "},"ȗ":{"ha":751,"x_min":110,"x_max":642,"o":"m 376 -10 q 225 21 284 -10 q 138 116 166 52 q 110 279 110 180 l 110 826 l 157 826 l 157 272 q 208 92 157 149 q 376 35 259 35 q 545 92 494 35 q 596 272 596 149 l 596 826 l 642 826 l 642 279 q 614 116 642 180 q 527 21 586 52 q 376 -10 469 -10 z "},"ū":{"ha":751,"x_min":110,"x_max":642,"o":"m 376 -10 q 225 21 284 -10 q 138 116 166 52 q 110 279 110 180 l 110 826 l 157 826 l 157 272 q 208 92 157 149 q 376 35 259 35 q 545 92 494 35 q 596 272 596 149 l 596 826 l 642 826 l 642 279 q 614 116 642 180 q 527 21 586 52 q 376 -10 469 -10 z "},"ṻ":{"ha":751,"x_min":110,"x_max":642,"o":"m 376 -10 q 225 21 284 -10 q 138 116 166 52 q 110 279 110 180 l 110 826 l 157 826 l 157 272 q 208 92 157 149 q 376 35 259 35 q 545 92 494 35 q 596 272 596 149 l 596 826 l 642 826 l 642 279 q 614 116 642 180 q 527 21 586 52 q 376 -10 469 -10 z "},"ų":{"ha":751,"x_min":110,"x_max":642,"o":"m 596 826 l 642 826 l 642 279 q 602 92 642 160 q 475 0 563 24 q 383 -43 417 -16 q 335 -100 349 -69 q 321 -158 321 -131 q 345 -221 321 -201 q 418 -242 370 -242 q 465 -235 440 -242 q 521 -214 489 -229 l 521 -251 q 470 -271 495 -265 q 419 -278 444 -278 q 318 -248 354 -278 q 282 -161 282 -218 q 293 -101 282 -130 q 328 -46 305 -72 q 389 0 352 -20 l 390 -10 l 376 -10 q 225 21 284 -10 q 138 116 166 52 q 110 279 110 180 l 110 826 l 157 826 l 157 272 q 208 92 157 149 q 376 35 259 35 q 545 92 494 35 q 596 272 596 149 l 596 826 z "},"ů":{"ha":751,"x_min":110,"x_max":642,"o":"m 376 -10 q 225 21 284 -10 q 138 116 166 52 q 110 279 110 180 l 110 826 l 157 826 l 157 272 q 208 92 157 149 q 376 35 259 35 q 545 92 494 35 q 596 272 596 149 l 596 826 l 642 826 l 642 279 q 614 116 642 180 q 527 21 586 52 q 376 -10 469 -10 z "},"ũ":{"ha":751,"x_min":110,"x_max":642,"o":"m 376 -10 q 225 21 284 -10 q 138 116 166 52 q 110 279 110 180 l 110 826 l 157 826 l 157 272 q 208 92 157 149 q 376 35 259 35 q 545 92 494 35 q 596 272 596 149 l 596 826 l 642 826 l 642 279 q 614 116 642 180 q 527 21 586 52 q 376 -10 469 -10 z "},"ṹ":{"ha":751,"x_min":110,"x_max":642,"o":"m 376 -10 q 225 21 284 -10 q 138 116 166 52 q 110 279 110 180 l 110 826 l 157 826 l 157 272 q 208 92 157 149 q 376 35 259 35 q 545 92 494 35 q 596 272 596 149 l 596 826 l 642 826 l 642 279 q 614 116 642 180 q 527 21 586 52 q 376 -10 469 -10 z "},"v":{"ha":661,"x_min":8,"x_max":653,"o":"m 297 0 l 8 826 l 58 826 l 336 26 l 326 26 l 604 826 l 653 826 l 364 0 l 297 0 z "},"w":{"ha":1075,"x_min":42,"x_max":1033,"o":"m 264 0 l 42 826 l 90 826 l 304 26 l 292 26 l 507 826 l 569 826 l 785 26 l 774 26 l 988 826 l 1033 826 l 811 0 l 747 0 l 533 790 l 543 790 l 329 0 l 264 0 z "},"ẃ":{"ha":1075,"x_min":42,"x_max":1033,"o":"m 264 0 l 42 826 l 90 826 l 304 26 l 292 26 l 507 826 l 569 826 l 785 26 l 774 26 l 988 826 l 1033 826 l 811 0 l 747 0 l 533 790 l 543 790 l 329 0 l 264 0 z "},"ŵ":{"ha":1075,"x_min":42,"x_max":1033,"o":"m 264 0 l 42 826 l 90 826 l 304 26 l 292 26 l 507 826 l 569 826 l 785 26 l 774 26 l 988 826 l 1033 826 l 811 0 l 747 0 l 533 790 l 543 790 l 329 0 l 264 0 z "},"ẅ":{"ha":1075,"x_min":42,"x_max":1033,"o":"m 264 0 l 42 826 l 90 826 l 304 26 l 292 26 l 507 826 l 569 826 l 785 26 l 774 26 l 988 826 l 1033 826 l 811 0 l 747 0 l 533 790 l 543 790 l 329 0 l 264 0 z "},"ẁ":{"ha":1075,"x_min":42,"x_max":1033,"o":"m 264 0 l 42 826 l 90 826 l 304 26 l 292 26 l 507 826 l 569 826 l 785 26 l 774 26 l 988 826 l 1033 826 l 811 0 l 747 0 l 533 790 l 543 790 l 329 0 l 264 0 z "},"x":{"ha":656,"x_min":24,"x_max":632,"o":"m 576 0 l 328 378 l 300 418 l 31 826 l 86 826 l 329 457 l 356 418 l 632 0 l 576 0 m 24 0 l 300 418 l 329 457 l 572 826 l 625 826 l 356 418 l 328 378 l 79 0 l 24 0 z "},"y":{"ha":592,"x_min":-11,"x_max":597,"o":"m 272 0 l 272 397 l 283 357 l -11 826 l 42 826 l 304 410 l 289 410 l 547 826 l 597 826 l 308 357 l 319 397 l 319 0 l 272 0 z "},"ý":{"ha":592,"x_min":-11,"x_max":597,"o":"m 272 0 l 272 397 l 283 357 l -11 826 l 42 826 l 304 410 l 289 410 l 547 826 l 597 826 l 308 357 l 319 397 l 319 0 l 272 0 z "},"ŷ":{"ha":592,"x_min":-11,"x_max":597,"o":"m 272 0 l 272 397 l 283 357 l -11 826 l 42 826 l 304 410 l 289 410 l 547 826 l 597 826 l 308 357 l 319 397 l 319 0 l 272 0 z "},"ÿ":{"ha":592,"x_min":-11,"x_max":597,"o":"m 272 0 l 272 397 l 283 357 l -11 826 l 42 826 l 304 410 l 289 410 l 547 826 l 597 826 l 308 357 l 319 397 l 319 0 l 272 0 z "},"ẏ":{"ha":592,"x_min":-11,"x_max":597,"o":"m 272 0 l 272 397 l 283 357 l -11 826 l 42 826 l 304 410 l 289 410 l 547 826 l 597 826 l 308 357 l 319 397 l 319 0 l 272 0 z "},"ỵ":{"ha":592,"x_min":-11,"x_max":597,"o":"m 272 0 l 272 397 l 283 357 l -11 826 l 42 826 l 304 410 l 289 410 l 547 826 l 597 826 l 308 357 l 319 397 l 319 0 l 272 0 z "},"ỳ":{"ha":592,"x_min":-11,"x_max":597,"o":"m 272 0 l 272 397 l 283 357 l -11 826 l 42 826 l 304 410 l 289 410 l 547 826 l 597 826 l 308 357 l 319 397 l 319 0 l 272 0 z "},"ỷ":{"ha":592,"x_min":-11,"x_max":597,"o":"m 272 0 l 272 397 l 283 357 l -11 826 l 42 826 l 304 410 l 289 410 l 547 826 l 597 826 l 308 357 l 319 397 l 319 0 l 272 0 z "},"ȳ":{"ha":592,"x_min":-11,"x_max":597,"o":"m 272 0 l 272 397 l 283 357 l -11 826 l 42 826 l 304 410 l 289 410 l 547 826 l 597 826 l 308 357 l 319 397 l 319 0 l 272 0 z "},"ỹ":{"ha":592,"x_min":-11,"x_max":597,"o":"m 272 0 l 272 397 l 283 357 l -11 826 l 42 826 l 304 410 l 289 410 l 547 826 l 597 826 l 308 357 l 319 397 l 319 0 l 272 0 z "},"z":{"ha":582,"x_min":40,"x_max":542,"o":"m 40 0 l 40 29 l 485 796 l 493 782 l 46 782 l 46 826 l 536 826 l 536 797 l 90 31 l 82 44 l 542 44 l 542 0 l 40 0 z "},"ź":{"ha":582,"x_min":40,"x_max":542,"o":"m 40 0 l 40 29 l 485 796 l 493 782 l 46 782 l 46 826 l 536 826 l 536 797 l 90 31 l 82 44 l 542 44 l 542 0 l 40 0 z "},"ž":{"ha":582,"x_min":40,"x_max":542,"o":"m 40 0 l 40 29 l 485 796 l 493 782 l 46 782 l 46 826 l 536 826 l 536 797 l 90 31 l 82 44 l 542 44 l 542 0 l 40 0 z "},"ż":{"ha":582,"x_min":40,"x_max":542,"o":"m 40 0 l 40 29 l 485 796 l 493 782 l 46 782 l 46 826 l 536 826 l 536 797 l 90 31 l 82 44 l 542 44 l 542 0 l 40 0 z "},"ẓ":{"ha":582,"x_min":40,"x_max":542,"o":"m 40 0 l 40 29 l 485 796 l 493 782 l 46 782 l 46 826 l 536 826 l 536 797 l 90 31 l 82 44 l 542 44 l 542 0 l 40 0 z "},"ª":{"ha":497,"x_min":44,"x_max":422,"o":"m 211 414 q 91 456 138 414 q 44 574 44 499 q 91 694 44 650 q 239 749 138 738 l 400 765 l 406 724 l 239 707 q 127 668 163 700 q 92 579 92 637 q 125 488 92 518 q 218 457 158 457 q 301 477 258 457 q 378 550 344 498 l 378 843 q 360 934 378 901 q 308 980 342 967 q 224 993 274 993 q 155 986 192 993 q 78 965 117 979 l 78 1010 q 151 1029 110 1022 q 226 1036 191 1036 q 334 1018 290 1036 q 400 957 378 999 q 422 840 422 914 l 422 424 l 383 424 l 379 492 l 375 492 q 303 434 346 453 q 211 414 261 414 z "},"º":{"ha":531,"x_min":47,"x_max":483,"o":"m 265 414 q 107 485 167 414 q 47 726 47 557 q 107 966 47 897 q 265 1036 167 1036 q 423 966 363 1036 q 483 726 483 897 q 456 544 483 613 q 380 445 428 476 q 265 414 331 414 m 265 457 q 356 481 317 457 q 415 564 394 505 q 436 726 436 622 q 415 889 436 831 q 356 970 394 947 q 265 993 317 993 q 175 970 213 993 q 115 889 136 947 q 94 726 94 831 q 115 564 94 622 q 175 481 136 505 q 265 457 213 457 z "},"Δ":{"ha":785,"x_min":18,"x_max":767,"o":"m 18 0 l 363 1028 l 422 1028 l 767 0 l 18 0 m 76 25 l 63 46 l 721 46 l 707 25 l 385 996 l 399 996 l 76 25 z "},"Ω":{"ha":808,"x_min":68,"x_max":740,"o":"m 68 0 l 68 46 l 294 46 l 281 40 q 162 170 209 97 q 91 337 115 244 q 68 542 68 430 q 109 831 68 722 q 226 991 151 941 q 404 1040 301 1040 q 582 991 507 1040 q 699 831 658 941 q 740 542 740 722 q 717 337 740 430 q 647 170 694 244 q 528 40 599 97 l 514 46 l 740 46 l 740 0 l 461 0 l 461 44 q 592 173 542 101 q 667 336 643 244 q 690 544 690 428 q 655 813 690 715 q 555 953 619 911 q 404 994 490 994 q 254 953 318 994 q 154 813 190 911 q 118 544 118 715 q 142 336 118 428 q 216 173 165 244 q 347 44 267 101 l 347 0 l 68 0 z "},"μ":{"ha":639,"x_min":93,"x_max":539,"o":"m 288 -12 q 192 8 233 -12 q 129 78 151 28 q 107 214 107 127 l 107 319 l 140 319 l 140 211 q 182 72 140 110 q 289 33 224 33 q 357 45 319 33 q 431 83 395 56 q 492 157 467 110 l 492 750 l 539 750 l 539 0 l 497 0 l 493 83 l 488 83 q 394 11 447 35 q 288 -12 342 -12 m 93 -306 l 93 750 l 140 750 l 140 -306 l 93 -306 z "},"π":{"ha":774,"x_min":0,"x_max":771,"o":"m 688 -12 q 551 35 601 -12 q 501 193 501 82 l 501 726 l 549 726 l 549 201 q 584 70 549 107 q 690 33 619 33 q 730 36 709 33 q 771 44 750 40 l 771 -3 q 730 -10 752 -7 q 688 -12 708 -12 m 139 -1 l 139 726 l 186 726 l 186 -1 l 139 -1 m 0 706 l 0 750 l 688 750 l 688 706 l 0 706 z "},"₀":{"ha":472,"x_min":49,"x_max":422,"o":"m 236 -103 q 138 -69 180 -103 q 72 42 96 -36 q 49 253 49 119 q 72 464 49 386 q 138 575 96 542 q 236 608 180 608 q 334 575 292 608 q 399 464 376 542 q 422 253 422 386 q 399 42 422 119 q 334 -69 376 -36 q 236 -103 292 -103 m 236 -60 q 311 -33 279 -60 q 359 61 342 -6 q 376 251 376 129 q 359 442 376 374 q 311 538 342 510 q 236 565 279 565 q 161 538 193 565 q 112 443 129 510 q 94 254 94 375 q 112 65 94 133 q 161 -32 129 -3 q 236 -60 193 -60 z "},"₁":{"ha":472,"x_min":92,"x_max":422,"o":"m 242 -81 l 242 560 l 260 554 l 92 425 l 92 474 l 260 603 l 286 603 l 286 -81 l 242 -81 m 99 -94 l 99 -51 l 422 -51 l 422 -94 l 99 -94 z "},"₂":{"ha":472,"x_min":56,"x_max":394,"o":"m 64 -94 l 64 -67 l 246 219 q 310 338 290 288 q 331 433 331 387 q 293 536 331 506 q 186 565 255 565 q 117 559 149 565 q 56 539 86 553 l 56 583 q 117 602 82 596 q 189 608 151 608 q 327 568 276 608 q 376 435 378 528 q 354 328 376 383 q 282 196 332 274 l 114 -65 l 104 -51 l 394 -51 l 394 -94 l 64 -94 z "},"₃":{"ha":472,"x_min":51,"x_max":414,"o":"m 199 -103 q 122 -97 158 -103 q 51 -78 85 -90 l 51 -33 q 124 -53 87 -47 q 197 -60 162 -60 q 323 -23 276 -60 q 369 88 369 14 q 324 199 369 158 q 182 240 279 240 l 128 240 l 128 285 l 151 285 q 297 326 247 285 q 347 436 347 367 q 309 534 347 502 q 196 565 271 565 q 127 559 160 565 q 64 539 95 553 l 64 583 q 125 602 89 596 q 197 608 162 608 q 342 565 292 608 q 392 438 392 521 q 352 325 392 371 q 238 263 312 278 l 238 272 q 369 211 324 260 q 414 86 414 163 q 356 -54 414 -6 q 199 -103 298 -103 z "},"₄":{"ha":472,"x_min":24,"x_max":451,"o":"m 24 81 l 24 108 l 263 600 l 310 600 l 71 108 l 61 122 l 451 122 l 451 81 l 24 81 m 317 -94 l 317 122 l 325 365 l 360 365 l 360 -94 l 317 -94 z "},"₅":{"ha":472,"x_min":60,"x_max":422,"o":"m 206 -103 q 129 -97 166 -103 q 60 -78 92 -90 l 60 -33 q 133 -53 94 -47 q 207 -60 171 -60 q 334 -21 290 -60 q 378 93 378 17 q 355 180 378 146 q 284 232 332 214 q 161 254 236 250 l 83 260 l 106 600 l 392 600 l 392 558 l 128 558 l 147 578 l 126 275 l 99 301 l 176 296 q 313 267 258 290 q 395 201 367 244 q 422 96 422 159 q 366 -52 422 -1 q 206 -103 310 -103 z "},"₆":{"ha":472,"x_min":67,"x_max":439,"o":"m 265 -103 q 164 -73 209 -103 q 93 30 119 -43 q 67 231 67 102 q 130 523 67 437 q 310 608 193 608 q 363 604 336 608 q 410 590 389 600 l 410 546 q 363 561 388 556 q 308 565 337 565 q 201 535 245 565 q 134 432 157 504 q 111 235 111 360 l 111 219 q 132 49 111 110 q 187 -36 152 -12 q 265 -61 222 -61 q 356 -25 317 -61 q 394 97 394 12 q 353 220 394 183 q 251 257 311 257 q 165 238 209 257 q 97 171 122 218 l 97 224 q 163 278 120 258 q 257 299 206 299 q 348 277 307 299 q 414 212 390 256 q 439 100 439 168 q 388 -53 439 -3 q 265 -103 338 -103 z "},"₇":{"ha":472,"x_min":38,"x_max":414,"o":"m 113 -94 l 371 574 l 379 557 l 38 557 l 38 600 l 414 600 l 414 572 l 158 -94 l 113 -94 z "},"₈":{"ha":472,"x_min":42,"x_max":431,"o":"m 242 -103 q 133 -81 177 -103 q 65 -19 88 -60 q 42 78 42 21 q 77 195 42 144 q 172 269 112 247 l 208 251 q 119 188 151 232 q 86 79 86 143 q 124 -24 86 13 q 242 -61 163 -61 q 348 -26 310 -61 q 386 72 386 9 q 373 144 386 115 q 326 193 359 172 q 238 233 294 214 q 134 283 173 256 q 77 348 95 311 q 60 435 60 385 q 108 561 60 514 q 235 608 156 608 q 364 562 316 608 q 413 435 413 515 q 382 327 413 374 q 294 251 351 280 l 257 268 q 343 336 317 299 q 369 433 369 373 q 334 533 369 498 q 235 568 299 568 q 138 532 172 568 q 104 436 104 497 q 117 368 104 397 q 161 318 130 340 q 250 276 193 296 q 356 226 316 253 q 413 163 395 199 q 431 76 431 126 q 408 -18 431 22 q 342 -81 385 -58 q 242 -103 300 -103 z "},"₉":{"ha":472,"x_min":33,"x_max":406,"o":"m 163 -103 q 110 -98 137 -103 q 63 -85 83 -94 l 63 -40 q 110 -55 85 -51 q 164 -60 136 -60 q 271 -29 227 -60 q 338 74 315 1 q 361 271 361 146 l 361 286 q 341 456 361 395 q 285 542 320 517 q 207 567 250 567 q 116 530 155 567 q 78 408 78 494 q 120 286 78 323 q 221 249 162 249 q 308 268 264 249 q 375 335 351 288 l 375 282 q 309 227 352 248 q 215 207 267 207 q 124 228 165 207 q 58 293 83 249 q 33 406 33 338 q 84 559 33 509 q 207 608 135 608 q 308 578 263 608 q 380 476 353 549 q 406 275 406 403 q 342 -17 406 69 q 163 -103 279 -103 z "},"⁰":{"ha":472,"x_min":49,"x_max":422,"o":"m 236 419 q 138 453 180 419 q 72 564 96 486 q 49 775 49 642 q 72 986 49 908 q 138 1097 96 1064 q 236 1131 180 1131 q 334 1097 292 1131 q 399 986 376 1064 q 422 775 422 908 q 399 564 422 642 q 334 453 376 486 q 236 419 292 419 m 236 463 q 311 489 279 463 q 359 584 342 516 q 376 774 376 651 q 359 964 376 896 q 311 1060 342 1033 q 236 1088 279 1088 q 161 1060 193 1088 q 112 965 129 1033 q 94 776 94 897 q 112 587 94 656 q 161 491 129 519 q 236 463 193 463 z "},"¹":{"ha":472,"x_min":92,"x_max":422,"o":"m 242 442 l 242 1082 l 260 1076 l 92 947 l 92 996 l 260 1125 l 286 1125 l 286 442 l 242 442 m 99 428 l 99 471 l 422 471 l 422 428 l 99 428 z "},"²":{"ha":472,"x_min":56,"x_max":394,"o":"m 64 428 l 64 456 l 246 742 q 310 860 290 810 q 331 956 331 909 q 293 1058 331 1028 q 186 1088 255 1088 q 117 1081 149 1088 q 56 1061 86 1075 l 56 1106 q 117 1124 82 1118 q 189 1131 151 1131 q 326 1090 276 1131 q 376 957 376 1050 q 354 851 376 905 q 282 718 332 797 l 114 457 l 104 471 l 394 471 l 394 428 l 64 428 z "},"³":{"ha":472,"x_min":51,"x_max":414,"o":"m 199 419 q 122 426 158 419 q 51 444 85 432 l 51 489 q 124 469 87 476 q 197 463 162 463 q 323 499 276 463 q 369 610 369 536 q 324 721 369 680 q 182 763 279 763 l 128 763 l 128 807 l 151 807 q 297 848 247 807 q 347 958 347 890 q 309 1056 347 1024 q 196 1088 271 1088 q 127 1081 160 1088 q 64 1061 95 1075 l 64 1106 q 125 1124 89 1118 q 197 1131 162 1131 q 342 1087 292 1131 q 392 960 392 1043 q 352 847 392 893 q 238 785 312 801 l 238 794 q 369 734 324 782 q 414 608 414 685 q 356 468 414 517 q 199 419 298 419 z "},"⁴":{"ha":472,"x_min":24,"x_max":451,"o":"m 24 603 l 24 631 l 263 1122 l 310 1122 l 71 631 l 61 644 l 451 644 l 451 603 l 24 603 m 317 428 l 317 644 l 325 888 l 360 888 l 360 428 l 317 428 z "},"⁵":{"ha":472,"x_min":60,"x_max":422,"o":"m 206 419 q 129 426 166 419 q 60 444 92 432 l 60 489 q 133 469 94 476 q 207 463 171 463 q 334 501 290 463 q 378 615 378 540 q 355 702 378 668 q 284 754 332 736 q 161 776 236 772 l 83 782 l 106 1122 l 392 1122 l 392 1081 l 128 1081 l 147 1100 l 126 797 l 99 824 l 176 818 q 313 789 258 813 q 395 724 367 766 q 422 618 422 681 q 366 470 422 522 q 206 419 310 419 z "},"⁶":{"ha":472,"x_min":67,"x_max":439,"o":"m 265 419 q 164 449 209 419 q 93 552 119 479 q 67 753 67 624 q 130 1045 67 959 q 310 1131 193 1131 q 363 1126 336 1131 q 410 1113 389 1122 l 410 1068 q 363 1083 388 1078 q 308 1088 337 1088 q 201 1057 245 1088 q 134 954 157 1026 q 111 757 111 882 l 111 742 q 132 572 111 633 q 187 486 152 510 q 265 461 222 461 q 356 498 317 461 q 394 619 394 534 q 353 742 394 705 q 251 779 311 779 q 165 760 209 779 q 97 693 122 740 l 97 746 q 163 801 120 781 q 257 821 206 821 q 348 800 307 821 q 414 734 390 778 q 439 622 439 690 q 388 469 439 519 q 265 419 338 419 z "},"⁷":{"ha":472,"x_min":38,"x_max":414,"o":"m 113 428 l 371 1096 l 379 1079 l 38 1079 l 38 1122 l 414 1122 l 414 1094 l 158 428 l 113 428 z "},"⁸":{"ha":472,"x_min":42,"x_max":431,"o":"m 242 419 q 133 441 177 419 q 65 503 88 463 q 42 600 42 543 q 77 718 42 667 q 172 792 112 769 l 208 774 q 119 710 151 754 q 86 601 86 665 q 124 498 86 535 q 242 461 163 461 q 348 496 310 461 q 386 594 386 531 q 373 666 386 638 q 326 715 359 694 q 238 756 294 736 q 134 806 173 778 q 77 870 95 833 q 60 957 60 907 q 108 1083 60 1036 q 235 1131 156 1131 q 364 1084 316 1131 q 413 957 413 1038 q 382 849 413 896 q 294 774 351 802 l 257 790 q 343 858 317 821 q 369 956 369 895 q 334 1055 369 1020 q 235 1090 299 1090 q 138 1055 172 1090 q 104 958 104 1019 q 117 890 104 919 q 161 840 130 862 q 250 799 193 818 q 356 749 316 776 q 413 685 395 722 q 431 599 431 649 q 408 504 431 544 q 342 442 385 464 q 242 419 300 419 z "},"⁹":{"ha":472,"x_min":33,"x_max":406,"o":"m 163 419 q 110 424 137 419 q 63 438 83 428 l 63 482 q 110 467 85 472 q 164 463 136 463 q 271 493 227 463 q 338 596 315 524 q 361 793 361 668 l 361 808 q 341 978 361 917 q 285 1064 320 1040 q 207 1089 250 1089 q 116 1052 155 1089 q 78 931 78 1016 q 120 808 78 845 q 221 771 162 771 q 308 791 264 771 q 375 857 351 810 l 375 804 q 309 750 352 770 q 215 729 267 729 q 124 750 165 729 q 58 816 83 772 q 33 928 33 860 q 84 1081 33 1031 q 207 1131 135 1131 q 308 1101 263 1131 q 380 998 353 1071 q 406 797 406 926 q 342 505 406 591 q 163 419 279 419 z "},"⁄":{"ha":128,"x_min":-208,"x_max":336,"o":"m -208 -94 l 290 1122 l 336 1122 l -162 -94 l -208 -94 z "},"½":{"ha":1072,"x_min":92,"x_max":994,"o":"m 242 442 l 242 1082 l 260 1076 l 92 947 l 92 996 l 260 1125 l 286 1125 l 286 442 l 242 442 m 99 428 l 99 471 l 422 471 l 422 428 l 99 428 m 264 -94 l 763 1122 l 808 1122 l 310 -94 l 264 -94 m 664 -94 l 664 -67 l 846 219 q 910 338 890 288 q 931 433 931 387 q 893 536 931 506 q 786 565 855 565 q 717 559 749 565 q 656 539 686 553 l 656 583 q 717 602 682 596 q 789 608 751 608 q 927 568 876 608 q 976 435 978 528 q 954 328 976 383 q 882 196 932 274 l 714 -65 l 704 -51 l 994 -51 l 994 -94 l 664 -94 z "},"⅓":{"ha":1072,"x_min":92,"x_max":1014,"o":"m 242 442 l 242 1082 l 260 1076 l 92 947 l 92 996 l 260 1125 l 286 1125 l 286 442 l 242 442 m 99 428 l 99 471 l 422 471 l 422 428 l 99 428 m 264 -94 l 763 1122 l 808 1122 l 310 -94 l 264 -94 m 799 -103 q 722 -97 758 -103 q 651 -78 685 -90 l 651 -33 q 724 -53 687 -47 q 797 -60 762 -60 q 923 -23 876 -60 q 969 88 969 14 q 924 199 969 158 q 782 240 879 240 l 728 240 l 728 285 l 751 285 q 897 326 847 285 q 947 436 947 367 q 909 534 947 502 q 796 565 871 565 q 727 559 760 565 q 664 539 695 553 l 664 583 q 725 602 689 596 q 797 608 762 608 q 942 565 892 608 q 992 438 992 521 q 952 325 992 371 q 838 263 912 278 l 838 272 q 969 211 924 260 q 1014 86 1014 163 q 956 -54 1014 -6 q 799 -103 898 -103 z "},"⅔":{"ha":1072,"x_min":56,"x_max":1014,"o":"m 64 428 l 64 456 l 246 742 q 310 860 290 810 q 331 956 331 909 q 293 1058 331 1028 q 186 1088 255 1088 q 117 1081 149 1088 q 56 1061 86 1075 l 56 1106 q 117 1124 82 1118 q 189 1131 151 1131 q 326 1090 276 1131 q 376 957 376 1050 q 354 851 376 905 q 282 718 332 797 l 114 457 l 104 471 l 394 471 l 394 428 l 64 428 m 264 -94 l 763 1122 l 808 1122 l 310 -94 l 264 -94 m 799 -103 q 722 -97 758 -103 q 651 -78 685 -90 l 651 -33 q 724 -53 687 -47 q 797 -60 762 -60 q 923 -23 876 -60 q 969 88 969 14 q 924 199 969 158 q 782 240 879 240 l 728 240 l 728 285 l 751 285 q 897 326 847 285 q 947 436 947 367 q 909 534 947 502 q 796 565 871 565 q 727 559 760 565 q 664 539 695 553 l 664 583 q 725 602 689 596 q 797 608 762 608 q 942 565 892 608 q 992 438 992 521 q 952 325 992 371 q 838 263 912 278 l 838 272 q 969 211 924 260 q 1014 86 1014 163 q 956 -54 1014 -6 q 799 -103 898 -103 z "},"¼":{"ha":1072,"x_min":92,"x_max":1051,"o":"m 242 442 l 242 1082 l 260 1076 l 92 947 l 92 996 l 260 1125 l 286 1125 l 286 442 l 242 442 m 99 428 l 99 471 l 422 471 l 422 428 l 99 428 m 264 -94 l 763 1122 l 808 1122 l 310 -94 l 264 -94 m 624 81 l 624 108 l 863 600 l 910 600 l 671 108 l 661 122 l 1051 122 l 1051 81 l 624 81 m 917 -94 l 917 122 l 925 365 l 960 365 l 960 -94 l 917 -94 z "},"¾":{"ha":1072,"x_min":51,"x_max":1051,"o":"m 199 419 q 122 426 158 419 q 51 444 85 432 l 51 489 q 124 469 87 476 q 197 463 162 463 q 323 499 276 463 q 369 610 369 536 q 324 721 369 680 q 182 763 279 763 l 128 763 l 128 807 l 151 807 q 297 848 247 807 q 347 958 347 890 q 309 1056 347 1024 q 196 1088 271 1088 q 127 1081 160 1088 q 64 1061 95 1075 l 64 1106 q 125 1124 89 1118 q 197 1131 162 1131 q 342 1087 292 1131 q 392 960 392 1043 q 352 847 392 893 q 238 785 312 801 l 238 794 q 369 734 324 782 q 414 608 414 685 q 356 468 414 517 q 199 419 298 419 m 264 -94 l 763 1122 l 808 1122 l 310 -94 l 264 -94 m 624 81 l 624 108 l 863 600 l 910 600 l 671 108 l 661 122 l 1051 122 l 1051 81 l 624 81 m 917 -94 l 917 122 l 925 365 l 960 365 l 960 -94 l 917 -94 z "},"⅛":{"ha":1072,"x_min":92,"x_max":1031,"o":"m 242 442 l 242 1082 l 260 1076 l 92 947 l 92 996 l 260 1125 l 286 1125 l 286 442 l 242 442 m 99 428 l 99 471 l 422 471 l 422 428 l 99 428 m 264 -94 l 763 1122 l 808 1122 l 310 -94 l 264 -94 m 842 -103 q 733 -81 777 -103 q 665 -19 688 -60 q 642 78 642 21 q 677 195 642 144 q 772 269 712 247 l 808 251 q 719 188 751 232 q 686 79 686 143 q 724 -24 686 13 q 842 -61 763 -61 q 948 -26 910 -61 q 986 72 986 9 q 973 144 986 115 q 926 193 959 172 q 838 233 894 214 q 734 283 773 256 q 677 348 695 311 q 660 435 660 385 q 708 561 660 514 q 835 608 756 608 q 964 562 916 608 q 1013 435 1013 515 q 982 327 1013 374 q 894 251 951 280 l 857 268 q 943 336 917 299 q 969 433 969 373 q 934 533 969 498 q 835 568 899 568 q 738 532 772 568 q 704 436 704 497 q 717 368 704 397 q 761 318 730 340 q 850 276 793 296 q 956 226 916 253 q 1013 163 995 199 q 1031 76 1031 126 q 1008 -18 1031 22 q 942 -81 985 -58 q 842 -103 900 -103 z "}}}
